Cantarell-Light.ufo
<glyph name="exclam" format="2">
  <advance width="214.0"/>
  <unicode hex="0021"/>
  <outline>
    <contour>
      <point x="98.0" y="155.0" type="line"/>
      <point x="115.0" y="155.0" type="line"/>
      <point x="117.0" y="694.0" type="line"/>
      <point x="96.0" y="694.0" type="line"/>
    </contour>
    <contour>
      <point x="109.0" y="-10.0" type="curve" smooth="yes"/>
      <point x="123.0" y="-10.0"/>
      <point x="132.0" y="0.0"/>
      <point x="132.0" y="13.0" type="curve" smooth="yes"/>
      <point x="132.0" y="27.0"/>
      <point x="123.0" y="37.0"/>
      <point x="109.0" y="37.0" type="curve" smooth="yes"/>
      <point x="95.0" y="37.0"/>
      <point x="86.0" y="27.0"/>
      <point x="86.0" y="13.0" type="curve" smooth="yes"/>
      <point x="86.0" y="0.0"/>
      <point x="95.0" y="-10.0"/>
    </contour>
  </outline>
</glyph>
<glyph name="numbersign" format="2">
  <advance width="624.0"/>
  <unicode hex="0023"/>
  <outline>
    <contour>
      <point x="418.0" y="0.0" type="line"/>
      <point x="438.0" y="0.0" type="line"/>
      <point x="438.0" y="694.0" type="line"/>
      <point x="418.0" y="694.0" type="line"/>
    </contour>
    <contour>
      <point x="39.0" y="206.0" type="line"/>
      <point x="585.0" y="206.0" type="line"/>
      <point x="585.0" y="222.0" type="line"/>
      <point x="39.0" y="222.0" type="line"/>
    </contour>
    <contour>
      <point x="189.0" y="0.0" type="line"/>
      <point x="209.0" y="0.0" type="line"/>
      <point x="209.0" y="694.0" type="line"/>
      <point x="189.0" y="694.0" type="line"/>
    </contour>
    <contour>
      <point x="39.0" y="476.0" type="line"/>
      <point x="585.0" y="476.0" type="line"/>
      <point x="585.0" y="492.0" type="line"/>
      <point x="39.0" y="492.0" type="line"/>
    </contour>
  </outline>
</glyph>
<glyph name="percent" format="2">
  <advance width="964.0"/>
  <unicode hex="0025"/>
  <outline>
    <contour>
      <point x="291.0" y="0.0" type="line"/>
      <point x="307.0" y="0.0" type="line"/>
      <point x="693.0" y="694.0" type="line"/>
      <point x="670.0" y="694.0" type="line"/>
    </contour>
    <contour>
      <point x="237.0" y="264.0" type="curve" smooth="yes"/>
      <point x="321.0" y="264.0"/>
      <point x="376.0" y="351.0"/>
      <point x="376.0" y="484.0" type="curve" smooth="yes"/>
      <point x="376.0" y="616.0"/>
      <point x="322.0" y="704.0"/>
      <point x="240.0" y="704.0" type="curve" smooth="yes"/>
      <point x="155.0" y="704.0"/>
      <point x="100.0" y="616.0"/>
      <point x="100.0" y="481.0" type="curve" smooth="yes"/>
      <point x="100.0" y="350.0"/>
      <point x="154.0" y="264.0"/>
    </contour>
    <contour>
      <point x="240.0" y="280.0" type="curve" smooth="yes"/>
      <point x="167.0" y="280.0"/>
      <point x="119.0" y="361.0"/>
      <point x="119.0" y="484.0" type="curve" smooth="yes"/>
      <point x="119.0" y="607.0"/>
      <point x="166.0" y="688.0"/>
      <point x="238.0" y="688.0" type="curve" smooth="yes"/>
      <point x="310.0" y="688.0"/>
      <point x="357.0" y="605.0"/>
      <point x="357.0" y="481.0" type="curve" smooth="yes"/>
      <point x="357.0" y="360.0"/>
      <point x="310.0" y="280.0"/>
    </contour>
    <contour>
      <point x="725.0" y="-6.0" type="curve" smooth="yes"/>
      <point x="809.0" y="-6.0"/>
      <point x="864.0" y="81.0"/>
      <point x="864.0" y="214.0" type="curve" smooth="yes"/>
      <point x="864.0" y="346.0"/>
      <point x="810.0" y="434.0"/>
      <point x="728.0" y="434.0" type="curve" smooth="yes"/>
      <point x="643.0" y="434.0"/>
      <point x="588.0" y="346.0"/>
      <point x="588.0" y="211.0" type="curve" smooth="yes"/>
      <point x="588.0" y="80.0"/>
      <point x="642.0" y="-6.0"/>
    </contour>
    <contour>
      <point x="728.0" y="10.0" type="curve" smooth="yes"/>
      <point x="655.0" y="10.0"/>
      <point x="607.0" y="91.0"/>
      <point x="607.0" y="214.0" type="curve" smooth="yes"/>
      <point x="607.0" y="337.0"/>
      <point x="654.0" y="418.0"/>
      <point x="726.0" y="418.0" type="curve" smooth="yes"/>
      <point x="798.0" y="418.0"/>
      <point x="845.0" y="335.0"/>
      <point x="845.0" y="211.0" type="curve" smooth="yes"/>
      <point x="845.0" y="90.0"/>
      <point x="798.0" y="10.0"/>
    </contour>
  </outline>
</glyph>
<glyph name="ampersand" format="2">
  <advance width="703"/>
  <unicode hex="0026"/>
  <outline>
    <contour>
      <point x="299" y="-12" type="curve" smooth="yes"/>
      <point x="426" y="-12"/>
      <point x="545" y="93"/>
      <point x="618" y="271" type="curve"/>
      <point x="602" y="279" type="line"/>
      <point x="529" y="107"/>
      <point x="418" y="6"/>
      <point x="302" y="6" type="curve" smooth="yes"/>
      <point x="203" y="6"/>
      <point x="117" y="79"/>
      <point x="117" y="186" type="curve" smooth="yes"/>
      <point x="117" y="402"/>
      <point x="466" y="367"/>
      <point x="466" y="568" type="curve" smooth="yes"/>
      <point x="466" y="649"/>
      <point x="409" y="704"/>
      <point x="327" y="704" type="curve" smooth="yes"/>
      <point x="237" y="704"/>
      <point x="177" y="637"/>
      <point x="177" y="537" type="curve" smooth="yes"/>
      <point x="177" y="411"/>
      <point x="279" y="280"/>
      <point x="589" y="-5" type="curve"/>
      <point x="602" y="10" type="line"/>
      <point x="295" y="295"/>
      <point x="198" y="418"/>
      <point x="198" y="538" type="curve" smooth="yes"/>
      <point x="198" y="628"/>
      <point x="248" y="686"/>
      <point x="325" y="686" type="curve" smooth="yes"/>
      <point x="396" y="686"/>
      <point x="446" y="636"/>
      <point x="446" y="567" type="curve" smooth="yes"/>
      <point x="446" y="382"/>
      <point x="96" y="412"/>
      <point x="96" y="184" type="curve" smooth="yes"/>
      <point x="96" y="65"/>
      <point x="191" y="-12"/>
    </contour>
  </outline>
</glyph>
<glyph name="quotesingle" format="2">
  <advance width="196.0"/>
  <unicode hex="0027"/>
  <outline>
    <contour>
      <point x="90.0" y="432.0" type="line"/>
      <point x="106.0" y="432.0" type="line"/>
      <point x="110.0" y="694.0" type="line"/>
      <point x="86.0" y="694.0" type="line"/>
    </contour>
  </outline>
</glyph>
<glyph name="parenleft" format="2">
  <advance width="261.0"/>
  <unicode hex="0028"/>
  <outline>
    <contour>
      <point x="203.0" y="-168.0" type="curve"/>
      <point x="219.0" y="-160.0" type="line"/>
      <point x="117.0" y="10.0"/>
      <point x="92.0" y="98.0"/>
      <point x="92.0" y="301.0" type="curve" smooth="yes"/>
      <point x="92.0" y="474.0"/>
      <point x="117.0" y="560.0"/>
      <point x="217.0" y="736.0" type="curve"/>
      <point x="201.0" y="744.0" type="line"/>
      <point x="105.0" y="579.0"/>
      <point x="71.0" y="466.0"/>
      <point x="71.0" y="297.0" type="curve" smooth="yes"/>
      <point x="71.0" y="95.0"/>
      <point x="106.0" y="-16.0"/>
    </contour>
  </outline>
</glyph>
<glyph name="asterisk" format="2">
  <advance width="461.0"/>
  <unicode hex="002A"/>
  <outline>
    <contour>
      <point x="232.0" y="488.0" type="line"/>
      <point x="409.0" y="585.0" type="line"/>
      <point x="397.0" y="603.0" type="line"/>
      <point x="226.0" y="497.0" type="line"/>
    </contour>
    <contour>
      <point x="62.0" y="372.0" type="line"/>
      <point x="232.0" y="487.0" type="line"/>
      <point x="226.0" y="497.0" type="line"/>
      <point x="50.0" y="390.0" type="line"/>
    </contour>
    <contour>
      <point x="216.0" y="283.0" type="line"/>
      <point x="237.0" y="283.0" type="line"/>
      <point x="234.0" y="487.0" type="line"/>
      <point x="220.0" y="487.0" type="line"/>
    </contour>
    <contour>
      <point x="225.0" y="484.0" type="line"/>
      <point x="230.0" y="494.0" type="line"/>
      <point x="63.0" y="608.0" type="line"/>
      <point x="51.0" y="590.0" type="line"/>
    </contour>
    <contour>
      <point x="399.0" y="369.0" type="line"/>
      <point x="411.0" y="387.0" type="line"/>
      <point x="232.0" y="494.0" type="line"/>
      <point x="225.0" y="484.0" type="line"/>
    </contour>
    <contour>
      <point x="220.0" y="487.0" type="line"/>
      <point x="234.0" y="487.0" type="line"/>
      <point x="237.0" y="694.0" type="line"/>
      <point x="216.0" y="694.0" type="line"/>
    </contour>
  </outline>
</glyph>
<glyph name="plus" format="2">
  <advance width="651"/>
  <unicode hex="002B"/>
  <outline>
    <contour>
      <point x="319" y="62" type="line"/>
      <point x="337" y="62" type="line"/>
      <point x="337" y="588" type="line"/>
      <point x="319" y="588" type="line"/>
    </contour>
    <contour>
      <point x="81" y="322" type="line"/>
      <point x="570" y="322" type="line"/>
      <point x="570" y="339" type="line"/>
      <point x="81" y="339" type="line"/>
    </contour>
  </outline>
</glyph>
<glyph name="comma" format="2">
  <advance width="196"/>
  <unicode hex="002C"/>
  <outline>
    <contour>
      <point x="51" y="-170" type="curve"/>
      <point x="70" y="-170" type="line"/>
      <point x="98" y="-95"/>
      <point x="115" y="6"/>
      <point x="115" y="103" type="curve"/>
      <point x="91" y="103" type="line"/>
      <point x="91" y="3"/>
      <point x="76" y="-97"/>
    </contour>
  </outline>
</glyph>
<glyph name="hyphen" format="2">
  <advance width="462"/>
  <unicode hex="002D"/>
  <outline>
    <contour>
      <point x="96" y="240" type="line"/>
      <point x="366" y="240" type="line"/>
      <point x="366" y="257" type="line"/>
      <point x="96" y="257" type="line"/>
    </contour>
  </outline>
</glyph>
<glyph name="period" format="2">
  <advance width="196"/>
  <unicode hex="002E"/>
  <outline>
    <contour>
      <point x="98" y="-10" type="curve" smooth="yes"/>
      <point x="112" y="-10"/>
      <point x="121" y="0"/>
      <point x="121" y="13" type="curve" smooth="yes"/>
      <point x="121" y="27"/>
      <point x="112" y="37"/>
      <point x="98" y="37" type="curve" smooth="yes"/>
      <point x="84" y="37"/>
      <point x="75" y="27"/>
      <point x="75" y="13" type="curve" smooth="yes"/>
      <point x="75" y="0"/>
      <point x="84" y="-10"/>
    </contour>
  </outline>
</glyph>
<glyph name="slash" format="2">
  <advance width="293.0"/>
  <unicode hex="002F"/>
  <outline>
    <contour>
      <point x="34.0" y="-115.0" type="line"/>
      <point x="54.0" y="-115.0" type="line"/>
      <point x="259.0" y="739.0" type="line"/>
      <point x="237.0" y="739.0" type="line"/>
    </contour>
  </outline>
</glyph>
<glyph name="zero" format="2">
  <advance width="573"/>
  <unicode hex="0030"/>
  <anchor x="295" y="350" name="slash"/>
  <outline>
    <contour>
      <point x="286" y="-10" type="curve" smooth="yes"/>
      <point x="417" y="-10"/>
      <point x="504" y="131"/>
      <point x="504" y="343" type="curve" smooth="yes"/>
      <point x="504" y="556"/>
      <point x="418" y="699"/>
      <point x="290" y="699" type="curve" smooth="yes"/>
      <point x="157" y="699"/>
      <point x="69" y="555"/>
      <point x="69" y="340" type="curve" smooth="yes"/>
      <point x="69" y="130"/>
      <point x="156" y="-10"/>
    </contour>
    <contour>
      <point x="289" y="8" type="curve" smooth="yes"/>
      <point x="170" y="8"/>
      <point x="90" y="142"/>
      <point x="90" y="343" type="curve" smooth="yes"/>
      <point x="90" y="546"/>
      <point x="169" y="681"/>
      <point x="287" y="681" type="curve" smooth="yes"/>
      <point x="405" y="681"/>
      <point x="483" y="544"/>
      <point x="483" y="340" type="curve" smooth="yes"/>
      <point x="483" y="141"/>
      <point x="405" y="8"/>
    </contour>
  </outline>
</glyph>
<glyph name="one" format="2">
  <advance width="353"/>
  <unicode hex="0031"/>
  <outline>
    <contour>
      <point x="217" y="-2" type="line"/>
      <point x="237" y="-2" type="line"/>
      <point x="237" y="694" type="line"/>
      <point x="227" y="694" type="line"/>
      <point x="14" y="577" type="line"/>
      <point x="23" y="561" type="line"/>
      <point x="226" y="671" type="line"/>
      <point x="217" y="677" type="line"/>
    </contour>
  </outline>
</glyph>
<glyph name="two" format="2">
  <advance width="502"/>
  <unicode hex="0032"/>
  <outline>
    <contour>
      <point x="47" y="0" type="line"/>
      <point x="448" y="0" type="line"/>
      <point x="448" y="17" type="line"/>
      <point x="67" y="17" type="line"/>
      <point x="71" y="10" type="line"/>
      <point x="365" y="310"/>
      <point x="421" y="406"/>
      <point x="421" y="509" type="curve" smooth="yes"/>
      <point x="421" y="630"/>
      <point x="345" y="704"/>
      <point x="226" y="704" type="curve" smooth="yes"/>
      <point x="154" y="704"/>
      <point x="93" y="678"/>
      <point x="47" y="629" type="curve"/>
      <point x="56" y="616" type="line"/>
      <point x="106" y="663"/>
      <point x="160" y="686"/>
      <point x="222" y="686" type="curve" smooth="yes"/>
      <point x="330" y="686"/>
      <point x="401" y="617"/>
      <point x="401" y="507" type="curve" smooth="yes"/>
      <point x="401" y="407"/>
      <point x="343" y="311"/>
      <point x="47" y="8" type="curve"/>
    </contour>
  </outline>
</glyph>
<glyph name="three" format="2">
  <advance width="556"/>
  <unicode hex="0033"/>
  <outline>
    <contour>
      <point x="263" y="-10" type="curve" smooth="yes"/>
      <point x="402" y="-10"/>
      <point x="491" y="60"/>
      <point x="491" y="170" type="curve" smooth="yes"/>
      <point x="491" y="280"/>
      <point x="406" y="350"/>
      <point x="262" y="360" type="curve"/>
      <point x="262" y="352" type="line"/>
      <point x="377" y="359"/>
      <point x="453" y="429"/>
      <point x="453" y="528" type="curve" smooth="yes"/>
      <point x="453" y="632"/>
      <point x="371" y="704"/>
      <point x="252" y="704" type="curve" smooth="yes"/>
      <point x="186" y="704"/>
      <point x="121" y="683"/>
      <point x="67" y="645" type="curve"/>
      <point x="72" y="629" type="line"/>
      <point x="134" y="668"/>
      <point x="190" y="686"/>
      <point x="248" y="686" type="curve" smooth="yes"/>
      <point x="358" y="686"/>
      <point x="432" y="624"/>
      <point x="432" y="524" type="curve" smooth="yes"/>
      <point x="432" y="418"/>
      <point x="351" y="361"/>
      <point x="202" y="361" type="curve" smooth="yes"/>
      <point x="183" y="361" type="line"/>
      <point x="183" y="344" type="line"/>
      <point x="202" y="344" type="line" smooth="yes"/>
      <point x="373" y="344"/>
      <point x="471" y="280"/>
      <point x="471" y="168" type="curve" smooth="yes"/>
      <point x="471" y="69"/>
      <point x="392" y="9"/>
      <point x="264" y="9" type="curve" smooth="yes"/>
      <point x="192" y="9"/>
      <point x="114" y="29"/>
      <point x="53" y="63" type="curve"/>
      <point x="48" y="45" type="line"/>
      <point x="107" y="11"/>
      <point x="188" y="-10"/>
    </contour>
  </outline>
</glyph>
<glyph name="four" format="2">
  <advance width="584"/>
  <unicode hex="0034"/>
  <outline>
    <contour>
      <point x="401" y="-10" type="line"/>
      <point x="419" y="-10" type="line"/>
      <point x="419" y="694" type="line"/>
      <point x="402" y="694" type="line"/>
      <point x="45" y="200" type="line"/>
      <point x="45" y="190" type="line"/>
      <point x="541" y="190" type="line"/>
      <point x="541" y="207" type="line"/>
      <point x="67" y="207" type="line"/>
      <point x="67" y="202" type="line"/>
      <point x="401" y="667" type="line"/>
      <point x="401" y="665" type="line"/>
    </contour>
  </outline>
</glyph>
<glyph name="five" format="2">
  <advance width="530"/>
  <unicode hex="0035"/>
  <outline>
    <contour>
      <point x="245" y="-10" type="curve" smooth="yes"/>
      <point x="379" y="-10"/>
      <point x="469" y="75"/>
      <point x="469" y="203" type="curve" smooth="yes"/>
      <point x="469" y="327"/>
      <point x="381" y="403"/>
      <point x="237" y="403" type="curve" smooth="yes"/>
      <point x="195" y="403"/>
      <point x="145" y="397"/>
      <point x="100" y="386" type="curve"/>
      <point x="112" y="382" type="line"/>
      <point x="125" y="677" type="line"/>
      <point x="440" y="677" type="line"/>
      <point x="440" y="694" type="line"/>
      <point x="107" y="694" type="line"/>
      <point x="91" y="367" type="line"/>
      <point x="134" y="378"/>
      <point x="186" y="385"/>
      <point x="230" y="385" type="curve" smooth="yes"/>
      <point x="367" y="385"/>
      <point x="448" y="316"/>
      <point x="448" y="201" type="curve" smooth="yes"/>
      <point x="448" y="86"/>
      <point x="368" y="9"/>
      <point x="249" y="9" type="curve" smooth="yes"/>
      <point x="187" y="9"/>
      <point x="115" y="29"/>
      <point x="70" y="58" type="curve"/>
      <point x="64" y="41" type="line"/>
      <point x="114" y="9"/>
      <point x="181" y="-10"/>
    </contour>
  </outline>
</glyph>
<glyph name="six" format="2">
  <advance width="561"/>
  <unicode hex="0036"/>
  <outline>
    <contour>
      <point x="300" y="-10" type="curve" smooth="yes"/>
      <point x="421" y="-10"/>
      <point x="506" y="77"/>
      <point x="506" y="206" type="curve" smooth="yes"/>
      <point x="506" y="333"/>
      <point x="423" y="412"/>
      <point x="303" y="412" type="curve" smooth="yes"/>
      <point x="200" y="412"/>
      <point x="126" y="357"/>
      <point x="85" y="250" type="curve"/>
      <point x="85" y="219" type="line"/>
      <point x="126" y="336"/>
      <point x="198" y="394"/>
      <point x="299" y="394" type="curve" smooth="yes"/>
      <point x="407" y="394"/>
      <point x="485" y="322"/>
      <point x="485" y="203" type="curve" smooth="yes"/>
      <point x="485" y="86"/>
      <point x="410" y="8"/>
      <point x="301" y="8" type="curve" smooth="yes"/>
      <point x="167" y="8"/>
      <point x="90" y="125"/>
      <point x="90" y="322" type="curve" smooth="yes"/>
      <point x="90" y="559"/>
      <point x="178" y="686"/>
      <point x="344" y="686" type="curve" smooth="yes"/>
      <point x="396" y="686"/>
      <point x="436" y="673"/>
      <point x="474" y="657" type="curve"/>
      <point x="481" y="674" type="line"/>
      <point x="440" y="691"/>
      <point x="401" y="704"/>
      <point x="346" y="704" type="curve" smooth="yes"/>
      <point x="165" y="704"/>
      <point x="69" y="569"/>
      <point x="69" y="319" type="curve" smooth="yes"/>
      <point x="69" y="113"/>
      <point x="154" y="-10"/>
    </contour>
  </outline>
</glyph>
<glyph name="seven" format="2">
  <advance width="510"/>
  <unicode hex="0037"/>
  <outline>
    <contour>
      <point x="152" y="0" type="line"/>
      <point x="175" y="0" type="line"/>
      <point x="466" y="682" type="line"/>
      <point x="466" y="694" type="line"/>
      <point x="39" y="694" type="line"/>
      <point x="39" y="676" type="line"/>
      <point x="449" y="676" type="line"/>
      <point x="446" y="685" type="line"/>
    </contour>
  </outline>
</glyph>
<glyph name="eight" format="2">
  <advance width="551"/>
  <unicode hex="0038"/>
  <outline>
    <contour>
      <point x="280" y="-10" type="curve" smooth="yes"/>
      <point x="410" y="-10"/>
      <point x="497" y="57"/>
      <point x="497" y="163" type="curve" smooth="yes"/>
      <point x="497" y="387"/>
      <point x="108" y="324"/>
      <point x="108" y="540" type="curve" smooth="yes"/>
      <point x="108" y="629"/>
      <point x="169" y="687"/>
      <point x="267" y="687" type="curve" smooth="yes"/>
      <point x="365" y="687"/>
      <point x="440" y="628"/>
      <point x="440" y="543" type="curve" smooth="yes"/>
      <point x="440" y="460"/>
      <point x="368" y="397"/>
      <point x="259" y="369" type="curve"/>
      <point x="275" y="358" type="line"/>
      <point x="388" y="385"/>
      <point x="459" y="454"/>
      <point x="459" y="543" type="curve" smooth="yes"/>
      <point x="459" y="639"/>
      <point x="378" y="704"/>
      <point x="269" y="704" type="curve" smooth="yes"/>
      <point x="159" y="704"/>
      <point x="89" y="639"/>
      <point x="89" y="538" type="curve" smooth="yes"/>
      <point x="89" y="309"/>
      <point x="477" y="374"/>
      <point x="477" y="161" type="curve" smooth="yes"/>
      <point x="477" y="67"/>
      <point x="400" y="7"/>
      <point x="282" y="7" type="curve" smooth="yes"/>
      <point x="161" y="7"/>
      <point x="78" y="71"/>
      <point x="78" y="166" type="curve" smooth="yes"/>
      <point x="78" y="254"/>
      <point x="150" y="325"/>
      <point x="259" y="352" type="curve"/>
      <point x="243" y="363" type="line"/>
      <point x="132" y="338"/>
      <point x="58" y="260"/>
      <point x="58" y="164" type="curve" smooth="yes"/>
      <point x="58" y="60"/>
      <point x="147" y="-10"/>
    </contour>
  </outline>
</glyph>
<glyph name="equal" format="2">
  <advance width="723.0"/>
  <unicode hex="003D"/>
  <outline>
    <contour>
      <point x="144.0" y="442.0" type="line"/>
      <point x="579.0" y="442.0" type="line"/>
      <point x="579.0" y="459.0" type="line"/>
      <point x="144.0" y="459.0" type="line"/>
    </contour>
    <contour>
      <point x="144.0" y="202.0" type="line"/>
      <point x="579.0" y="202.0" type="line"/>
      <point x="579.0" y="219.0" type="line"/>
      <point x="144.0" y="219.0" type="line"/>
    </contour>
  </outline>
</glyph>
<glyph name="greater" format="2">
  <advance width="594.0"/>
  <unicode hex="003E"/>
  <outline>
    <contour>
      <point x="85.0" y="74.0" type="line"/>
      <point x="511.0" y="308.0" type="line"/>
      <point x="511.0" y="332.0" type="line"/>
      <point x="85.0" y="567.0" type="line"/>
      <point x="85.0" y="547.0" type="line"/>
      <point x="506.0" y="314.0" type="line"/>
      <point x="506.0" y="325.0" type="line"/>
      <point x="85.0" y="93.0" type="line"/>
    </contour>
  </outline>
</glyph>
<glyph name="question" format="2">
  <advance width="416.0"/>
  <unicode hex="003F"/>
  <outline>
    <contour>
      <point x="183.0" y="145.0" type="line"/>
      <point x="203.0" y="145.0" type="line"/>
      <point x="203.0" y="218.0" type="line" smooth="yes"/>
      <point x="203.0" y="377.0"/>
      <point x="376.0" y="413.0"/>
      <point x="376.0" y="549.0" type="curve" smooth="yes"/>
      <point x="376.0" y="635.0"/>
      <point x="306.0" y="704.0"/>
      <point x="203.0" y="704.0" type="curve" smooth="yes"/>
      <point x="144.0" y="704.0"/>
      <point x="78.0" y="681.0"/>
      <point x="29.0" y="644.0" type="curve"/>
      <point x="34.0" y="628.0" type="line"/>
      <point x="91.0" y="665.0"/>
      <point x="148.0" y="685.0"/>
      <point x="201.0" y="685.0" type="curve" smooth="yes"/>
      <point x="296.0" y="685.0"/>
      <point x="354.0" y="621.0"/>
      <point x="354.0" y="547.0" type="curve" smooth="yes"/>
      <point x="354.0" y="419.0"/>
      <point x="183.0" y="386.0"/>
      <point x="183.0" y="218.0" type="curve" smooth="yes"/>
    </contour>
    <contour>
      <point x="196.0" y="-10.0" type="curve" smooth="yes"/>
      <point x="210.0" y="-10.0"/>
      <point x="219.0" y="0.0"/>
      <point x="219.0" y="13.0" type="curve" smooth="yes"/>
      <point x="219.0" y="27.0"/>
      <point x="210.0" y="37.0"/>
      <point x="196.0" y="37.0" type="curve" smooth="yes"/>
      <point x="182.0" y="37.0"/>
      <point x="173.0" y="27.0"/>
      <point x="173.0" y="13.0" type="curve" smooth="yes"/>
      <point x="173.0" y="0.0"/>
      <point x="182.0" y="-10.0"/>
    </contour>
  </outline>
</glyph>
<glyph name="at" format="2">
  <advance width="1004.0"/>
  <unicode hex="0040"/>
  <outline>
    <contour>
      <point x="501.0" y="-148.0" type="curve" smooth="yes"/>
      <point x="569.0" y="-148.0"/>
      <point x="633.0" y="-135.0"/>
      <point x="675.0" y="-113.0" type="curve"/>
      <point x="670.0" y="-98.0" type="line"/>
      <point x="627.0" y="-122.0"/>
      <point x="563.0" y="-133.0"/>
      <point x="502.0" y="-133.0" type="curve" smooth="yes"/>
      <point x="273.0" y="-133.0"/>
      <point x="121.0" y="24.0"/>
      <point x="121.0" y="265.0" type="curve" smooth="yes"/>
      <point x="121.0" y="512.0"/>
      <point x="280.0" y="687.0"/>
      <point x="524.0" y="687.0" type="curve" smooth="yes"/>
      <point x="743.0" y="687.0"/>
      <point x="887.0" y="546.0"/>
      <point x="887.0" y="326.0" type="curve" smooth="yes"/>
      <point x="887.0" y="181.0"/>
      <point x="824.0" y="86.0"/>
      <point x="730.0" y="86.0" type="curve" smooth="yes"/>
      <point x="679.0" y="86.0"/>
      <point x="645.0" y="116.0"/>
      <point x="645.0" y="162.0" type="curve"/>
      <point x="626.0" y="162.0" type="line"/>
      <point x="626.0" y="106.0"/>
      <point x="666.0" y="69.0"/>
      <point x="729.0" y="69.0" type="curve" smooth="yes"/>
      <point x="835.0" y="69.0"/>
      <point x="907.0" y="172.0"/>
      <point x="907.0" y="329.0" type="curve" smooth="yes"/>
      <point x="907.0" y="558.0"/>
      <point x="755.0" y="704.0"/>
      <point x="525.0" y="704.0" type="curve" smooth="yes"/>
      <point x="269.0" y="704.0"/>
      <point x="101.0" y="522.0"/>
      <point x="101.0" y="265.0" type="curve" smooth="yes"/>
      <point x="101.0" y="14.0"/>
      <point x="260.0" y="-148.0"/>
    </contour>
    <contour>
      <point x="484.0" y="59.0" type="curve" smooth="yes"/>
      <point x="535.0" y="59.0"/>
      <point x="595.0" y="82.0"/>
      <point x="637.0" y="143.0" type="curve"/>
      <point x="630.0" y="150.0" type="line"/>
      <point x="576.0" y="89.0"/>
      <point x="524.0" y="76.0"/>
      <point x="487.0" y="76.0" type="curve" smooth="yes"/>
      <point x="408.0" y="76.0"/>
      <point x="353.0" y="141.0"/>
      <point x="353.0" y="253.0" type="curve" smooth="yes"/>
      <point x="353.0" y="381.0"/>
      <point x="425.0" y="473.0"/>
      <point x="520.0" y="473.0" type="curve" smooth="yes"/>
      <point x="582.0" y="473.0"/>
      <point x="622.0" y="434.0"/>
      <point x="648.0" y="375.0" type="curve"/>
      <point x="653.0" y="385.0" type="line"/>
      <point x="635.0" y="448.0"/>
      <point x="595.0" y="490.0"/>
      <point x="524.0" y="490.0" type="curve" smooth="yes"/>
      <point x="413.0" y="490.0"/>
      <point x="332.0" y="387.0"/>
      <point x="332.0" y="251.0" type="curve" smooth="yes"/>
      <point x="332.0" y="130.0"/>
      <point x="396.0" y="59.0"/>
    </contour>
    <contour>
      <point x="626.0" y="162.0" type="line"/>
      <point x="645.0" y="162.0" type="line"/>
      <point x="664.0" y="478.0" type="line"/>
      <point x="649.0" y="478.0" type="line"/>
      <point x="640.0" y="396.0" type="line"/>
    </contour>
  </outline>
</glyph>
<glyph name="A" format="2">
  <advance width="603"/>
  <unicode hex="0041"/>
  <note>
A
</note>
  <anchor x="314" y="0" name="bottom"/>
  <anchor x="576" y="10" name="ogonek"/>
  <anchor x="317" y="694" name="top"/>
  <outline>
    <contour>
      <point x="32" y="0" type="line"/>
      <point x="54" y="0" type="line"/>
      <point x="317" y="676" type="line"/>
      <point x="313" y="676" type="line"/>
      <point x="558" y="0" type="line"/>
      <point x="582" y="0" type="line"/>
      <point x="328" y="694" type="line"/>
      <point x="305" y="694" type="line"/>
    </contour>
    <contour>
      <point x="141" y="249" type="line"/>
      <point x="481" y="249" type="line"/>
      <point x="475" y="268" type="line"/>
      <point x="146" y="268" type="line"/>
    </contour>
  </outline>
</glyph>
<glyph name="B" format="2">
  <advance width="619.0"/>
  <unicode hex="0042"/>
  <note>
B
</note>
  <anchor x="267.0" y="0.0" name="bottom"/>
  <anchor x="267.0" y="694.0" name="top"/>
  <outline>
    <contour>
      <point x="110.0" y="0.0" type="line"/>
      <point x="319.0" y="0.0" type="line" smooth="yes"/>
      <point x="473.0" y="0.0"/>
      <point x="557.0" y="68.0"/>
      <point x="557.0" y="185.0" type="curve" smooth="yes"/>
      <point x="557.0" y="300.0"/>
      <point x="475.0" y="373.0"/>
      <point x="353.0" y="373.0" type="curve" smooth="yes"/>
      <point x="124.0" y="373.0" type="line"/>
      <point x="124.0" y="356.0" type="line"/>
      <point x="343.0" y="356.0" type="line" smooth="yes"/>
      <point x="462.0" y="356.0"/>
      <point x="535.0" y="288.0"/>
      <point x="535.0" y="181.0" type="curve" smooth="yes"/>
      <point x="535.0" y="75.0"/>
      <point x="464.0" y="18.0"/>
      <point x="330.0" y="18.0" type="curve" smooth="yes"/>
      <point x="130.0" y="18.0" type="line"/>
      <point x="130.0" y="676.0" type="line"/>
      <point x="286.0" y="676.0" type="line" smooth="yes"/>
      <point x="414.0" y="676.0"/>
      <point x="484.0" y="622.0"/>
      <point x="484.0" y="521.0" type="curve" smooth="yes"/>
      <point x="484.0" y="442.0"/>
      <point x="441.0" y="388.0"/>
      <point x="357.0" y="369.0" type="curve"/>
      <point x="383.0" y="365.0" type="line"/>
      <point x="457.0" y="379.0"/>
      <point x="506.0" y="444.0"/>
      <point x="506.0" y="528.0" type="curve" smooth="yes"/>
      <point x="506.0" y="635.0"/>
      <point x="427.0" y="694.0"/>
      <point x="286.0" y="694.0" type="curve" smooth="yes"/>
      <point x="110.0" y="694.0" type="line"/>
    </contour>
  </outline>
</glyph>
<glyph name="C" format="2">
  <advance width="643"/>
  <unicode hex="0043"/>
  <note>
C
</note>
  <anchor x="353" y="0" name="bottom"/>
  <anchor x="353" y="694" name="top"/>
  <outline>
    <contour>
      <point x="389" y="-10" type="curve" smooth="yes"/>
      <point x="455" y="-10"/>
      <point x="529" y="6"/>
      <point x="590" y="33" type="curve"/>
      <point x="585" y="49" type="line"/>
      <point x="525" y="24"/>
      <point x="453" y="9"/>
      <point x="393" y="9" type="curve" smooth="yes"/>
      <point x="210" y="9"/>
      <point x="86" y="145"/>
      <point x="86" y="348" type="curve" smooth="yes"/>
      <point x="86" y="549"/>
      <point x="213" y="683"/>
      <point x="403" y="683" type="curve" smooth="yes"/>
      <point x="463" y="683"/>
      <point x="526" y="670"/>
      <point x="584" y="645" type="curve"/>
      <point x="591" y="662" type="line"/>
      <point x="533" y="689"/>
      <point x="470" y="702"/>
      <point x="406" y="702" type="curve" smooth="yes"/>
      <point x="201" y="702"/>
      <point x="64" y="556"/>
      <point x="64" y="338" type="curve" smooth="yes"/>
      <point x="64" y="129"/>
      <point x="195" y="-10"/>
    </contour>
  </outline>
</glyph>
<glyph name="D" format="2">
  <advance width="679"/>
  <unicode hex="0044"/>
  <note>
D
</note>
  <anchor x="334" y="0" name="bottom"/>
  <anchor x="167" y="364" name="center"/>
  <anchor x="324" y="694" name="top"/>
  <outline>
    <contour>
      <point x="104" y="0" type="line"/>
      <point x="267" y="0" type="line" smooth="yes"/>
      <point x="485" y="0"/>
      <point x="615" y="131"/>
      <point x="615" y="353" type="curve" smooth="yes"/>
      <point x="615" y="573"/>
      <point x="494" y="694"/>
      <point x="273" y="694" type="curve" smooth="yes"/>
      <point x="104" y="694" type="line"/>
    </contour>
    <contour>
      <point x="126" y="18" type="line"/>
      <point x="126" y="676" type="line"/>
      <point x="267" y="676" type="line" smooth="yes"/>
      <point x="481" y="676"/>
      <point x="593" y="564"/>
      <point x="593" y="348" type="curve" smooth="yes"/>
      <point x="593" y="138"/>
      <point x="477" y="18"/>
      <point x="273" y="18" type="curve" smooth="yes"/>
    </contour>
  </outline>
</glyph>
<glyph name="E" format="2">
  <advance width="553.0"/>
  <unicode hex="0045"/>
  <note>
E
</note>
  <anchor x="304.0" y="0.0" name="bottom"/>
  <anchor x="498.0" y="10.0" name="ogonek"/>
  <anchor x="303.0" y="694.0" name="top"/>
  <anchor x="-7.0" y="694.0" name="topleft"/>
  <outline>
    <contour>
      <point x="110.0" y="0.0" type="line"/>
      <point x="131.0" y="0.0" type="line"/>
      <point x="131.0" y="694.0" type="line"/>
      <point x="110.0" y="694.0" type="line"/>
    </contour>
    <contour>
      <point x="119.0" y="0.0" type="line"/>
      <point x="504.0" y="0.0" type="line"/>
      <point x="504.0" y="18.0" type="line"/>
      <point x="119.0" y="18.0" type="line"/>
    </contour>
    <contour>
      <point x="119.0" y="355.0" type="line"/>
      <point x="477.0" y="355.0" type="line"/>
      <point x="477.0" y="373.0" type="line"/>
      <point x="119.0" y="373.0" type="line"/>
    </contour>
    <contour>
      <point x="119.0" y="676.0" type="line"/>
      <point x="504.0" y="676.0" type="line"/>
      <point x="504.0" y="694.0" type="line"/>
      <point x="119.0" y="694.0" type="line"/>
    </contour>
  </outline>
</glyph>
<glyph name="F" format="2">
  <advance width="533"/>
  <unicode hex="0046"/>
  <note>
F
</note>
  <anchor x="264" y="0" name="bottom"/>
  <anchor x="264" y="694" name="top"/>
  <outline>
    <contour>
      <point x="104" y="0" type="line"/>
      <point x="126" y="0" type="line"/>
      <point x="126" y="366" type="line"/>
      <point x="467" y="366" type="line"/>
      <point x="467" y="384" type="line"/>
      <point x="126" y="384" type="line"/>
      <point x="126" y="676" type="line"/>
      <point x="491" y="676" type="line"/>
      <point x="491" y="694" type="line"/>
      <point x="104" y="694" type="line"/>
    </contour>
  </outline>
</glyph>
<glyph name="G" format="2">
  <advance width="716.0"/>
  <unicode hex="0047"/>
  <note>
G
</note>
  <anchor x="351.0" y="0.0" name="bottom"/>
  <anchor x="369.0" y="694.0" name="top"/>
  <outline>
    <contour>
      <point x="397.0" y="-10.0" type="curve" smooth="yes"/>
      <point x="486.0" y="-10.0"/>
      <point x="583.0" y="19.0"/>
      <point x="640.0" y="60.0" type="curve"/>
      <point x="640.0" y="338.0" type="line"/>
      <point x="383.0" y="338.0" type="line"/>
      <point x="383.0" y="319.0" type="line"/>
      <point x="618.0" y="319.0" type="line"/>
      <point x="618.0" y="57.0" type="line"/>
      <point x="623.0" y="69.0" type="line"/>
      <point x="560.0" y="32.0"/>
      <point x="473.0" y="9.0"/>
      <point x="400.0" y="9.0" type="curve" smooth="yes"/>
      <point x="215.0" y="9.0"/>
      <point x="94.0" y="143.0"/>
      <point x="94.0" y="348.0" type="curve" smooth="yes"/>
      <point x="94.0" y="554.0"/>
      <point x="216.0" y="680.0"/>
      <point x="413.0" y="680.0" type="curve" smooth="yes"/>
      <point x="482.0" y="680.0"/>
      <point x="555.0" y="664.0"/>
      <point x="605.0" y="634.0" type="curve"/>
      <point x="612.0" y="651.0" type="line"/>
      <point x="558.0" y="683.0"/>
      <point x="489.0" y="699.0"/>
      <point x="416.0" y="699.0" type="curve" smooth="yes"/>
      <point x="203.0" y="699.0"/>
      <point x="71.0" y="564.0"/>
      <point x="71.0" y="345.0" type="curve" smooth="yes"/>
      <point x="71.0" y="130.0"/>
      <point x="200.0" y="-10.0"/>
    </contour>
  </outline>
</glyph>
<glyph name="H" format="2">
  <advance width="702"/>
  <unicode hex="0048"/>
  <note>
H
</note>
  <anchor x="353" y="0" name="bottom"/>
  <anchor x="353" y="534" name="center"/>
  <anchor x="353" y="694" name="top"/>
  <anchor x="2" y="694" name="topleft"/>
  <outline>
    <contour>
      <point x="570" y="0" type="line"/>
      <point x="592" y="0" type="line"/>
      <point x="592" y="694" type="line"/>
      <point x="570" y="694" type="line"/>
    </contour>
    <contour>
      <point x="110" y="0" type="line"/>
      <point x="132" y="0" type="line"/>
      <point x="132" y="694" type="line"/>
      <point x="110" y="694" type="line"/>
    </contour>
    <contour>
      <point x="125" y="352" type="line"/>
      <point x="576" y="352" type="line"/>
      <point x="576" y="371" type="line"/>
      <point x="125" y="371" type="line"/>
    </contour>
  </outline>
</glyph>
<glyph name="I" format="2">
  <advance width="241"/>
  <unicode hex="0049"/>
  <note>
I
</note>
  <anchor x="121" y="0" name="bottom"/>
  <anchor x="125" y="10" name="ogonek"/>
  <anchor x="121" y="694" name="top"/>
  <anchor x="-6" y="694" name="topleft"/>
  <outline>
    <contour>
      <point x="110" y="0" type="line"/>
      <point x="131" y="0" type="line"/>
      <point x="131" y="694" type="line"/>
      <point x="110" y="694" type="line"/>
    </contour>
  </outline>
</glyph>
<glyph name="J" format="2">
  <advance width="398"/>
  <unicode hex="004A"/>
  <note>
J
</note>
  <anchor x="257" y="0" name="bottom"/>
  <anchor x="282" y="694" name="top"/>
  <outline>
    <contour>
      <point x="146" y="-10" type="curve" smooth="yes"/>
      <point x="237" y="-10"/>
      <point x="293" y="54"/>
      <point x="293" y="158" type="curve" smooth="yes"/>
      <point x="293" y="694" type="line"/>
      <point x="272" y="694" type="line"/>
      <point x="272" y="154" type="line" smooth="yes"/>
      <point x="272" y="63"/>
      <point x="226" y="9"/>
      <point x="149" y="9" type="curve" smooth="yes"/>
      <point x="116" y="9"/>
      <point x="78" y="19"/>
      <point x="48" y="36" type="curve"/>
      <point x="40" y="19" type="line"/>
      <point x="69" y="1"/>
      <point x="108" y="-10"/>
    </contour>
  </outline>
</glyph>
<glyph name="K" format="2">
  <advance width="552.0"/>
  <unicode hex="004B"/>
  <note>
K
</note>
  <anchor x="283.0" y="0.0" name="bottom"/>
  <anchor x="283.0" y="694.0" name="top"/>
  <outline>
    <contour>
      <point x="497.0" y="0.0" type="line"/>
      <point x="527.0" y="0.0" type="line"/>
      <point x="151.0" y="366.0" type="line"/>
      <point x="151.0" y="356.0" type="line"/>
      <point x="513.0" y="694.0" type="line"/>
      <point x="484.0" y="694.0" type="line"/>
      <point x="132.0" y="360.0" type="line"/>
    </contour>
    <contour>
      <point x="110.0" y="0.0" type="line"/>
      <point x="130.0" y="0.0" type="line"/>
      <point x="130.0" y="694.0" type="line"/>
      <point x="110.0" y="694.0" type="line"/>
    </contour>
  </outline>
</glyph>
<glyph name="L" format="2">
  <advance width="499"/>
  <unicode hex="004C"/>
  <note>
L
</note>
  <anchor x="296" y="0" name="bottom"/>
  <anchor x="172" y="367" name="center"/>
  <anchor x="512" y="352" name="periodcentered"/>
  <anchor x="132" y="694" name="top"/>
  <anchor x="261" y="480" name="topright"/>
  <outline>
    <contour>
      <point x="120" y="0" type="line"/>
      <point x="466" y="0" type="line"/>
      <point x="466" y="19" type="line"/>
      <point x="141" y="19" type="line"/>
      <point x="141" y="694" type="line"/>
      <point x="120" y="694" type="line"/>
    </contour>
  </outline>
</glyph>
<glyph name="M" format="2">
  <advance width="855"/>
  <unicode hex="004D"/>
  <note>
M
</note>
  <anchor x="442" y="0" name="bottom"/>
  <anchor x="442" y="694" name="top"/>
  <outline>
    <contour>
      <point x="120" y="0" type="line"/>
      <point x="141" y="0" type="line"/>
      <point x="141" y="677" type="line"/>
      <point x="134" y="677" type="line"/>
      <point x="414" y="108" type="line"/>
      <point x="434" y="108" type="line"/>
      <point x="721" y="676" type="line"/>
      <point x="714" y="676" type="line"/>
      <point x="714" y="0" type="line"/>
      <point x="735" y="0" type="line"/>
      <point x="735" y="694" type="line"/>
      <point x="709" y="694" type="line"/>
      <point x="420" y="118" type="line"/>
      <point x="431" y="118" type="line"/>
      <point x="148" y="694" type="line"/>
      <point x="120" y="694" type="line"/>
    </contour>
  </outline>
</glyph>
<glyph name="N" format="2">
  <advance width="732.0"/>
  <unicode hex="004E"/>
  <note>
N
</note>
  <anchor x="377.0" y="0.0" name="bottom"/>
  <anchor x="377.0" y="694.0" name="top"/>
  <outline>
    <contour>
      <point x="110.0" y="0.0" type="line"/>
      <point x="130.0" y="0.0" type="line"/>
      <point x="130.0" y="674.0" type="line"/>
      <point x="129.0" y="674.0" type="line"/>
      <point x="595.0" y="0.0" type="line"/>
      <point x="622.0" y="0.0" type="line"/>
      <point x="622.0" y="694.0" type="line"/>
      <point x="602.0" y="694.0" type="line"/>
      <point x="602.0" y="20.0" type="line"/>
      <point x="605.0" y="20.0" type="line"/>
      <point x="139.0" y="694.0" type="line"/>
      <point x="110.0" y="694.0" type="line"/>
    </contour>
  </outline>
</glyph>
<glyph name="O" format="2">
  <advance width="751"/>
  <unicode hex="004F"/>
  <note>
O
</note>
  <anchor x="597" y="94" name="Qtail"/>
  <anchor x="377" y="0" name="bottom"/>
  <anchor x="378" y="345" name="center"/>
  <anchor x="458" y="10" name="ogonek"/>
  <anchor x="377" y="694" name="top"/>
  <anchor x="-4" y="694" name="topleft"/>
  <anchor x="652" y="694" name="topright"/>
  <outline>
    <contour>
      <point x="375" y="-10" type="curve" smooth="yes"/>
      <point x="558" y="-10"/>
      <point x="681" y="135"/>
      <point x="681" y="346" type="curve" smooth="yes"/>
      <point x="681" y="558"/>
      <point x="560" y="699"/>
      <point x="378" y="699" type="curve" smooth="yes"/>
      <point x="193" y="699"/>
      <point x="70" y="553"/>
      <point x="70" y="343" type="curve" smooth="yes"/>
      <point x="70" y="133"/>
      <point x="192" y="-10"/>
    </contour>
    <contour>
      <point x="377" y="9" type="curve" smooth="yes"/>
      <point x="206" y="9"/>
      <point x="92" y="147"/>
      <point x="92" y="346" type="curve" smooth="yes"/>
      <point x="92" y="545"/>
      <point x="205" y="680"/>
      <point x="375" y="680" type="curve" smooth="yes"/>
      <point x="545" y="680"/>
      <point x="659" y="542"/>
      <point x="659" y="343" type="curve" smooth="yes"/>
      <point x="659" y="143"/>
      <point x="547" y="9"/>
    </contour>
  </outline>
</glyph>
<glyph name="P" format="2">
  <advance width="556"/>
  <unicode hex="0050"/>
  <note>
P
</note>
  <anchor x="312" y="0" name="bottom"/>
  <anchor x="312" y="694" name="top"/>
  <outline>
    <contour>
      <point x="104" y="0" type="line"/>
      <point x="125" y="0" type="line"/>
      <point x="125" y="694" type="line"/>
      <point x="104" y="694" type="line"/>
    </contour>
    <contour>
      <point x="119" y="268" type="line"/>
      <point x="280" y="268" type="line" smooth="yes"/>
      <point x="416" y="268"/>
      <point x="506" y="353"/>
      <point x="506" y="480" type="curve" smooth="yes"/>
      <point x="506" y="608"/>
      <point x="418" y="694"/>
      <point x="286" y="694" type="curve" smooth="yes"/>
      <point x="119" y="694" type="line"/>
      <point x="119" y="676" type="line"/>
      <point x="280" y="676" type="line" smooth="yes"/>
      <point x="402" y="676"/>
      <point x="484" y="597"/>
      <point x="484" y="475" type="curve" smooth="yes"/>
      <point x="484" y="358"/>
      <point x="410" y="286"/>
      <point x="286" y="286" type="curve" smooth="yes"/>
      <point x="119" y="286" type="line"/>
    </contour>
  </outline>
</glyph>
<glyph name="Q" format="2">
  <advance width="770"/>
  <unicode hex="0051"/>
  <note>
Q
</note>
  <anchor x="376" y="0" name="bottom"/>
  <anchor x="376" y="694" name="top"/>
  <outline>
    <contour>
      <point x="375" y="-10" type="curve" smooth="yes"/>
      <point x="558" y="-10"/>
      <point x="681" y="135"/>
      <point x="681" y="346" type="curve" smooth="yes"/>
      <point x="681" y="558"/>
      <point x="560" y="699"/>
      <point x="378" y="699" type="curve" smooth="yes"/>
      <point x="193" y="699"/>
      <point x="70" y="553"/>
      <point x="70" y="343" type="curve" smooth="yes"/>
      <point x="70" y="133"/>
      <point x="192" y="-10"/>
    </contour>
    <contour>
      <point x="690" y="-13" type="line"/>
      <point x="703" y="1" type="line"/>
      <point x="413" y="287" type="line"/>
      <point x="402" y="274" type="line"/>
    </contour>
    <contour>
      <point x="377" y="9" type="curve" smooth="yes"/>
      <point x="206" y="9"/>
      <point x="92" y="147"/>
      <point x="92" y="346" type="curve" smooth="yes"/>
      <point x="92" y="545"/>
      <point x="205" y="680"/>
      <point x="375" y="680" type="curve" smooth="yes"/>
      <point x="545" y="680"/>
      <point x="659" y="542"/>
      <point x="659" y="343" type="curve" smooth="yes"/>
      <point x="659" y="143"/>
      <point x="547" y="9"/>
    </contour>
  </outline>
</glyph>
<glyph name="R" format="2">
  <advance width="606.0"/>
  <unicode hex="0052"/>
  <note>
R
</note>
  <anchor x="304.0" y="0.0" name="bottom"/>
  <anchor x="276.0" y="694.0" name="top"/>
  <outline>
    <contour>
      <point x="110.0" y="0.0" type="line"/>
      <point x="131.0" y="0.0" type="line"/>
      <point x="131.0" y="694.0" type="line"/>
      <point x="110.0" y="694.0" type="line"/>
    </contour>
    <contour>
      <point x="121.0" y="311.0" type="line"/>
      <point x="283.0" y="311.0" type="line" smooth="yes"/>
      <point x="433.0" y="311.0"/>
      <point x="515.0" y="381.0"/>
      <point x="515.0" y="506.0" type="curve" smooth="yes"/>
      <point x="515.0" y="628.0"/>
      <point x="433.0" y="694.0"/>
      <point x="288.0" y="694.0" type="curve" smooth="yes"/>
      <point x="121.0" y="694.0" type="line"/>
      <point x="121.0" y="676.0" type="line"/>
      <point x="283.0" y="676.0" type="line" smooth="yes"/>
      <point x="419.0" y="676.0"/>
      <point x="493.0" y="616.0"/>
      <point x="493.0" y="500.0" type="curve" smooth="yes"/>
      <point x="493.0" y="389.0"/>
      <point x="423.0" y="329.0"/>
      <point x="290.0" y="329.0" type="curve" smooth="yes"/>
      <point x="121.0" y="329.0" type="line"/>
    </contour>
    <contour>
      <point x="531.0" y="0.0" type="line"/>
      <point x="557.0" y="0.0" type="line"/>
      <point x="372.0" y="325.0" type="line"/>
      <point x="349.0" y="325.0" type="line"/>
    </contour>
  </outline>
</glyph>
<glyph name="S" format="2">
  <advance width="574"/>
  <unicode hex="0053"/>
  <note>
S
</note>
  <anchor x="280" y="0" name="bottom"/>
  <anchor x="285" y="694" name="top"/>
  <outline>
    <contour>
      <point x="280" y="-10" type="curve" smooth="yes"/>
      <point x="423" y="-10"/>
      <point x="513" y="66"/>
      <point x="513" y="177" type="curve" smooth="yes"/>
      <point x="513" y="416"/>
      <point x="94" y="307"/>
      <point x="94" y="531" type="curve" smooth="yes"/>
      <point x="94" y="627"/>
      <point x="170" y="683"/>
      <point x="300" y="683" type="curve" smooth="yes"/>
      <point x="360" y="683"/>
      <point x="421" y="671"/>
      <point x="474" y="645" type="curve"/>
      <point x="481" y="663" type="line"/>
      <point x="428" y="691"/>
      <point x="365" y="702"/>
      <point x="306" y="702" type="curve" smooth="yes"/>
      <point x="160" y="702"/>
      <point x="72" y="636"/>
      <point x="72" y="527" type="curve" smooth="yes"/>
      <point x="72" y="290"/>
      <point x="491" y="394"/>
      <point x="491" y="172" type="curve" smooth="yes"/>
      <point x="491" y="75"/>
      <point x="412" y="9"/>
      <point x="285" y="9" type="curve" smooth="yes"/>
      <point x="218" y="9"/>
      <point x="143" y="27"/>
      <point x="71" y="60" type="curve"/>
      <point x="64" y="41" type="line"/>
      <point x="133" y="8"/>
      <point x="211" y="-10"/>
    </contour>
  </outline>
</glyph>
<glyph name="T" format="2">
  <advance width="511"/>
  <unicode hex="0054"/>
  <note>
T
</note>
  <anchor x="253" y="0" name="bottom"/>
  <anchor x="256" y="357" name="center"/>
  <anchor x="256" y="694" name="top"/>
  <outline>
    <contour>
      <point x="245" y="0" type="line"/>
      <point x="266" y="0" type="line"/>
      <point x="266" y="694" type="line"/>
      <point x="245" y="694" type="line"/>
    </contour>
    <contour>
      <point x="0" y="676" type="line"/>
      <point x="511" y="676" type="line"/>
      <point x="511" y="694" type="line"/>
      <point x="0" y="694" type="line"/>
    </contour>
  </outline>
</glyph>
<glyph name="U" format="2">
  <advance width="683"/>
  <unicode hex="0055"/>
  <note>
U
</note>
  <anchor x="343" y="0" name="bottom"/>
  <anchor x="425" y="10" name="ogonek"/>
  <anchor x="343" y="694" name="top"/>
  <anchor x="640" y="694" name="topright"/>
  <outline>
    <contour>
      <point x="342" y="-10" type="curve" smooth="yes"/>
      <point x="491" y="-10"/>
      <point x="579" y="85"/>
      <point x="579" y="246" type="curve" smooth="yes"/>
      <point x="579" y="694" type="line"/>
      <point x="558" y="694" type="line"/>
      <point x="558" y="246" type="line" smooth="yes"/>
      <point x="558" y="97"/>
      <point x="479" y="9"/>
      <point x="345" y="9" type="curve" smooth="yes"/>
      <point x="207" y="9"/>
      <point x="126" y="97"/>
      <point x="126" y="246" type="curve" smooth="yes"/>
      <point x="126" y="694" type="line"/>
      <point x="104" y="694" type="line"/>
      <point x="104" y="246" type="line" smooth="yes"/>
      <point x="104" y="85"/>
      <point x="192" y="-10"/>
    </contour>
  </outline>
</glyph>
<glyph name="V" format="2">
  <advance width="568"/>
  <unicode hex="0056"/>
  <note>
V
</note>
  <anchor x="285" y="0" name="bottom"/>
  <anchor x="285" y="694" name="top"/>
  <outline>
    <contour>
      <point x="280" y="0" type="line"/>
      <point x="290" y="0" type="line"/>
      <point x="550" y="694" type="line"/>
      <point x="529" y="694" type="line"/>
      <point x="282" y="30" type="line"/>
      <point x="291" y="30" type="line"/>
      <point x="41" y="694" type="line"/>
      <point x="18" y="694" type="line"/>
    </contour>
  </outline>
</glyph>
<glyph name="W" format="2">
  <advance width="961"/>
  <unicode hex="0057"/>
  <note>
W
</note>
  <anchor x="480" y="0" name="bottom"/>
  <anchor x="480" y="694" name="top"/>
  <outline>
    <contour>
      <point x="240" y="0" type="line"/>
      <point x="252" y="0" type="line"/>
      <point x="488" y="666" type="line"/>
      <point x="474" y="666" type="line"/>
      <point x="712" y="0" type="line"/>
      <point x="725" y="0" type="line"/>
      <point x="932" y="694" type="line"/>
      <point x="911" y="694" type="line"/>
      <point x="715" y="32" type="line"/>
      <point x="723" y="32" type="line"/>
      <point x="488" y="688" type="line"/>
      <point x="475" y="688" type="line"/>
      <point x="243" y="32" type="line"/>
      <point x="251" y="32" type="line"/>
      <point x="52" y="694" type="line"/>
      <point x="29" y="694" type="line"/>
    </contour>
  </outline>
</glyph>
<glyph name="X" format="2">
  <advance width="560"/>
  <unicode hex="0058"/>
  <note>
X
</note>
  <anchor x="283" y="0" name="bottom"/>
  <anchor x="283" y="694" name="top"/>
  <outline>
    <contour>
      <point x="517" y="0" type="line"/>
      <point x="544" y="0" type="line"/>
      <point x="274" y="385" type="line"/>
      <point x="72" y="694" type="line"/>
      <point x="45" y="694" type="line"/>
      <point x="261" y="369" type="line"/>
    </contour>
    <contour>
      <point x="16" y="0" type="line"/>
      <point x="40" y="0" type="line"/>
      <point x="279" y="351" type="line"/>
      <point x="268" y="367" type="line"/>
    </contour>
    <contour>
      <point x="287" y="358" type="line"/>
      <point x="524" y="694" type="line"/>
      <point x="500" y="694" type="line"/>
      <point x="276" y="375" type="line"/>
    </contour>
  </outline>
</glyph>
<glyph name="Y" format="2">
  <advance width="544"/>
  <unicode hex="0059"/>
  <note>
Y
</note>
  <anchor x="277" y="0" name="bottom"/>
  <anchor x="277" y="694" name="top"/>
  <anchor x="5" y="694" name="topleft"/>
  <outline>
    <contour>
      <point x="262" y="0" type="line"/>
      <point x="283" y="0" type="line"/>
      <point x="283" y="333" type="line"/>
      <point x="520" y="694" type="line"/>
      <point x="497" y="694" type="line"/>
      <point x="270" y="344" type="line"/>
      <point x="278" y="344" type="line"/>
      <point x="50" y="694" type="line"/>
      <point x="24" y="694" type="line"/>
      <point x="262" y="333" type="line"/>
    </contour>
  </outline>
</glyph>
<glyph name="Z" format="2">
  <advance width="588"/>
  <unicode hex="005A"/>
  <note>
Z
</note>
  <anchor x="284" y="0" name="bottom"/>
  <anchor x="284" y="694" name="top"/>
  <outline>
    <contour>
      <point x="30" y="0" type="line"/>
      <point x="558" y="0" type="line"/>
      <point x="558" y="18" type="line"/>
      <point x="52" y="18" type="line"/>
      <point x="52" y="12" type="line"/>
      <point x="541" y="677" type="line"/>
      <point x="541" y="694" type="line"/>
      <point x="48" y="694" type="line"/>
      <point x="48" y="676" type="line"/>
      <point x="519" y="676" type="line"/>
      <point x="519" y="682" type="line"/>
      <point x="30" y="16" type="line"/>
    </contour>
  </outline>
</glyph>
<glyph name="bracketleft" format="2">
  <advance width="328"/>
  <unicode hex="005B"/>
  <outline>
    <contour>
      <point x="105" y="-180" type="line"/>
      <point x="290" y="-180" type="line"/>
      <point x="290" y="-163" type="line"/>
      <point x="125" y="-163" type="line"/>
      <point x="125" y="722" type="line"/>
      <point x="290" y="722" type="line"/>
      <point x="290" y="739" type="line"/>
      <point x="105" y="739" type="line"/>
    </contour>
  </outline>
</glyph>
<glyph name="asciicircum" format="2">
  <advance width="580"/>
  <unicode hex="005E"/>
  <outline>
    <contour>
      <point x="94" y="313" type="line"/>
      <point x="293" y="696" type="line"/>
      <point x="284" y="696" type="line"/>
      <point x="484" y="314" type="line"/>
      <point x="500" y="322" type="line"/>
      <point x="303" y="701" type="line"/>
      <point x="275" y="701" type="line"/>
      <point x="80" y="321" type="line"/>
    </contour>
  </outline>
</glyph>
<glyph name="underscore" format="2">
  <advance width="620.0"/>
  <unicode hex="005F"/>
  <outline>
    <contour>
      <point x="96.0" y="-17.0" type="line"/>
      <point x="524.0" y="-17.0" type="line"/>
      <point x="524.0" y="0.0" type="line"/>
      <point x="96.0" y="0.0" type="line"/>
    </contour>
  </outline>
</glyph>
<glyph name="a" format="2">
  <advance width="487"/>
  <unicode hex="0061"/>
  <note>
a
</note>
  <anchor x="242" y="0" name="bottom"/>
  <anchor x="389" y="10" name="ogonek"/>
  <anchor x="223" y="480" name="top"/>
  <outline>
    <contour>
      <point x="378" y="0" type="line"/>
      <point x="395" y="0" type="line"/>
      <point x="395" y="327" type="line" smooth="yes"/>
      <point x="395" y="428"/>
      <point x="336" y="486"/>
      <point x="238" y="486" type="curve" smooth="yes"/>
      <point x="186" y="486"/>
      <point x="126" y="470"/>
      <point x="74" y="444" type="curve"/>
      <point x="79" y="430" type="line"/>
      <point x="126" y="453"/>
      <point x="182" y="468"/>
      <point x="232" y="468" type="curve" smooth="yes"/>
      <point x="323" y="468"/>
      <point x="374" y="419"/>
      <point x="374" y="323" type="curve" smooth="yes"/>
      <point x="374" y="71" type="line"/>
    </contour>
    <contour>
      <point x="207" y="-10" type="curve" smooth="yes"/>
      <point x="274" y="-10"/>
      <point x="334" y="17"/>
      <point x="382" y="68" type="curve"/>
      <point x="382" y="86" type="line"/>
      <point x="325" y="32"/>
      <point x="273" y="8"/>
      <point x="213" y="8" type="curve" smooth="yes"/>
      <point x="131" y="8"/>
      <point x="77" y="53"/>
      <point x="77" y="121" type="curve" smooth="yes"/>
      <point x="77" y="209"/>
      <point x="169" y="247"/>
      <point x="382" y="247" type="curve"/>
      <point x="382" y="263" type="line"/>
      <point x="159" y="263"/>
      <point x="56" y="217"/>
      <point x="56" y="117" type="curve" smooth="yes"/>
      <point x="56" y="41"/>
      <point x="115" y="-10"/>
    </contour>
  </outline>
</glyph>
<glyph name="b" format="2">
  <advance width="553"/>
  <unicode hex="0062"/>
  <note>
b
</note>
  <anchor x="272" y="0" name="bottom"/>
  <anchor x="272" y="480" name="top"/>
  <outline>
    <contour>
      <point x="279" y="-10" type="curve" smooth="yes"/>
      <point x="404" y="-10"/>
      <point x="489" y="90"/>
      <point x="489" y="240" type="curve" smooth="yes"/>
      <point x="489" y="389"/>
      <point x="405" y="486"/>
      <point x="281" y="486" type="curve" smooth="yes"/>
      <point x="198" y="486"/>
      <point x="138" y="444"/>
      <point x="105" y="375" type="curve"/>
      <point x="109" y="355" type="line"/>
      <point x="139" y="425"/>
      <point x="197" y="468"/>
      <point x="276" y="468" type="curve" smooth="yes"/>
      <point x="392" y="468"/>
      <point x="468" y="378"/>
      <point x="468" y="237" type="curve" smooth="yes"/>
      <point x="468" y="97"/>
      <point x="393" y="8"/>
      <point x="281" y="8" type="curve" smooth="yes"/>
      <point x="201" y="8"/>
      <point x="140" y="53"/>
      <point x="110" y="126" type="curve"/>
      <point x="107" y="96" type="line"/>
      <point x="140" y="29"/>
      <point x="199" y="-10"/>
    </contour>
    <contour>
      <point x="100" y="0" type="line"/>
      <point x="116" y="0" type="line"/>
      <point x="119" y="64" type="line"/>
      <point x="119" y="739" type="line"/>
      <point x="100" y="739" type="line"/>
    </contour>
  </outline>
</glyph>
<glyph name="c" format="2">
  <advance width="460"/>
  <unicode hex="0063"/>
  <note>
c
</note>
  <anchor x="225" y="0" name="bottom"/>
  <anchor x="240" y="480" name="top"/>
  <outline>
    <contour>
      <point x="268" y="-10" type="curve" smooth="yes"/>
      <point x="316" y="-10"/>
      <point x="366" y="4"/>
      <point x="407" y="28" type="curve"/>
      <point x="402" y="42" type="line"/>
      <point x="358" y="18"/>
      <point x="313" y="6"/>
      <point x="272" y="6" type="curve" smooth="yes"/>
      <point x="159" y="6"/>
      <point x="85" y="98"/>
      <point x="85" y="241" type="curve" smooth="yes"/>
      <point x="85" y="384"/>
      <point x="158" y="468"/>
      <point x="280" y="468" type="curve" smooth="yes"/>
      <point x="324" y="468"/>
      <point x="364" y="457"/>
      <point x="402" y="436" type="curve"/>
      <point x="409" y="452" type="line"/>
      <point x="368" y="475"/>
      <point x="327" y="486"/>
      <point x="282" y="486" type="curve" smooth="yes"/>
      <point x="147" y="486"/>
      <point x="64" y="391"/>
      <point x="64" y="236" type="curve" smooth="yes"/>
      <point x="64" y="85"/>
      <point x="143" y="-10"/>
    </contour>
  </outline>
</glyph>
<glyph name="d" format="2">
  <advance width="553"/>
  <unicode hex="0064"/>
  <note>
d
</note>
  <anchor x="282" y="0" name="bottom"/>
  <anchor x="398" y="592" name="center"/>
  <anchor x="282" y="480" name="top"/>
  <anchor x="555" y="480" name="topright"/>
  <outline>
    <contour>
      <point x="275" y="-10" type="curve" smooth="yes"/>
      <point x="346" y="-10"/>
      <point x="403" y="23"/>
      <point x="439" y="85" type="curve"/>
      <point x="436" y="106" type="line"/>
      <point x="404" y="44"/>
      <point x="348" y="8"/>
      <point x="277" y="8" type="curve" smooth="yes"/>
      <point x="160" y="8"/>
      <point x="85" y="101"/>
      <point x="85" y="239" type="curve" smooth="yes"/>
      <point x="85" y="374"/>
      <point x="157" y="468"/>
      <point x="272" y="468" type="curve" smooth="yes"/>
      <point x="346" y="468"/>
      <point x="404" y="431"/>
      <point x="436" y="367" type="curve"/>
      <point x="440" y="396" type="line"/>
      <point x="406" y="454"/>
      <point x="350" y="486"/>
      <point x="277" y="486" type="curve" smooth="yes"/>
      <point x="149" y="486"/>
      <point x="64" y="386"/>
      <point x="64" y="237" type="curve" smooth="yes"/>
      <point x="64" y="89"/>
      <point x="148" y="-10"/>
    </contour>
    <contour>
      <point x="437" y="0" type="line"/>
      <point x="453" y="0" type="line"/>
      <point x="453" y="739" type="line"/>
      <point x="434" y="739" type="line"/>
      <point x="434" y="64" type="line"/>
    </contour>
  </outline>
</glyph>
<glyph name="e" format="2">
  <advance width="517"/>
  <unicode hex="0065"/>
  <note>
e
</note>
  <anchor x="256" y="0" name="bottom"/>
  <anchor x="402" y="10" name="ogonek"/>
  <anchor x="260" y="480" name="top"/>
  <outline>
    <contour>
      <point x="289" y="-10" type="curve" smooth="yes"/>
      <point x="341" y="-10"/>
      <point x="390" y="3"/>
      <point x="430" y="30" type="curve"/>
      <point x="425" y="44" type="line"/>
      <point x="382" y="19"/>
      <point x="337" y="7"/>
      <point x="291" y="7" type="curve" smooth="yes"/>
      <point x="164" y="7"/>
      <point x="85" y="97"/>
      <point x="85" y="242" type="curve" smooth="yes"/>
      <point x="85" y="382"/>
      <point x="153" y="468"/>
      <point x="263" y="468" type="curve" smooth="yes"/>
      <point x="367" y="468"/>
      <point x="432" y="388"/>
      <point x="432" y="261" type="curve"/>
      <point x="74" y="261" type="line"/>
      <point x="74" y="244" type="line"/>
      <point x="452" y="244" type="line"/>
      <point x="453" y="251"/>
      <point x="453" y="256"/>
      <point x="453" y="264" type="curve" smooth="yes"/>
      <point x="453" y="396"/>
      <point x="377" y="486"/>
      <point x="265" y="486" type="curve" smooth="yes"/>
      <point x="144" y="486"/>
      <point x="64" y="387"/>
      <point x="64" y="239" type="curve" smooth="yes"/>
      <point x="64" y="87"/>
      <point x="152" y="-10"/>
    </contour>
  </outline>
</glyph>
<glyph name="f" format="2">
  <advance width="295.0"/>
  <unicode hex="0066"/>
  <note>
f
</note>
  <anchor x="106.0" y="0.0" name="bottom"/>
  <anchor x="213.0" y="739.0" name="top"/>
  <outline>
    <contour>
      <point x="96.0" y="0.0" type="line"/>
      <point x="116.0" y="0.0" type="line"/>
      <point x="116.0" y="636.0" type="line" smooth="yes"/>
      <point x="116.0" y="694.0"/>
      <point x="156.0" y="731.0"/>
      <point x="217.0" y="731.0" type="curve" smooth="yes"/>
      <point x="244.0" y="731.0"/>
      <point x="274.0" y="724.0"/>
      <point x="297.0" y="712.0" type="curve"/>
      <point x="303.0" y="726.0" type="line"/>
      <point x="276.0" y="741.0"/>
      <point x="248.0" y="749.0"/>
      <point x="220.0" y="749.0" type="curve" smooth="yes"/>
      <point x="146.0" y="749.0"/>
      <point x="96.0" y="702.0"/>
      <point x="96.0" y="631.0" type="curve" smooth="yes"/>
    </contour>
    <contour>
      <point x="22.0" y="463.0" type="line"/>
      <point x="275.0" y="463.0" type="line"/>
      <point x="275.0" y="480.0" type="line"/>
      <point x="22.0" y="480.0" type="line"/>
    </contour>
  </outline>
</glyph>
<glyph name="g" format="2">
  <advance width="537.0"/>
  <unicode hex="0067"/>
  <note>
g
</note>
  <anchor x="268.0" y="0.0" name="bottom"/>
  <anchor x="258.0" y="480.0" name="top"/>
  <outline>
    <contour>
      <point x="262.0" y="-227.0" type="curve" smooth="yes"/>
      <point x="379.0" y="-227.0"/>
      <point x="449.0" y="-154.0"/>
      <point x="449.0" y="-32.0" type="curve" smooth="yes"/>
      <point x="449.0" y="482.0" type="line"/>
      <point x="433.0" y="482.0" type="line"/>
      <point x="428.0" y="408.0" type="line"/>
      <point x="428.0" y="-32.0" type="line" smooth="yes"/>
      <point x="428.0" y="-145.0"/>
      <point x="369.0" y="-209.0"/>
      <point x="264.0" y="-209.0" type="curve" smooth="yes"/>
      <point x="219.0" y="-209.0"/>
      <point x="175.0" y="-197.0"/>
      <point x="121.0" y="-170.0" type="curve"/>
      <point x="115.0" y="-187.0" type="line"/>
      <point x="167.0" y="-214.0"/>
      <point x="213.0" y="-227.0"/>
    </contour>
    <contour>
      <point x="268.0" y="-10.0" type="curve" smooth="yes"/>
      <point x="339.0" y="-10.0"/>
      <point x="396.0" y="23.0"/>
      <point x="432.0" y="85.0" type="curve"/>
      <point x="429.0" y="106.0" type="line"/>
      <point x="397.0" y="44.0"/>
      <point x="341.0" y="8.0"/>
      <point x="270.0" y="8.0" type="curve" smooth="yes"/>
      <point x="153.0" y="8.0"/>
      <point x="78.0" y="101.0"/>
      <point x="78.0" y="239.0" type="curve" smooth="yes"/>
      <point x="78.0" y="374.0"/>
      <point x="150.0" y="468.0"/>
      <point x="265.0" y="468.0" type="curve" smooth="yes"/>
      <point x="339.0" y="468.0"/>
      <point x="397.0" y="431.0"/>
      <point x="429.0" y="367.0" type="curve"/>
      <point x="433.0" y="396.0" type="line"/>
      <point x="399.0" y="454.0"/>
      <point x="343.0" y="486.0"/>
      <point x="270.0" y="486.0" type="curve" smooth="yes"/>
      <point x="142.0" y="486.0"/>
      <point x="57.0" y="386.0"/>
      <point x="57.0" y="237.0" type="curve" smooth="yes"/>
      <point x="57.0" y="89.0"/>
      <point x="141.0" y="-10.0"/>
    </contour>
  </outline>
</glyph>
<glyph name="h" format="2">
  <advance width="525.0"/>
  <unicode hex="0068"/>
  <note>
h
</note>
  <anchor x="266.0" y="0.0" name="bottom"/>
  <anchor x="143.0" y="592.0" name="center"/>
  <anchor x="286.0" y="739.0" name="top"/>
  <outline>
    <contour>
      <point x="88.0" y="0.0" type="line"/>
      <point x="108.0" y="0.0" type="line"/>
      <point x="108.0" y="739.0" type="line"/>
      <point x="88.0" y="739.0" type="line"/>
    </contour>
    <contour>
      <point x="425.0" y="0.0" type="line"/>
      <point x="446.0" y="0.0" type="line"/>
      <point x="446.0" y="314.0" type="line" smooth="yes"/>
      <point x="446.0" y="421.0"/>
      <point x="385.0" y="486.0"/>
      <point x="283.0" y="486.0" type="curve" smooth="yes"/>
      <point x="210.0" y="486.0"/>
      <point x="140.0" y="452.0"/>
      <point x="93.0" y="394.0" type="curve"/>
      <point x="102.0" y="383.0" type="line"/>
      <point x="145.0" y="436.0"/>
      <point x="211.0" y="468.0"/>
      <point x="279.0" y="468.0" type="curve" smooth="yes"/>
      <point x="371.0" y="468.0"/>
      <point x="425.0" y="411.0"/>
      <point x="425.0" y="314.0" type="curve" smooth="yes"/>
    </contour>
  </outline>
</glyph>
<glyph name="k" format="2">
	<unicode hex="006B"/>
	<advance width="432"/>
	<outline>
		<contour>
			<point x="88" y="0" type="line"/>
			<point x="108" y="0" type="line"/>
			<point x="108" y="739" type="line"/>
			<point x="88" y="739" type="line"/>
		</contour>
		<contour>
			<point x="396" y="0" type="line"/>
			<point x="425" y="0" type="line"/>
			<point x="129" y="267" type="line"/>
			<point x="127" y="249" type="line"/>
			<point x="403" y="480" type="line"/>
			<point x="376" y="480" type="line"/>
			<point x="110" y="257" type="line"/>
		</contour>
	</outline>
	<anchor name="bottom" x="205" y="0"/>
	<anchor name="top" x="185" y="739"/>
	<note>
		k
	</note>
</glyph>
<glyph name="l" format="2">
  <advance width="234"/>
  <unicode hex="006C"/>
  <note>
l
</note>
  <anchor x="138" y="0" name="bottom"/>
  <anchor x="121" y="383" name="center"/>
  <anchor x="230" y="353" name="periodcentered"/>
  <anchor x="99" y="739" name="top"/>
  <anchor x="211" y="480" name="topright"/>
  <outline>
    <contour>
      <point x="165" y="-2" type="curve" smooth="yes"/>
      <point x="182" y="-2"/>
      <point x="200" y="2"/>
      <point x="214" y="8" type="curve"/>
      <point x="209" y="22" type="line"/>
      <point x="198" y="17"/>
      <point x="183" y="14"/>
      <point x="170" y="14" type="curve" smooth="yes"/>
      <point x="131" y="14"/>
      <point x="108" y="43"/>
      <point x="108" y="87" type="curve" smooth="yes"/>
      <point x="108" y="739" type="line"/>
      <point x="88" y="739" type="line"/>
      <point x="88" y="83" type="line" smooth="yes"/>
      <point x="88" y="31"/>
      <point x="117" y="-2"/>
    </contour>
  </outline>
</glyph>
<glyph name="m" format="2">
  <advance width="867"/>
  <unicode hex="006D"/>
  <note>
m
</note>
  <anchor x="445" y="0" name="bottom"/>
  <anchor x="445" y="480" name="top"/>
  <outline>
    <contour>
      <point x="754" y="0" type="line"/>
      <point x="775" y="0" type="line"/>
      <point x="775" y="314" type="line" smooth="yes"/>
      <point x="775" y="424"/>
      <point x="714" y="486"/>
      <point x="615" y="486" type="curve" smooth="yes"/>
      <point x="545" y="486"/>
      <point x="477" y="454"/>
      <point x="429" y="399" type="curve"/>
      <point x="435" y="386" type="line"/>
      <point x="481" y="437"/>
      <point x="546" y="468"/>
      <point x="611" y="468" type="curve" smooth="yes"/>
      <point x="700" y="468"/>
      <point x="754" y="411"/>
      <point x="754" y="314" type="curve" smooth="yes"/>
    </contour>
    <contour>
      <point x="100" y="0" type="line"/>
      <point x="121" y="0" type="line"/>
      <point x="121" y="404" type="line"/>
      <point x="117" y="480" type="line"/>
      <point x="100" y="480" type="line"/>
    </contour>
    <contour>
      <point x="427" y="0" type="line"/>
      <point x="448" y="0" type="line"/>
      <point x="448" y="314" type="line" smooth="yes"/>
      <point x="448" y="424"/>
      <point x="387" y="486"/>
      <point x="289" y="486" type="curve" smooth="yes"/>
      <point x="219" y="486"/>
      <point x="151" y="456"/>
      <point x="104" y="404" type="curve"/>
      <point x="112" y="393" type="line"/>
      <point x="157" y="440"/>
      <point x="221" y="468"/>
      <point x="285" y="468" type="curve" smooth="yes"/>
      <point x="373" y="468"/>
      <point x="427" y="411"/>
      <point x="427" y="314" type="curve" smooth="yes"/>
    </contour>
  </outline>
</glyph>
<glyph name="n" format="2">
  <advance width="525.0"/>
  <unicode hex="006E"/>
  <note>
n
</note>
  <anchor x="266.0" y="0.0" name="bottom"/>
  <anchor x="262.0" y="480.0" name="top"/>
  <outline>
    <contour>
      <point x="88.0" y="0.0" type="line"/>
      <point x="109.0" y="0.0" type="line"/>
      <point x="109.0" y="399.0" type="line"/>
      <point x="105.0" y="480.0" type="line"/>
      <point x="88.0" y="480.0" type="line"/>
    </contour>
    <contour>
      <point x="425.0" y="0.0" type="line"/>
      <point x="446.0" y="0.0" type="line"/>
      <point x="446.0" y="314.0" type="line" smooth="yes"/>
      <point x="446.0" y="421.0"/>
      <point x="386.0" y="486.0"/>
      <point x="280.0" y="486.0" type="curve" smooth="yes"/>
      <point x="204.0" y="486.0"/>
      <point x="134.0" y="454.0"/>
      <point x="93.0" y="399.0" type="curve"/>
      <point x="102.0" y="388.0" type="line"/>
      <point x="136.0" y="436.0"/>
      <point x="206.0" y="468.0"/>
      <point x="277.0" y="468.0" type="curve" smooth="yes"/>
      <point x="372.0" y="468.0"/>
      <point x="425.0" y="411.0"/>
      <point x="425.0" y="314.0" type="curve" smooth="yes"/>
    </contour>
  </outline>
</glyph>
<glyph name="o" format="2">
  <advance width="535"/>
  <unicode hex="006F"/>
  <note>
o
</note>
  <anchor x="269" y="0" name="bottom"/>
  <anchor x="269" y="240" name="center"/>
  <anchor x="353" y="10" name="ogonek"/>
  <anchor x="259" y="480" name="top"/>
  <anchor x="494" y="480" name="topright"/>
  <outline>
    <contour>
      <point x="268" y="-10" type="curve" smooth="yes"/>
      <point x="393" y="-10"/>
      <point x="478" y="90"/>
      <point x="478" y="240" type="curve" smooth="yes"/>
      <point x="478" y="389"/>
      <point x="394" y="486"/>
      <point x="270" y="486" type="curve" smooth="yes"/>
      <point x="142" y="486"/>
      <point x="57" y="386"/>
      <point x="57" y="237" type="curve" smooth="yes"/>
      <point x="57" y="89"/>
      <point x="141" y="-10"/>
    </contour>
    <contour>
      <point x="270" y="8" type="curve" smooth="yes"/>
      <point x="153" y="8"/>
      <point x="78" y="101"/>
      <point x="78" y="239" type="curve" smooth="yes"/>
      <point x="78" y="374"/>
      <point x="150" y="468"/>
      <point x="265" y="468" type="curve" smooth="yes"/>
      <point x="381" y="468"/>
      <point x="457" y="378"/>
      <point x="457" y="237" type="curve" smooth="yes"/>
      <point x="457" y="97"/>
      <point x="382" y="8"/>
    </contour>
  </outline>
</glyph>
<glyph name="p" format="2">
  <advance width="535.0"/>
  <unicode hex="0070"/>
  <note>
p
</note>
  <anchor x="259.0" y="0.0" name="bottom"/>
  <anchor x="259.0" y="480.0" name="top"/>
  <outline>
    <contour>
      <point x="88.0" y="-217.0" type="line"/>
      <point x="108.0" y="-217.0" type="line"/>
      <point x="108.0" y="406.0" type="line"/>
      <point x="103.0" y="480.0" type="line"/>
      <point x="88.0" y="480.0" type="line"/>
    </contour>
    <contour>
      <point x="268.0" y="-10.0" type="curve" smooth="yes"/>
      <point x="393.0" y="-10.0"/>
      <point x="478.0" y="90.0"/>
      <point x="478.0" y="240.0" type="curve" smooth="yes"/>
      <point x="478.0" y="389.0"/>
      <point x="394.0" y="486.0"/>
      <point x="270.0" y="486.0" type="curve" smooth="yes"/>
      <point x="187.0" y="486.0"/>
      <point x="127.0" y="444.0"/>
      <point x="94.0" y="375.0" type="curve"/>
      <point x="98.0" y="355.0" type="line"/>
      <point x="128.0" y="425.0"/>
      <point x="186.0" y="468.0"/>
      <point x="265.0" y="468.0" type="curve" smooth="yes"/>
      <point x="381.0" y="468.0"/>
      <point x="457.0" y="378.0"/>
      <point x="457.0" y="237.0" type="curve" smooth="yes"/>
      <point x="457.0" y="97.0"/>
      <point x="382.0" y="8.0"/>
      <point x="270.0" y="8.0" type="curve" smooth="yes"/>
      <point x="190.0" y="8.0"/>
      <point x="129.0" y="53.0"/>
      <point x="99.0" y="126.0" type="curve"/>
      <point x="96.0" y="96.0" type="line"/>
      <point x="129.0" y="29.0"/>
      <point x="188.0" y="-10.0"/>
    </contour>
  </outline>
</glyph>
<glyph name="q" format="2">
  <advance width="536.0"/>
  <unicode hex="0071"/>
  <note>
q
</note>
  <anchor x="278.0" y="0.0" name="bottom"/>
  <anchor x="278.0" y="480.0" name="top"/>
  <outline>
    <contour>
      <point x="428.0" y="-217.0" type="line"/>
      <point x="448.0" y="-217.0" type="line"/>
      <point x="448.0" y="480.0" type="line"/>
      <point x="433.0" y="480.0" type="line"/>
      <point x="428.0" y="406.0" type="line"/>
    </contour>
    <contour>
      <point x="268.0" y="-10.0" type="curve" smooth="yes"/>
      <point x="339.0" y="-10.0"/>
      <point x="396.0" y="23.0"/>
      <point x="432.0" y="85.0" type="curve"/>
      <point x="429.0" y="106.0" type="line"/>
      <point x="397.0" y="44.0"/>
      <point x="341.0" y="8.0"/>
      <point x="270.0" y="8.0" type="curve" smooth="yes"/>
      <point x="153.0" y="8.0"/>
      <point x="78.0" y="101.0"/>
      <point x="78.0" y="239.0" type="curve" smooth="yes"/>
      <point x="78.0" y="374.0"/>
      <point x="150.0" y="468.0"/>
      <point x="265.0" y="468.0" type="curve" smooth="yes"/>
      <point x="339.0" y="468.0"/>
      <point x="397.0" y="431.0"/>
      <point x="429.0" y="367.0" type="curve"/>
      <point x="433.0" y="396.0" type="line"/>
      <point x="399.0" y="454.0"/>
      <point x="343.0" y="486.0"/>
      <point x="270.0" y="486.0" type="curve" smooth="yes"/>
      <point x="142.0" y="486.0"/>
      <point x="57.0" y="386.0"/>
      <point x="57.0" y="237.0" type="curve" smooth="yes"/>
      <point x="57.0" y="89.0"/>
      <point x="141.0" y="-10.0"/>
    </contour>
  </outline>
</glyph>
<glyph name="r" format="2">
  <advance width="321.0"/>
  <unicode hex="0072"/>
  <note>
r
</note>
  <anchor x="97.0" y="0.0" name="bottom"/>
  <anchor x="189.0" y="480.0" name="top"/>
  <outline>
    <contour>
      <point x="88.0" y="0.0" type="line"/>
      <point x="109.0" y="0.0" type="line"/>
      <point x="109.0" y="378.0" type="line"/>
      <point x="105.0" y="480.0" type="line"/>
      <point x="88.0" y="480.0" type="line"/>
    </contour>
    <contour>
      <point x="101.0" y="365.0" type="line"/>
      <point x="134.0" y="426.0"/>
      <point x="190.0" y="462.0"/>
      <point x="250.0" y="462.0" type="curve" smooth="yes"/>
      <point x="267.0" y="462.0"/>
      <point x="286.0" y="459.0"/>
      <point x="302.0" y="453.0" type="curve"/>
      <point x="308.0" y="469.0" type="line"/>
      <point x="293.0" y="476.0"/>
      <point x="273.0" y="480.0"/>
      <point x="252.0" y="480.0" type="curve" smooth="yes"/>
      <point x="187.0" y="480.0"/>
      <point x="131.0" y="446.0"/>
      <point x="101.0" y="388.0" type="curve"/>
    </contour>
  </outline>
</glyph>
<glyph name="s" format="2">
  <advance width="447"/>
  <unicode hex="0073"/>
  <note>
s
</note>
  <anchor x="216" y="0" name="bottom"/>
  <anchor x="225" y="480" name="top"/>
  <outline>
    <contour>
      <point x="231" y="-10" type="curve" smooth="yes"/>
      <point x="334" y="-10"/>
      <point x="394" y="40"/>
      <point x="394" y="118" type="curve" smooth="yes"/>
      <point x="394" y="294"/>
      <point x="86" y="208"/>
      <point x="86" y="362" type="curve" smooth="yes"/>
      <point x="86" y="429"/>
      <point x="145" y="468"/>
      <point x="233" y="468" type="curve" smooth="yes"/>
      <point x="280" y="468"/>
      <point x="330" y="457"/>
      <point x="362" y="440" type="curve"/>
      <point x="369" y="456" type="line"/>
      <point x="338" y="474"/>
      <point x="282" y="486"/>
      <point x="233" y="486" type="curve" smooth="yes"/>
      <point x="133" y="486"/>
      <point x="65" y="437"/>
      <point x="65" y="358" type="curve" smooth="yes"/>
      <point x="65" y="189"/>
      <point x="373" y="276"/>
      <point x="373" y="115" type="curve" smooth="yes"/>
      <point x="373" y="49"/>
      <point x="322" y="8"/>
      <point x="233" y="8" type="curve" smooth="yes"/>
      <point x="179" y="8"/>
      <point x="117" y="23"/>
      <point x="61" y="50" type="curve"/>
      <point x="54" y="33" type="line"/>
      <point x="111" y="5"/>
      <point x="175" y="-10"/>
    </contour>
  </outline>
</glyph>
<glyph name="t" format="2">
  <advance width="294"/>
  <unicode hex="0074"/>
  <note>
t
</note>
  <anchor x="169" y="0" name="bottom"/>
  <anchor x="145" y="250" name="center"/>
  <anchor x="103" y="617" name="top"/>
  <anchor x="219" y="480" name="topright"/>
  <outline>
    <contour>
      <point x="197" y="-3" type="curve" smooth="yes"/>
      <point x="221" y="-3"/>
      <point x="245" y="3"/>
      <point x="268" y="12" type="curve"/>
      <point x="263" y="26" type="line"/>
      <point x="242" y="18"/>
      <point x="221" y="14"/>
      <point x="203" y="14" type="curve" smooth="yes"/>
      <point x="149" y="14"/>
      <point x="113" y="51"/>
      <point x="113" y="108" type="curve" smooth="yes"/>
      <point x="113" y="617" type="line"/>
      <point x="92" y="617" type="line"/>
      <point x="92" y="103" type="line" smooth="yes"/>
      <point x="92" y="38"/>
      <point x="134" y="-3"/>
    </contour>
    <contour>
      <point x="29" y="463" type="line"/>
      <point x="256" y="463" type="line"/>
      <point x="256" y="480" type="line"/>
      <point x="29" y="480" type="line"/>
    </contour>
  </outline>
</glyph>
<glyph name="u" format="2">
  <advance width="517"/>
  <unicode hex="0075"/>
  <note>
u
</note>
  <anchor x="248" y="0" name="bottom"/>
  <anchor x="423" y="10" name="ogonek"/>
  <anchor x="248" y="480" name="top"/>
  <anchor x="489" y="480" name="topright"/>
  <outline>
    <contour>
      <point x="429" y="480" type="line"/>
      <point x="408" y="480" type="line"/>
      <point x="408" y="76" type="line"/>
      <point x="412" y="0" type="line"/>
      <point x="429" y="0" type="line"/>
    </contour>
    <contour>
      <point x="100" y="480" type="line"/>
      <point x="79" y="480" type="line"/>
      <point x="79" y="166" type="line" smooth="yes"/>
      <point x="79" y="57"/>
      <point x="142" y="-6"/>
      <point x="240" y="-6" type="curve" smooth="yes"/>
      <point x="307" y="-6"/>
      <point x="377" y="25"/>
      <point x="426" y="76" type="curve"/>
      <point x="417" y="87" type="line"/>
      <point x="371" y="40"/>
      <point x="305" y="12"/>
      <point x="244" y="12" type="curve" smooth="yes"/>
      <point x="155" y="12"/>
      <point x="100" y="69"/>
      <point x="100" y="166" type="curve" smooth="yes"/>
    </contour>
  </outline>
</glyph>
<glyph name="v" format="2">
  <advance width="453.0"/>
  <unicode hex="0076"/>
  <note>
v
</note>
  <anchor x="227.0" y="0.0" name="bottom"/>
  <anchor x="227.0" y="480.0" name="top"/>
  <outline>
    <contour>
      <point x="219.0" y="0.0" type="line"/>
      <point x="237.0" y="0.0" type="line"/>
      <point x="426.0" y="480.0" type="line"/>
      <point x="405.0" y="480.0" type="line"/>
      <point x="224.0" y="14.0" type="line"/>
      <point x="233.0" y="14.0" type="line"/>
      <point x="50.0" y="480.0" type="line"/>
      <point x="27.0" y="480.0" type="line"/>
    </contour>
  </outline>
</glyph>
<glyph name="w" format="2">
  <advance width="754"/>
  <unicode hex="0077"/>
  <note>
w
</note>
  <anchor x="381" y="0" name="bottom"/>
  <anchor x="381" y="480" name="top"/>
  <outline>
    <contour>
      <point x="197" y="0" type="line"/>
      <point x="212" y="0" type="line"/>
      <point x="380" y="459" type="line"/>
      <point x="373" y="459" type="line"/>
      <point x="551" y="0" type="line"/>
      <point x="565" y="0" type="line"/>
      <point x="722" y="480" type="line"/>
      <point x="701" y="480" type="line"/>
      <point x="556" y="25" type="line"/>
      <point x="562" y="25" type="line"/>
      <point x="387" y="479" type="line"/>
      <point x="367" y="479" type="line"/>
      <point x="203" y="25" type="line"/>
      <point x="208" y="25" type="line"/>
      <point x="54" y="480" type="line"/>
      <point x="32" y="480" type="line"/>
    </contour>
  </outline>
</glyph>
<glyph name="x" format="2">
  <advance width="442"/>
  <unicode hex="0078"/>
  <note>
x
</note>
  <anchor x="222" y="0" name="bottom"/>
  <anchor x="220" y="480" name="top"/>
  <outline>
    <contour>
      <point x="33" y="0" type="line"/>
      <point x="55" y="0" type="line"/>
      <point x="225" y="238" type="line"/>
      <point x="415" y="480" type="line"/>
      <point x="393" y="480" type="line"/>
      <point x="215" y="251" type="line"/>
    </contour>
    <contour>
      <point x="378" y="0" type="line"/>
      <point x="402" y="0" type="line"/>
      <point x="225" y="250" type="line"/>
      <point x="54" y="480" type="line"/>
      <point x="30" y="480" type="line"/>
      <point x="213" y="235" type="line"/>
    </contour>
  </outline>
</glyph>
<glyph name="y" format="2">
  <advance width="453.0"/>
  <unicode hex="0079"/>
  <note>
y
</note>
  <anchor x="333.0" y="0.0" name="bottom"/>
  <anchor x="215.0" y="480.0" name="top"/>
  <outline>
    <contour>
      <point x="219.0" y="0.0" type="line"/>
      <point x="237.0" y="0.0" type="line"/>
      <point x="426.0" y="480.0" type="line"/>
      <point x="405.0" y="480.0" type="line"/>
      <point x="224.0" y="14.0" type="line"/>
      <point x="233.0" y="14.0" type="line"/>
      <point x="50.0" y="480.0" type="line"/>
      <point x="27.0" y="480.0" type="line"/>
    </contour>
    <contour>
      <point x="135.0" y="-217.0" type="line"/>
      <point x="158.0" y="-217.0" type="line"/>
      <point x="237.0" y="0.0" type="line"/>
      <point x="219.0" y="0.0" type="line"/>
    </contour>
  </outline>
</glyph>
<glyph name="z" format="2">
  <advance width="414.0"/>
  <unicode hex="007A"/>
  <note>
z
</note>
  <anchor x="207.0" y="0.0" name="bottom"/>
  <anchor x="207.0" y="480.0" name="top"/>
  <outline>
    <contour>
      <point x="31.0" y="0.0" type="line"/>
      <point x="386.0" y="0.0" type="line"/>
      <point x="386.0" y="17.0" type="line"/>
      <point x="50.0" y="17.0" type="line"/>
      <point x="52.0" y="13.0" type="line"/>
      <point x="376.0" y="464.0" type="line"/>
      <point x="376.0" y="480.0" type="line"/>
      <point x="31.0" y="480.0" type="line"/>
      <point x="31.0" y="463.0" type="line"/>
      <point x="357.0" y="463.0" type="line"/>
      <point x="355.0" y="467.0" type="line"/>
      <point x="31.0" y="15.0" type="line"/>
    </contour>
  </outline>
</glyph>
<glyph name="braceleft" format="2">
  <advance width="334.0"/>
  <unicode hex="007B"/>
  <outline>
    <contour>
      <point x="296.0" y="-161.0" type="curve"/>
      <point x="296.0" y="-144.0" type="line"/>
      <point x="210.0" y="-144.0"/>
      <point x="158.0" y="-100.0"/>
      <point x="158.0" y="-25.0" type="curve" smooth="yes"/>
      <point x="158.0" y="143.0" type="line" smooth="yes"/>
      <point x="158.0" y="221.0"/>
      <point x="118.0" y="288.0"/>
      <point x="55.0" y="309.0" type="curve"/>
      <point x="55.0" y="307.0" type="line"/>
      <point x="120.0" y="326.0"/>
      <point x="159.0" y="392.0"/>
      <point x="159.0" y="467.0" type="curve" smooth="yes"/>
      <point x="159.0" y="603.0" type="line" smooth="yes"/>
      <point x="159.0" y="681.0"/>
      <point x="210.0" y="727.0"/>
      <point x="296.0" y="727.0" type="curve"/>
      <point x="296.0" y="744.0" type="line"/>
      <point x="197.0" y="744.0"/>
      <point x="138.0" y="688.0"/>
      <point x="138.0" y="593.0" type="curve" smooth="yes"/>
      <point x="138.0" y="457.0" type="line" smooth="yes"/>
      <point x="138.0" y="389.0"/>
      <point x="98.0" y="334.0"/>
      <point x="36.0" y="317.0" type="curve"/>
      <point x="36.0" y="299.0" type="line"/>
      <point x="98.0" y="280.0"/>
      <point x="138.0" y="214.0"/>
      <point x="138.0" y="133.0" type="curve" smooth="yes"/>
      <point x="138.0" y="-35.0" type="line" smooth="yes"/>
      <point x="138.0" y="-114.0"/>
      <point x="197.0" y="-161.0"/>
    </contour>
  </outline>
</glyph>
<glyph name="bar" format="2">
  <advance width="259"/>
  <unicode hex="007C"/>
  <outline>
    <contour>
      <point x="120" y="-180" type="line"/>
      <point x="139" y="-180" type="line"/>
      <point x="139" y="739" type="line"/>
      <point x="120" y="739" type="line"/>
    </contour>
  </outline>
</glyph>
<glyph name="asciitilde" format="2">
  <advance width="653.0"/>
  <unicode hex="007E"/>
  <outline>
    <contour>
      <point x="117.0" y="278.0" type="line"/>
      <point x="136.0" y="326.0"/>
      <point x="180.0" y="368.0"/>
      <point x="229.0" y="368.0" type="curve" smooth="yes"/>
      <point x="298.0" y="368.0"/>
      <point x="341.0" y="273.0"/>
      <point x="424.0" y="273.0" type="curve" smooth="yes"/>
      <point x="479.0" y="273.0"/>
      <point x="532.0" y="316.0"/>
      <point x="549.0" y="376.0" type="curve"/>
      <point x="534.0" y="380.0" type="line"/>
      <point x="517.0" y="334.0"/>
      <point x="477.0" y="291.0"/>
      <point x="428.0" y="291.0" type="curve" smooth="yes"/>
      <point x="353.0" y="291.0"/>
      <point x="313.0" y="387.0"/>
      <point x="235.0" y="387.0" type="curve" smooth="yes"/>
      <point x="174.0" y="387.0"/>
      <point x="118.0" y="336.0"/>
      <point x="103.0" y="283.0" type="curve"/>
    </contour>
  </outline>
</glyph>
<glyph name="sterling" format="2">
  <advance width="607.0"/>
  <unicode hex="00A3"/>
  <outline>
    <contour>
      <point x="78.0" y="0.0" type="line"/>
      <point x="535.0" y="0.0" type="line"/>
      <point x="535.0" y="17.0" type="line"/>
      <point x="112.0" y="17.0" type="line"/>
      <point x="160.0" y="38.0"/>
      <point x="189.0" y="107.0"/>
      <point x="189.0" y="201.0" type="curve" smooth="yes"/>
      <point x="189.0" y="484.0" type="line" smooth="yes"/>
      <point x="189.0" y="605.0"/>
      <point x="262.0" y="685.0"/>
      <point x="373.0" y="685.0" type="curve" smooth="yes"/>
      <point x="405.0" y="685.0"/>
      <point x="448.0" y="679.0"/>
      <point x="493.0" y="665.0" type="curve"/>
      <point x="499.0" y="681.0" type="line"/>
      <point x="461.0" y="695.0"/>
      <point x="414.0" y="704.0"/>
      <point x="376.0" y="704.0" type="curve" smooth="yes"/>
      <point x="251.0" y="704.0"/>
      <point x="169.0" y="615.0"/>
      <point x="169.0" y="481.0" type="curve" smooth="yes"/>
      <point x="169.0" y="198.0" type="line" smooth="yes"/>
      <point x="169.0" y="106.0"/>
      <point x="135.0" y="38.0"/>
      <point x="78.0" y="17.0" type="curve"/>
    </contour>
    <contour>
      <point x="86.0" y="340.0" type="line"/>
      <point x="435.0" y="340.0" type="line"/>
      <point x="435.0" y="357.0" type="line"/>
      <point x="86.0" y="357.0" type="line"/>
    </contour>
  </outline>
</glyph>
<glyph name="currency" format="2">
  <advance width="622.0"/>
  <unicode hex="00A4"/>
  <outline>
    <contour>
      <point x="310.0" y="159.0" type="curve" smooth="yes"/>
      <point x="414.0" y="159.0"/>
      <point x="483.0" y="231.0"/>
      <point x="483.0" y="339.0" type="curve" smooth="yes"/>
      <point x="483.0" y="443.0"/>
      <point x="415.0" y="513.0"/>
      <point x="313.0" y="513.0" type="curve" smooth="yes"/>
      <point x="209.0" y="513.0"/>
      <point x="140.0" y="442.0"/>
      <point x="140.0" y="335.0" type="curve" smooth="yes"/>
      <point x="140.0" y="229.0"/>
      <point x="208.0" y="159.0"/>
    </contour>
    <contour>
      <point x="101.0" y="105.0" type="line"/>
      <point x="203.0" y="204.0" type="line"/>
      <point x="191.0" y="216.0" type="line"/>
      <point x="89.0" y="117.0" type="line"/>
    </contour>
    <contour>
      <point x="521.0" y="105.0" type="line"/>
      <point x="533.0" y="117.0" type="line"/>
      <point x="429.0" y="218.0" type="line"/>
      <point x="417.0" y="206.0" type="line"/>
    </contour>
    <contour>
      <point x="313.0" y="177.0" type="curve" smooth="yes"/>
      <point x="222.0" y="177.0"/>
      <point x="161.0" y="241.0"/>
      <point x="161.0" y="338.0" type="curve" smooth="yes"/>
      <point x="161.0" y="432.0"/>
      <point x="221.0" y="495.0"/>
      <point x="310.0" y="495.0" type="curve" smooth="yes"/>
      <point x="401.0" y="495.0"/>
      <point x="462.0" y="431.0"/>
      <point x="462.0" y="336.0" type="curve" smooth="yes"/>
      <point x="462.0" y="241.0"/>
      <point x="402.0" y="177.0"/>
    </contour>
    <contour>
      <point x="187.0" y="454.0" type="line"/>
      <point x="199.0" y="466.0" type="line"/>
      <point x="101.0" y="566.0" type="line"/>
      <point x="89.0" y="554.0" type="line"/>
    </contour>
    <contour>
      <point x="433.0" y="454.0" type="line"/>
      <point x="533.0" y="554.0" type="line"/>
      <point x="521.0" y="566.0" type="line"/>
      <point x="421.0" y="466.0" type="line"/>
    </contour>
  </outline>
</glyph>
<glyph name="yen" format="2">
  <advance width="643.0"/>
  <unicode hex="00A5"/>
  <outline>
    <contour>
      <point x="112.0" y="170.0" type="line"/>
      <point x="532.0" y="170.0" type="line"/>
      <point x="532.0" y="187.0" type="line"/>
      <point x="112.0" y="187.0" type="line"/>
    </contour>
    <contour>
      <point x="112.0" y="327.0" type="line"/>
      <point x="532.0" y="327.0" type="line"/>
      <point x="532.0" y="344.0" type="line"/>
      <point x="112.0" y="344.0" type="line"/>
    </contour>
    <contour>
      <point x="311.0" y="0.0" type="line"/>
      <point x="332.0" y="0.0" type="line"/>
      <point x="332.0" y="333.0" type="line"/>
      <point x="564.0" y="694.0" type="line"/>
      <point x="541.0" y="694.0" type="line"/>
      <point x="319.0" y="344.0" type="line"/>
      <point x="327.0" y="344.0" type="line"/>
      <point x="104.0" y="694.0" type="line"/>
      <point x="78.0" y="694.0" type="line"/>
      <point x="311.0" y="333.0" type="line"/>
    </contour>
  </outline>
</glyph>
<glyph name="brokenbar" format="2">
  <advance width="260"/>
  <unicode hex="00A6"/>
  <outline>
    <contour>
      <point x="120" y="-181" type="line"/>
      <point x="140" y="-181" type="line"/>
      <point x="140" y="181" type="line"/>
      <point x="120" y="181" type="line"/>
    </contour>
    <contour>
      <point x="120" y="412" type="line"/>
      <point x="140" y="412" type="line"/>
      <point x="140" y="740" type="line"/>
      <point x="120" y="740" type="line"/>
    </contour>
  </outline>
</glyph>
<glyph name="section" format="2">
  <advance width="581"/>
  <unicode hex="00A7"/>
  <outline>
    <contour>
      <point x="300" y="-60" type="curve" smooth="yes"/>
      <point x="399" y="-60"/>
      <point x="465" y="-12"/>
      <point x="465" y="71" type="curve" smooth="yes"/>
      <point x="465" y="257"/>
      <point x="143" y="174"/>
      <point x="143" y="333" type="curve" smooth="yes"/>
      <point x="143" y="399"/>
      <point x="200" y="444"/>
      <point x="296" y="444" type="curve"/>
      <point x="297" y="457" type="line"/>
      <point x="188" y="457"/>
      <point x="122" y="408"/>
      <point x="122" y="330" type="curve" smooth="yes"/>
      <point x="122" y="156"/>
      <point x="444" y="238"/>
      <point x="444" y="68" type="curve" smooth="yes"/>
      <point x="444" y="-2"/>
      <point x="388" y="-42"/>
      <point x="302" y="-42" type="curve" smooth="yes"/>
      <point x="243" y="-42"/>
      <point x="180" y="-24"/>
      <point x="124" y="4" type="curve"/>
      <point x="117" y="-13" type="line"/>
      <point x="171" y="-42"/>
      <point x="240" y="-60"/>
    </contour>
    <contour>
      <point x="301" y="193" type="line"/>
      <point x="399" y="193"/>
      <point x="458" y="239"/>
      <point x="458" y="316" type="curve" smooth="yes"/>
      <point x="458" y="497"/>
      <point x="145" y="421"/>
      <point x="145" y="568" type="curve" smooth="yes"/>
      <point x="145" y="634"/>
      <point x="207" y="686"/>
      <point x="298" y="686" type="curve" smooth="yes"/>
      <point x="344" y="686"/>
      <point x="396" y="673"/>
      <point x="437" y="652" type="curve"/>
      <point x="444" y="668" type="line"/>
      <point x="401" y="691"/>
      <point x="350" y="704"/>
      <point x="301" y="704" type="curve" smooth="yes"/>
      <point x="197" y="704"/>
      <point x="124" y="646"/>
      <point x="124" y="566" type="curve" smooth="yes"/>
      <point x="124" y="402"/>
      <point x="437" y="481"/>
      <point x="437" y="315" type="curve" smooth="yes"/>
      <point x="437" y="248"/>
      <point x="387" y="206"/>
      <point x="302" y="206" type="curve"/>
    </contour>
  </outline>
</glyph>
<glyph name="copyright" format="2">
  <advance width="886.0"/>
  <unicode hex="00A9"/>
  <outline>
    <contour>
      <point x="442.0" y="-3.0" type="curve" smooth="yes"/>
      <point x="646.0" y="-3.0"/>
      <point x="782.0" y="137.0"/>
      <point x="782.0" y="347.0" type="curve" smooth="yes"/>
      <point x="782.0" y="561.0"/>
      <point x="647.0" y="704.0"/>
      <point x="444.0" y="704.0" type="curve" smooth="yes"/>
      <point x="240.0" y="704.0"/>
      <point x="104.0" y="560.0"/>
      <point x="104.0" y="344.0" type="curve" smooth="yes"/>
      <point x="104.0" y="136.0"/>
      <point x="239.0" y="-3.0"/>
    </contour>
    <contour>
      <point x="445.0" y="15.0" type="curve" smooth="yes"/>
      <point x="253.0" y="15.0"/>
      <point x="125.0" y="148.0"/>
      <point x="125.0" y="347.0" type="curve" smooth="yes"/>
      <point x="125.0" y="550.0"/>
      <point x="251.0" y="686.0"/>
      <point x="441.0" y="686.0" type="curve" smooth="yes"/>
      <point x="634.0" y="686.0"/>
      <point x="762.0" y="549.0"/>
      <point x="762.0" y="344.0" type="curve" smooth="yes"/>
      <point x="762.0" y="147.0"/>
      <point x="635.0" y="15.0"/>
    </contour>
    <contour>
      <point x="452.0" y="134.0" type="curve" smooth="yes"/>
      <point x="491.0" y="134.0"/>
      <point x="534.0" y="143.0"/>
      <point x="571.0" y="160.0" type="curve"/>
      <point x="566.0" y="176.0" type="line"/>
      <point x="532.0" y="162.0"/>
      <point x="491.0" y="154.0"/>
      <point x="457.0" y="154.0" type="curve" smooth="yes"/>
      <point x="351.0" y="154.0"/>
      <point x="280.0" y="232.0"/>
      <point x="280.0" y="350.0" type="curve" smooth="yes"/>
      <point x="280.0" y="466.0"/>
      <point x="351.0" y="542.0"/>
      <point x="460.0" y="542.0" type="curve" smooth="yes"/>
      <point x="495.0" y="542.0"/>
      <point x="532.0" y="534.0"/>
      <point x="565.0" y="520.0" type="curve"/>
      <point x="572.0" y="537.0" type="line"/>
      <point x="539.0" y="553.0"/>
      <point x="501.0" y="561.0"/>
      <point x="462.0" y="561.0" type="curve" smooth="yes"/>
      <point x="339.0" y="561.0"/>
      <point x="257.0" y="474.0"/>
      <point x="257.0" y="343.0" type="curve" smooth="yes"/>
      <point x="257.0" y="218.0"/>
      <point x="335.0" y="134.0"/>
    </contour>
  </outline>
</glyph>
<glyph name="ordfeminine" format="2">
  <advance width="361.0"/>
  <unicode hex="00AA"/>
  <outline>
    <contour>
      <point x="281.0" y="384.0" type="line"/>
      <point x="296.0" y="384.0" type="line"/>
      <point x="296.0" y="629.0" type="line" smooth="yes"/>
      <point x="296.0" y="705.0"/>
      <point x="251.0" y="749.0"/>
      <point x="176.0" y="749.0" type="curve" smooth="yes"/>
      <point x="139.0" y="749.0"/>
      <point x="91.0" y="737.0"/>
      <point x="52.0" y="717.0" type="curve"/>
      <point x="57.0" y="704.0" type="line"/>
      <point x="97.0" y="724.0"/>
      <point x="139.0" y="733.0"/>
      <point x="171.0" y="733.0" type="curve" smooth="yes"/>
      <point x="239.0" y="733.0"/>
      <point x="277.0" y="696.0"/>
      <point x="277.0" y="626.0" type="curve" smooth="yes"/>
      <point x="277.0" y="436.0" type="line"/>
    </contour>
    <contour>
      <point x="153.0" y="377.0" type="curve" smooth="yes"/>
      <point x="206.0" y="377.0"/>
      <point x="253.0" y="400.0"/>
      <point x="287.0" y="441.0" type="curve"/>
      <point x="285.0" y="454.0" type="line"/>
      <point x="245.0" y="412.0"/>
      <point x="203.0" y="393.0"/>
      <point x="158.0" y="393.0" type="curve" smooth="yes"/>
      <point x="98.0" y="393.0"/>
      <point x="58.0" y="426.0"/>
      <point x="58.0" y="476.0" type="curve" smooth="yes"/>
      <point x="58.0" y="540.0"/>
      <point x="125.0" y="568.0"/>
      <point x="283.0" y="568.0" type="curve"/>
      <point x="283.0" y="582.0" type="line"/>
      <point x="117.0" y="582.0"/>
      <point x="39.0" y="548.0"/>
      <point x="39.0" y="473.0" type="curve" smooth="yes"/>
      <point x="39.0" y="415.0"/>
      <point x="84.0" y="377.0"/>
    </contour>
  </outline>
</glyph>
<glyph name="guillemetleft" format="2">
  <advance width="448"/>
  <unicode hex="00AB"/>
  <outline>
    <contour>
      <point x="201" y="37" type="line"/>
      <point x="225" y="37" type="line"/>
      <point x="65" y="259" type="line"/>
      <point x="67" y="244" type="line"/>
      <point x="222" y="456" type="line"/>
      <point x="202" y="456" type="line"/>
      <point x="49" y="250" type="line"/>
    </contour>
    <contour>
      <point x="377" y="37" type="line"/>
      <point x="401" y="37" type="line"/>
      <point x="240" y="259" type="line"/>
      <point x="242" y="244" type="line"/>
      <point x="398" y="456" type="line"/>
      <point x="378" y="456" type="line"/>
      <point x="225" y="250" type="line"/>
    </contour>
  </outline>
</glyph>
<glyph name="logicalnot" format="2">
  <advance width="666"/>
  <unicode hex="00AC"/>
  <outline>
    <contour>
      <point x="86" y="363" type="line"/>
      <point x="522" y="363" type="line"/>
      <point x="522" y="380" type="line"/>
      <point x="86" y="380" type="line"/>
    </contour>
    <contour>
      <point x="502" y="162" type="line"/>
      <point x="522" y="162" type="line"/>
      <point x="522" y="363" type="line"/>
      <point x="502" y="363" type="line"/>
    </contour>
  </outline>
</glyph>
<glyph name="registered" format="2">
  <advance width="675.0"/>
  <unicode hex="00AE"/>
  <outline>
    <contour>
      <point x="336.0" y="279.0" type="curve" smooth="yes"/>
      <point x="473.0" y="279.0"/>
      <point x="565.0" y="373.0"/>
      <point x="565.0" y="514.0" type="curve" smooth="yes"/>
      <point x="565.0" y="655.0"/>
      <point x="474.0" y="749.0"/>
      <point x="338.0" y="749.0" type="curve" smooth="yes"/>
      <point x="201.0" y="749.0"/>
      <point x="110.0" y="654.0"/>
      <point x="110.0" y="512.0" type="curve" smooth="yes"/>
      <point x="110.0" y="372.0"/>
      <point x="200.0" y="279.0"/>
    </contour>
    <contour>
      <point x="339.0" y="297.0" type="curve" smooth="yes"/>
      <point x="214.0" y="297.0"/>
      <point x="131.0" y="384.0"/>
      <point x="131.0" y="515.0" type="curve" smooth="yes"/>
      <point x="131.0" y="645.0"/>
      <point x="213.0" y="731.0"/>
      <point x="335.0" y="731.0" type="curve" smooth="yes"/>
      <point x="460.0" y="731.0"/>
      <point x="544.0" y="643.0"/>
      <point x="544.0" y="511.0" type="curve" smooth="yes"/>
      <point x="544.0" y="383.0"/>
      <point x="462.0" y="297.0"/>
    </contour>
    <contour>
      <point x="258.0" y="380.0" type="line"/>
      <point x="279.0" y="380.0" type="line"/>
      <point x="279.0" y="658.0" type="line"/>
      <point x="258.0" y="658.0" type="line"/>
    </contour>
    <contour>
      <point x="271.0" y="497.0" type="line"/>
      <point x="337.0" y="497.0" type="line" smooth="yes"/>
      <point x="396.0" y="497.0"/>
      <point x="432.0" y="528.0"/>
      <point x="432.0" y="580.0" type="curve" smooth="yes"/>
      <point x="432.0" y="628.0"/>
      <point x="398.0" y="658.0"/>
      <point x="340.0" y="658.0" type="curve" smooth="yes"/>
      <point x="271.0" y="658.0" type="line"/>
      <point x="271.0" y="640.0" type="line"/>
      <point x="337.0" y="640.0" type="line" smooth="yes"/>
      <point x="385.0" y="640.0"/>
      <point x="411.0" y="617.0"/>
      <point x="411.0" y="576.0" type="curve" smooth="yes"/>
      <point x="411.0" y="537.0"/>
      <point x="386.0" y="514.0"/>
      <point x="340.0" y="514.0" type="curve" smooth="yes"/>
      <point x="271.0" y="514.0" type="line"/>
    </contour>
    <contour>
      <point x="422.0" y="380.0" type="line"/>
      <point x="447.0" y="380.0" type="line"/>
      <point x="372.0" y="509.0" type="line"/>
      <point x="348.0" y="509.0" type="line"/>
    </contour>
  </outline>
</glyph>
<glyph name="degree" format="2">
  <advance width="512.0"/>
  <unicode hex="00B0"/>
  <outline>
    <contour>
      <point x="255.0" y="417.0" type="curve" smooth="yes"/>
      <point x="337.0" y="417.0"/>
      <point x="391.0" y="475.0"/>
      <point x="391.0" y="561.0" type="curve" smooth="yes"/>
      <point x="391.0" y="647.0"/>
      <point x="337.0" y="704.0"/>
      <point x="257.0" y="704.0" type="curve" smooth="yes"/>
      <point x="175.0" y="704.0"/>
      <point x="120.0" y="646.0"/>
      <point x="120.0" y="559.0" type="curve" smooth="yes"/>
      <point x="120.0" y="474.0"/>
      <point x="174.0" y="417.0"/>
    </contour>
    <contour>
      <point x="257.0" y="434.0" type="curve" smooth="yes"/>
      <point x="186.0" y="434.0"/>
      <point x="139.0" y="485.0"/>
      <point x="139.0" y="561.0" type="curve" smooth="yes"/>
      <point x="139.0" y="637.0"/>
      <point x="185.0" y="687.0"/>
      <point x="255.0" y="687.0" type="curve" smooth="yes"/>
      <point x="325.0" y="687.0"/>
      <point x="372.0" y="636.0"/>
      <point x="372.0" y="559.0" type="curve" smooth="yes"/>
      <point x="372.0" y="484.0"/>
      <point x="326.0" y="434.0"/>
    </contour>
  </outline>
</glyph>
<glyph name="plusminus" format="2">
  <advance width="624.0"/>
  <unicode hex="00B1"/>
  <outline>
    <contour>
      <point x="303.0" y="147.0" type="line"/>
      <point x="322.0" y="147.0" type="line"/>
      <point x="322.0" y="623.0" type="line"/>
      <point x="303.0" y="623.0" type="line"/>
    </contour>
    <contour>
      <point x="87.0" y="63.0" type="line"/>
      <point x="537.0" y="63.0" type="line"/>
      <point x="537.0" y="80.0" type="line"/>
      <point x="87.0" y="80.0" type="line"/>
    </contour>
    <contour>
      <point x="87.0" y="381.0" type="line"/>
      <point x="537.0" y="381.0" type="line"/>
      <point x="537.0" y="398.0" type="line"/>
      <point x="87.0" y="398.0" type="line"/>
    </contour>
  </outline>
</glyph>
<glyph name="micro" format="2">
  <advance width="527"/>
  <unicode hex="00B5"/>
  <outline>
    <contour>
      <point x="247" y="-6" type="curve" smooth="yes"/>
      <point x="323" y="-6"/>
      <point x="390" y="31"/>
      <point x="434" y="96" type="curve"/>
      <point x="427" y="107" type="line"/>
      <point x="384" y="46"/>
      <point x="321" y="12"/>
      <point x="252" y="12" type="curve" smooth="yes"/>
      <point x="161" y="12"/>
      <point x="108" y="69"/>
      <point x="108" y="166" type="curve"/>
      <point x="88" y="184" type="line"/>
      <point x="88" y="55"/>
      <point x="151" y="-6"/>
    </contour>
    <contour>
      <point x="88" y="-217" type="line"/>
      <point x="108" y="-217" type="line"/>
      <point x="108" y="482" type="line"/>
      <point x="88" y="482" type="line"/>
    </contour>
    <contour>
      <point x="422" y="0" type="line"/>
      <point x="439" y="0" type="line"/>
      <point x="439" y="480" type="line"/>
      <point x="418" y="480" type="line"/>
      <point x="418" y="76" type="line"/>
    </contour>
  </outline>
</glyph>
<glyph name="paragraph" format="2">
  <advance width="625"/>
  <unicode hex="00B6"/>
  <outline>
    <contour>
      <point x="280" y="-162" type="line"/>
      <point x="299" y="-162" type="line"/>
      <point x="299" y="677" type="line"/>
      <point x="486" y="677" type="line"/>
      <point x="486" y="-162" type="line"/>
      <point x="505" y="-162" type="line"/>
      <point x="505" y="694" type="line"/>
      <point x="280" y="694" type="line" smooth="yes"/>
      <point x="149" y="694"/>
      <point x="61" y="615"/>
      <point x="61" y="497" type="curve" smooth="yes"/>
      <point x="61" y="375"/>
      <point x="149" y="293"/>
      <point x="280" y="293" type="curve"/>
    </contour>
  </outline>
</glyph>
<glyph name="ordmasculine" format="2">
  <advance width="518"/>
  <unicode hex="00BA"/>
  <outline>
    <contour>
      <point x="259" y="377" type="curve" smooth="yes"/>
      <point x="353" y="377"/>
      <point x="418" y="452"/>
      <point x="418" y="564" type="curve" smooth="yes"/>
      <point x="418" y="676"/>
      <point x="354" y="749"/>
      <point x="261" y="749" type="curve" smooth="yes"/>
      <point x="164" y="749"/>
      <point x="100" y="673"/>
      <point x="100" y="562" type="curve" smooth="yes"/>
      <point x="100" y="451"/>
      <point x="163" y="377"/>
    </contour>
    <contour>
      <point x="261" y="393" type="curve" smooth="yes"/>
      <point x="174" y="393"/>
      <point x="119" y="462"/>
      <point x="119" y="564" type="curve" smooth="yes"/>
      <point x="119" y="663"/>
      <point x="172" y="733"/>
      <point x="257" y="733" type="curve" smooth="yes"/>
      <point x="342" y="733"/>
      <point x="399" y="666"/>
      <point x="399" y="562" type="curve" smooth="yes"/>
      <point x="399" y="459"/>
      <point x="344" y="393"/>
    </contour>
  </outline>
</glyph>
<glyph name="guillemetright" format="2">
  <advance width="432.0"/>
  <unicode hex="00BB"/>
  <outline>
    <contour>
      <point x="219.0" y="36.0" type="line"/>
      <point x="239.0" y="36.0" type="line"/>
      <point x="382.0" y="247.0" type="line"/>
      <point x="239.0" y="455.0" type="line"/>
      <point x="215.0" y="455.0" type="line"/>
      <point x="366.0" y="238.0" type="line"/>
      <point x="364.0" y="253.0" type="line"/>
    </contour>
    <contour>
      <point x="54.0" y="36.0" type="line"/>
      <point x="74.0" y="36.0" type="line"/>
      <point x="217.0" y="247.0" type="line"/>
      <point x="74.0" y="455.0" type="line"/>
      <point x="50.0" y="455.0" type="line"/>
      <point x="201.0" y="238.0" type="line"/>
      <point x="199.0" y="253.0" type="line"/>
    </contour>
  </outline>
</glyph>
<glyph name="AE" format="2">
  <advance width="914.0"/>
  <unicode hex="00C6"/>
  <anchor x="500.0" y="0.0" name="bottom"/>
  <anchor x="500.0" y="694.0" name="top"/>
  <outline>
    <contour>
      <point x="51.0" y="0.0" type="line"/>
      <point x="74.0" y="0.0" type="line"/>
      <point x="493.0" y="694.0" type="line"/>
      <point x="474.0" y="694.0" type="line"/>
    </contour>
    <contour>
      <point x="210.0" y="243.0" type="line"/>
      <point x="488.0" y="243.0" type="line"/>
      <point x="489.0" y="262.0" type="line"/>
      <point x="219.0" y="262.0" type="line"/>
    </contour>
    <contour>
      <point x="478.0" y="0.0" type="line"/>
      <point x="499.0" y="0.0" type="line"/>
      <point x="499.0" y="694.0" type="line"/>
      <point x="478.0" y="694.0" type="line"/>
    </contour>
    <contour>
      <point x="487.0" y="0.0" type="line"/>
      <point x="865.0" y="0.0" type="line"/>
      <point x="865.0" y="18.0" type="line"/>
      <point x="487.0" y="18.0" type="line"/>
    </contour>
    <contour>
      <point x="487.0" y="351.0" type="line"/>
      <point x="840.0" y="351.0" type="line"/>
      <point x="840.0" y="369.0" type="line"/>
      <point x="487.0" y="369.0" type="line"/>
    </contour>
    <contour>
      <point x="487.0" y="676.0" type="line"/>
      <point x="865.0" y="676.0" type="line"/>
      <point x="865.0" y="694.0" type="line"/>
      <point x="487.0" y="694.0" type="line"/>
    </contour>
  </outline>
</glyph>
<glyph name="multiply" format="2">
  <advance width="551.0"/>
  <unicode hex="00D7"/>
  <outline>
    <contour>
      <point x="453.0" y="132.0" type="line"/>
      <point x="464.0" y="143.0" type="line"/>
      <point x="106.0" y="530.0" type="line"/>
      <point x="95.0" y="519.0" type="line"/>
    </contour>
    <contour>
      <point x="98.0" y="139.0" type="line"/>
      <point x="459.0" y="519.0" type="line"/>
      <point x="448.0" y="530.0" type="line"/>
      <point x="87.0" y="150.0" type="line"/>
    </contour>
  </outline>
</glyph>
<glyph name="Thorn" format="2">
  <advance width="566"/>
  <unicode hex="00DE"/>
  <outline>
    <contour>
      <point x="104" y="0" type="line"/>
      <point x="125" y="0" type="line"/>
      <point x="125" y="694" type="line"/>
      <point x="104" y="694" type="line"/>
    </contour>
    <contour>
      <point x="119" y="148" type="line"/>
      <point x="280" y="148" type="line" smooth="yes"/>
      <point x="422" y="148"/>
      <point x="506" y="228"/>
      <point x="506" y="357" type="curve" smooth="yes"/>
      <point x="506" y="489"/>
      <point x="418" y="574"/>
      <point x="286" y="574" type="curve" smooth="yes"/>
      <point x="119" y="574" type="line"/>
      <point x="119" y="556" type="line"/>
      <point x="280" y="556" type="line" smooth="yes"/>
      <point x="402" y="556"/>
      <point x="484" y="477"/>
      <point x="484" y="355" type="curve" smooth="yes"/>
      <point x="484" y="238"/>
      <point x="410" y="166"/>
      <point x="286" y="166" type="curve" smooth="yes"/>
      <point x="119" y="166" type="line"/>
    </contour>
  </outline>
</glyph>
<glyph name="germandbls" format="2">
  <advance width="570.0"/>
  <unicode hex="00DF"/>
  <outline>
    <contour>
      <point x="357.0" y="-10.0" type="curve" smooth="yes"/>
      <point x="448.0" y="-10.0"/>
      <point x="513.0" y="44.0"/>
      <point x="513.0" y="134.0" type="curve" smooth="yes"/>
      <point x="513.0" y="290.0"/>
      <point x="315.0" y="292.0"/>
      <point x="315.0" y="384.0" type="curve" smooth="yes"/>
      <point x="315.0" y="457.0"/>
      <point x="438.0" y="464.0"/>
      <point x="438.0" y="591.0" type="curve" smooth="yes"/>
      <point x="438.0" y="685.0"/>
      <point x="371.0" y="749.0"/>
      <point x="277.0" y="749.0" type="curve" smooth="yes"/>
      <point x="169.0" y="749.0"/>
      <point x="102.0" y="664.0"/>
      <point x="102.0" y="539.0" type="curve" smooth="yes"/>
      <point x="102.0" y="0.0" type="line"/>
      <point x="123.0" y="0.0" type="line"/>
      <point x="123.0" y="548.0" type="line" smooth="yes"/>
      <point x="123.0" y="659.0"/>
      <point x="181.0" y="731.0"/>
      <point x="274.0" y="731.0" type="curve" smooth="yes"/>
      <point x="357.0" y="731.0"/>
      <point x="418.0" y="673.0"/>
      <point x="418.0" y="588.0" type="curve" smooth="yes"/>
      <point x="418.0" y="468.0"/>
      <point x="294.0" y="465.0"/>
      <point x="294.0" y="381.0" type="curve" smooth="yes"/>
      <point x="294.0" y="275.0"/>
      <point x="492.0" y="281.0"/>
      <point x="492.0" y="131.0" type="curve" smooth="yes"/>
      <point x="492.0" y="54.0"/>
      <point x="438.0" y="8.0"/>
      <point x="359.0" y="8.0" type="curve" smooth="yes"/>
      <point x="316.0" y="8.0"/>
      <point x="266.0" y="21.0"/>
      <point x="225.0" y="43.0" type="curve"/>
      <point x="219.0" y="26.0" type="line"/>
      <point x="257.0" y="4.0"/>
      <point x="311.0" y="-10.0"/>
    </contour>
  </outline>
</glyph>
<glyph name="ae" format="2">
  <advance width="812.0"/>
  <unicode hex="00E6"/>
  <anchor x="406.0" y="0.0" name="bottom"/>
  <anchor x="406.0" y="480.0" name="top"/>
  <outline>
    <contour>
      <point x="374.0" y="239.0" type="line"/>
      <point x="389.0" y="239.0" type="line"/>
      <point x="389.0" y="327.0" type="line" smooth="yes"/>
      <point x="389.0" y="429.0"/>
      <point x="332.0" y="486.0"/>
      <point x="230.0" y="486.0" type="curve" smooth="yes"/>
      <point x="164.0" y="486.0"/>
      <point x="95.0" y="463.0"/>
      <point x="49.0" y="426.0" type="curve"/>
      <point x="54.0" y="412.0" type="line"/>
      <point x="99.0" y="447.0"/>
      <point x="162.0" y="468.0"/>
      <point x="224.0" y="468.0" type="curve" smooth="yes"/>
      <point x="321.0" y="468.0"/>
      <point x="374.0" y="416.0"/>
      <point x="374.0" y="322.0" type="curve" smooth="yes"/>
    </contour>
    <contour>
      <point x="193.0" y="-10.0" type="curve" smooth="yes"/>
      <point x="296.0" y="-10.0"/>
      <point x="380.0" y="55.0"/>
      <point x="397.0" y="154.0" type="curve"/>
      <point x="386.0" y="162.0" type="line"/>
      <point x="372.0" y="73.0"/>
      <point x="297.0" y="8.0"/>
      <point x="197.0" y="8.0" type="curve" smooth="yes"/>
      <point x="119.0" y="8.0"/>
      <point x="67.0" y="48.0"/>
      <point x="67.0" y="112.0" type="curve" smooth="yes"/>
      <point x="67.0" y="202.0"/>
      <point x="170.0" y="244.0"/>
      <point x="382.0" y="244.0" type="curve"/>
      <point x="382.0" y="262.0" type="line"/>
      <point x="166.0" y="262.0"/>
      <point x="46.0" y="210.0"/>
      <point x="46.0" y="109.0" type="curve" smooth="yes"/>
      <point x="46.0" y="37.0"/>
      <point x="106.0" y="-10.0"/>
    </contour>
    <contour>
      <point x="601.0" y="-10.0" type="curve" smooth="yes"/>
      <point x="656.0" y="-10.0"/>
      <point x="703.0" y="5.0"/>
      <point x="744.0" y="37.0" type="curve"/>
      <point x="739.0" y="51.0" type="line"/>
      <point x="697.0" y="21.0"/>
      <point x="653.0" y="6.0"/>
      <point x="601.0" y="6.0" type="curve" smooth="yes"/>
      <point x="476.0" y="6.0"/>
      <point x="394.0" y="93.0"/>
      <point x="394.0" y="241.0" type="curve" smooth="yes"/>
      <point x="394.0" y="376.0"/>
      <point x="463.0" y="468.0"/>
      <point x="573.0" y="468.0" type="curve" smooth="yes"/>
      <point x="681.0" y="468.0"/>
      <point x="744.0" y="380.0"/>
      <point x="744.0" y="261.0" type="curve"/>
      <point x="383.0" y="261.0" type="line"/>
      <point x="383.0" y="244.0" type="line"/>
      <point x="764.0" y="244.0" type="line"/>
      <point x="765.0" y="251.0"/>
      <point x="765.0" y="256.0"/>
      <point x="765.0" y="264.0" type="curve" smooth="yes"/>
      <point x="765.0" y="388.0"/>
      <point x="692.0" y="486.0"/>
      <point x="575.0" y="486.0" type="curve" smooth="yes"/>
      <point x="457.0" y="486.0"/>
      <point x="374.0" y="386.0"/>
      <point x="374.0" y="239.0" type="curve" smooth="yes"/>
      <point x="374.0" y="87.0"/>
      <point x="462.0" y="-10.0"/>
    </contour>
  </outline>
</glyph>
<glyph name="eth" format="2">
  <advance width="550"/>
  <unicode hex="00F0"/>
  <outline>
    <contour>
      <point x="273" y="-9" type="curve" smooth="yes"/>
      <point x="396" y="-9"/>
      <point x="471" y="86"/>
      <point x="471" y="249" type="curve" smooth="yes"/>
      <point x="471" y="488"/>
      <point x="346" y="687"/>
      <point x="156" y="744" type="curve"/>
      <point x="150" y="728" type="line"/>
      <point x="337" y="667"/>
      <point x="458" y="471"/>
      <point x="452" y="237" type="curve"/>
      <point x="454" y="317" type="line"/>
      <point x="428" y="400"/>
      <point x="359" y="449"/>
      <point x="269" y="449" type="curve" smooth="yes"/>
      <point x="146" y="449"/>
      <point x="64" y="357"/>
      <point x="64" y="221" type="curve" smooth="yes"/>
      <point x="64" y="83"/>
      <point x="152" y="-9"/>
    </contour>
    <contour>
      <point x="274" y="9" type="curve" smooth="yes"/>
      <point x="165" y="9"/>
      <point x="85" y="94"/>
      <point x="85" y="226" type="curve" smooth="yes"/>
      <point x="85" y="351"/>
      <point x="155" y="431"/>
      <point x="267" y="431" type="curve" smooth="yes"/>
      <point x="376" y="431"/>
      <point x="451" y="355"/>
      <point x="451" y="221" type="curve" smooth="yes"/>
      <point x="451" y="94"/>
      <point x="380" y="9"/>
    </contour>
    <contour>
      <point x="158" y="602" type="line"/>
      <point x="389" y="706" type="line"/>
      <point x="382" y="720" type="line"/>
      <point x="151" y="616" type="line"/>
    </contour>
  </outline>
</glyph>
<glyph name="divide" format="2">
  <advance width="632.0"/>
  <unicode hex="00F7"/>
  <outline>
    <contour>
      <point x="80.0" y="349.0" type="line"/>
      <point x="532.0" y="349.0" type="line"/>
      <point x="532.0" y="366.0" type="line"/>
      <point x="80.0" y="366.0" type="line"/>
    </contour>
    <contour>
      <point x="307.0" y="538.0" type="curve" smooth="yes"/>
      <point x="319.0" y="538.0"/>
      <point x="328.0" y="547.0"/>
      <point x="328.0" y="559.0" type="curve" smooth="yes"/>
      <point x="328.0" y="571.0"/>
      <point x="319.0" y="580.0"/>
      <point x="307.0" y="580.0" type="curve" smooth="yes"/>
      <point x="295.0" y="580.0"/>
      <point x="286.0" y="571.0"/>
      <point x="286.0" y="559.0" type="curve" smooth="yes"/>
      <point x="286.0" y="547.0"/>
      <point x="295.0" y="538.0"/>
    </contour>
    <contour>
      <point x="307.0" y="134.0" type="curve" smooth="yes"/>
      <point x="319.0" y="134.0"/>
      <point x="328.0" y="143.0"/>
      <point x="328.0" y="155.0" type="curve" smooth="yes"/>
      <point x="328.0" y="167.0"/>
      <point x="319.0" y="176.0"/>
      <point x="307.0" y="176.0" type="curve" smooth="yes"/>
      <point x="295.0" y="176.0"/>
      <point x="286.0" y="167.0"/>
      <point x="286.0" y="155.0" type="curve" smooth="yes"/>
      <point x="286.0" y="143.0"/>
      <point x="295.0" y="134.0"/>
    </contour>
  </outline>
</glyph>
<glyph name="oslash" format="2">
  <advance width="535"/>
  <unicode hex="00F8"/>
  <anchor x="268" y="480" name="top"/>
  <outline>
    <contour>
      <point x="268" y="-10" type="curve" smooth="yes"/>
      <point x="393" y="-10"/>
      <point x="478" y="90"/>
      <point x="478" y="240" type="curve" smooth="yes"/>
      <point x="478" y="389"/>
      <point x="394" y="486"/>
      <point x="270" y="486" type="curve" smooth="yes"/>
      <point x="142" y="486"/>
      <point x="57" y="386"/>
      <point x="57" y="237" type="curve" smooth="yes"/>
      <point x="57" y="89"/>
      <point x="141" y="-10"/>
    </contour>
    <contour>
      <point x="270" y="8" type="curve" smooth="yes"/>
      <point x="153" y="8"/>
      <point x="78" y="101"/>
      <point x="78" y="239" type="curve" smooth="yes"/>
      <point x="78" y="374"/>
      <point x="150" y="468"/>
      <point x="265" y="468" type="curve" smooth="yes"/>
      <point x="381" y="468"/>
      <point x="457" y="378"/>
      <point x="457" y="237" type="curve" smooth="yes"/>
      <point x="457" y="97"/>
      <point x="382" y="8"/>
    </contour>
    <contour>
      <point x="89" y="-42" type="line"/>
      <point x="456" y="505" type="line"/>
      <point x="445" y="513" type="line"/>
      <point x="78" y="-34" type="line"/>
    </contour>
  </outline>
</glyph>
<glyph name="thorn" format="2">
  <advance width="535.0"/>
  <unicode hex="00FE"/>
  <outline>
    <contour>
      <point x="88.0" y="-217.0" type="line"/>
      <point x="107.0" y="-217.0" type="line"/>
      <point x="107.0" y="739.0" type="line"/>
      <point x="88.0" y="739.0" type="line"/>
    </contour>
    <contour>
      <point x="268.0" y="-10.0" type="curve" smooth="yes"/>
      <point x="393.0" y="-10.0"/>
      <point x="478.0" y="90.0"/>
      <point x="478.0" y="240.0" type="curve" smooth="yes"/>
      <point x="478.0" y="389.0"/>
      <point x="394.0" y="486.0"/>
      <point x="270.0" y="486.0" type="curve" smooth="yes"/>
      <point x="187.0" y="486.0"/>
      <point x="127.0" y="444.0"/>
      <point x="94.0" y="375.0" type="curve"/>
      <point x="98.0" y="355.0" type="line"/>
      <point x="128.0" y="425.0"/>
      <point x="186.0" y="468.0"/>
      <point x="265.0" y="468.0" type="curve" smooth="yes"/>
      <point x="381.0" y="468.0"/>
      <point x="457.0" y="378.0"/>
      <point x="457.0" y="237.0" type="curve" smooth="yes"/>
      <point x="457.0" y="97.0"/>
      <point x="382.0" y="8.0"/>
      <point x="270.0" y="8.0" type="curve" smooth="yes"/>
      <point x="190.0" y="8.0"/>
      <point x="129.0" y="53.0"/>
      <point x="99.0" y="126.0" type="curve"/>
      <point x="96.0" y="96.0" type="line"/>
      <point x="129.0" y="29.0"/>
      <point x="188.0" y="-10.0"/>
    </contour>
  </outline>
</glyph>
<glyph name="idotless" format="2">
  <advance width="221"/>
  <unicode hex="0131"/>
  <note>
dotlessi
</note>
  <anchor x="110" y="0" name="bottom"/>
  <anchor x="115" y="10" name="ogonek"/>
  <anchor x="112" y="480" name="top"/>
  <outline>
    <contour>
      <point x="100" y="0" type="line"/>
      <point x="121" y="0" type="line"/>
      <point x="121" y="480" type="line"/>
      <point x="100" y="480" type="line"/>
    </contour>
  </outline>
</glyph>
<glyph name="kgreenlandic" format="2">
  <advance width="463"/>
  <unicode hex="0138"/>
  <outline>
    <contour>
      <point x="408" y="0" type="line"/>
      <point x="437" y="0" type="line"/>
      <point x="141" y="267" type="line"/>
      <point x="139" y="249" type="line"/>
      <point x="415" y="480" type="line"/>
      <point x="388" y="480" type="line"/>
      <point x="122" y="257" type="line"/>
    </contour>
    <contour>
      <point x="100" y="0" type="line"/>
      <point x="120" y="0" type="line"/>
      <point x="120" y="480" type="line"/>
      <point x="100" y="480" type="line"/>
    </contour>
  </outline>
</glyph>
<glyph name="Eng" format="2">
  <advance width="729.0"/>
  <unicode hex="014A"/>
  <outline>
    <contour>
      <point x="110.0" y="0.0" type="line"/>
      <point x="130.0" y="0.0" type="line"/>
      <point x="130.0" y="674.0" type="line"/>
      <point x="128.0" y="674.0" type="line"/>
      <point x="599.0" y="-10.0" type="line"/>
      <point x="619.0" y="0.0" type="line"/>
      <point x="619.0" y="694.0" type="line"/>
      <point x="599.0" y="694.0" type="line"/>
      <point x="599.0" y="20.0" type="line"/>
      <point x="603.0" y="20.0" type="line"/>
      <point x="139.0" y="694.0" type="line"/>
      <point x="110.0" y="694.0" type="line"/>
    </contour>
    <contour>
      <point x="513.0" y="-230.0" type="line"/>
      <point x="577.0" y="-200.0"/>
      <point x="619.0" y="-117.0"/>
      <point x="619.0" y="-23.0" type="curve" smooth="yes"/>
      <point x="619.0" y="0.0" type="line"/>
      <point x="598.0" y="0.0" type="line"/>
      <point x="598.0" y="-35.0" type="line" smooth="yes"/>
      <point x="598.0" y="-112.0"/>
      <point x="562.0" y="-186.0"/>
      <point x="508.0" y="-220.0" type="curve"/>
    </contour>
  </outline>
</glyph>
<glyph name="eng" format="2">
  <advance width="550"/>
  <unicode hex="014B"/>
  <outline>
    <contour>
      <point x="437" y="0" type="line"/>
      <point x="458" y="0" type="line"/>
      <point x="458" y="314" type="line" smooth="yes"/>
      <point x="458" y="421"/>
      <point x="398" y="486"/>
      <point x="292" y="486" type="curve" smooth="yes"/>
      <point x="216" y="486"/>
      <point x="146" y="454"/>
      <point x="105" y="399" type="curve"/>
      <point x="114" y="388" type="line"/>
      <point x="148" y="436"/>
      <point x="218" y="468"/>
      <point x="289" y="468" type="curve" smooth="yes"/>
      <point x="384" y="468"/>
      <point x="437" y="411"/>
      <point x="437" y="314" type="curve" smooth="yes"/>
    </contour>
    <contour>
      <point x="352" y="-217" type="line"/>
      <point x="416" y="-187"/>
      <point x="458" y="-110"/>
      <point x="458" y="-23" type="curve" smooth="yes"/>
      <point x="458" y="0" type="line"/>
      <point x="437" y="0" type="line"/>
      <point x="437" y="-35" type="line" smooth="yes"/>
      <point x="437" y="-104"/>
      <point x="401" y="-173"/>
      <point x="347" y="-207" type="curve"/>
    </contour>
    <contour>
      <point x="100" y="0" type="line"/>
      <point x="121" y="0" type="line"/>
      <point x="121" y="399" type="line"/>
      <point x="117" y="480" type="line"/>
      <point x="100" y="480" type="line"/>
    </contour>
  </outline>
</glyph>
<glyph name="OE" format="2">
  <advance width="952.0"/>
  <unicode hex="0152"/>
  <anchor x="533.0" y="0.0" name="bottom"/>
  <anchor x="533.0" y="694.0" name="top"/>
  <outline>
    <contour>
      <point x="426.0" y="-10.0" type="curve" smooth="yes"/>
      <point x="458.0" y="-10.0"/>
      <point x="507.0" y="-6.0"/>
      <point x="538.0" y="0.0" type="curve"/>
      <point x="533.0" y="18.0" type="line"/>
      <point x="506.0" y="12.0"/>
      <point x="458.0" y="9.0"/>
      <point x="428.0" y="9.0" type="curve" smooth="yes"/>
      <point x="227.0" y="9.0"/>
      <point x="93.0" y="145.0"/>
      <point x="93.0" y="346.0" type="curve" smooth="yes"/>
      <point x="93.0" y="547.0"/>
      <point x="227.0" y="680.0"/>
      <point x="426.0" y="680.0" type="curve" smooth="yes"/>
      <point x="454.0" y="680.0"/>
      <point x="501.0" y="677.0"/>
      <point x="528.0" y="672.0" type="curve"/>
      <point x="532.0" y="691.0" type="line"/>
      <point x="504.0" y="696.0"/>
      <point x="458.0" y="699.0"/>
      <point x="430.0" y="699.0" type="curve" smooth="yes"/>
      <point x="215.0" y="699.0"/>
      <point x="71.0" y="555.0"/>
      <point x="71.0" y="343.0" type="curve" smooth="yes"/>
      <point x="71.0" y="131.0"/>
      <point x="214.0" y="-10.0"/>
    </contour>
    <contour>
      <point x="509.0" y="0.0" type="line"/>
      <point x="530.0" y="0.0" type="line"/>
      <point x="530.0" y="694.0" type="line"/>
      <point x="509.0" y="694.0" type="line"/>
    </contour>
    <contour>
      <point x="518.0" y="0.0" type="line"/>
      <point x="903.0" y="0.0" type="line"/>
      <point x="903.0" y="18.0" type="line"/>
      <point x="518.0" y="18.0" type="line"/>
    </contour>
    <contour>
      <point x="518.0" y="351.0" type="line"/>
      <point x="878.0" y="351.0" type="line"/>
      <point x="878.0" y="369.0" type="line"/>
      <point x="518.0" y="369.0" type="line"/>
    </contour>
    <contour>
      <point x="518.0" y="676.0" type="line"/>
      <point x="903.0" y="676.0" type="line"/>
      <point x="903.0" y="694.0" type="line"/>
      <point x="518.0" y="694.0" type="line"/>
    </contour>
  </outline>
</glyph>
<glyph name="oe" format="2">
  <advance width="918"/>
  <unicode hex="0153"/>
  <anchor x="456" y="0" name="bottom"/>
  <anchor x="456" y="480" name="top"/>
  <outline>
    <contour>
      <point x="275" y="-10" type="curve" smooth="yes"/>
      <point x="400" y="-10"/>
      <point x="479" y="90"/>
      <point x="479" y="240" type="curve" smooth="yes"/>
      <point x="479" y="389"/>
      <point x="401" y="486"/>
      <point x="277" y="486" type="curve" smooth="yes"/>
      <point x="149" y="486"/>
      <point x="64" y="386"/>
      <point x="64" y="237" type="curve" smooth="yes"/>
      <point x="64" y="89"/>
      <point x="148" y="-10"/>
    </contour>
    <contour>
      <point x="277" y="8" type="curve" smooth="yes"/>
      <point x="160" y="8"/>
      <point x="85" y="101"/>
      <point x="85" y="239" type="curve" smooth="yes"/>
      <point x="85" y="374"/>
      <point x="157" y="468"/>
      <point x="272" y="468" type="curve" smooth="yes"/>
      <point x="388" y="468"/>
      <point x="464" y="378"/>
      <point x="464" y="237" type="curve" smooth="yes"/>
      <point x="464" y="97"/>
      <point x="389" y="8"/>
    </contour>
    <contour>
      <point x="690" y="-10" type="curve" smooth="yes"/>
      <point x="742" y="-10"/>
      <point x="791" y="3"/>
      <point x="831" y="30" type="curve"/>
      <point x="826" y="44" type="line"/>
      <point x="783" y="19"/>
      <point x="738" y="6"/>
      <point x="692" y="6" type="curve" smooth="yes"/>
      <point x="565" y="6"/>
      <point x="487" y="95"/>
      <point x="487" y="241" type="curve" smooth="yes"/>
      <point x="487" y="382"/>
      <point x="554" y="468"/>
      <point x="664" y="468" type="curve" smooth="yes"/>
      <point x="768" y="468"/>
      <point x="833" y="388"/>
      <point x="833" y="261" type="curve"/>
      <point x="475" y="261" type="line"/>
      <point x="475" y="244" type="line"/>
      <point x="853" y="244" type="line"/>
      <point x="854" y="251"/>
      <point x="854" y="256"/>
      <point x="854" y="264" type="curve" smooth="yes"/>
      <point x="854" y="396"/>
      <point x="778" y="486"/>
      <point x="666" y="486" type="curve" smooth="yes"/>
      <point x="545" y="486"/>
      <point x="468" y="387"/>
      <point x="468" y="239" type="curve" smooth="yes"/>
      <point x="468" y="87"/>
      <point x="553" y="-10"/>
    </contour>
  </outline>
</glyph>
<glyph name="Schwa" format="2">
  <advance width="755.0"/>
  <unicode hex="018F"/>
  <anchor x="369.0" y="0.0" name="bottom"/>
  <anchor x="369.0" y="694.0" name="top"/>
  <outline>
    <contour>
      <point x="328.0" y="704.0" type="curve" smooth="yes"/>
      <point x="245.0" y="704.0"/>
      <point x="174.0" y="681.0"/>
      <point x="106.0" y="633.0" type="curve"/>
      <point x="111.0" y="617.0" type="line"/>
      <point x="180.0" y="663.0"/>
      <point x="249.0" y="685.0"/>
      <point x="326.0" y="685.0" type="curve" smooth="yes"/>
      <point x="521.0" y="685.0"/>
      <point x="642.0" y="558.0"/>
      <point x="642.0" y="342.0" type="curve" smooth="yes"/>
      <point x="642.0" y="140.0"/>
      <point x="537.0" y="9.0"/>
      <point x="366.0" y="9.0" type="curve" smooth="yes"/>
      <point x="202.0" y="9.0"/>
      <point x="105.0" y="130.0"/>
      <point x="105.0" y="321.0" type="curve"/>
      <point x="660.0" y="321.0" type="line"/>
      <point x="660.0" y="340.0" type="line"/>
      <point x="83.0" y="340.0" type="line"/>
      <point x="82.0" y="332.0"/>
      <point x="82.0" y="328.0"/>
      <point x="82.0" y="318.0" type="curve" smooth="yes"/>
      <point x="82.0" y="123.0"/>
      <point x="191.0" y="-10.0"/>
      <point x="364.0" y="-10.0" type="curve" smooth="yes"/>
      <point x="540.0" y="-10.0"/>
      <point x="665.0" y="130.0"/>
      <point x="665.0" y="342.0" type="curve" smooth="yes"/>
      <point x="665.0" y="562.0"/>
      <point x="532.0" y="704.0"/>
    </contour>
  </outline>
</glyph>
<glyph name="florin" format="2">
  <advance width="430.0"/>
  <unicode hex="0192"/>
  <outline>
    <contour>
      <point x="164.0" y="0.0" type="line"/>
      <point x="184.0" y="0.0" type="line"/>
      <point x="184.0" y="636.0" type="line" smooth="yes"/>
      <point x="184.0" y="695.0"/>
      <point x="218.0" y="731.0"/>
      <point x="275.0" y="731.0" type="curve" smooth="yes"/>
      <point x="302.0" y="731.0"/>
      <point x="331.0" y="723.0"/>
      <point x="350.0" y="711.0" type="curve"/>
      <point x="356.0" y="727.0" type="line"/>
      <point x="335.0" y="741.0"/>
      <point x="307.0" y="749.0"/>
      <point x="278.0" y="749.0" type="curve" smooth="yes"/>
      <point x="211.0" y="749.0"/>
      <point x="164.0" y="702.0"/>
      <point x="164.0" y="631.0" type="curve" smooth="yes"/>
    </contour>
    <contour>
      <point x="87.0" y="463.0" type="line"/>
      <point x="338.0" y="463.0" type="line"/>
      <point x="338.0" y="480.0" type="line"/>
      <point x="87.0" y="480.0" type="line"/>
    </contour>
    <contour>
      <point x="78.0" y="-217.0" type="line"/>
      <point x="142.0" y="-187.0"/>
      <point x="184.0" y="-110.0"/>
      <point x="184.0" y="-23.0" type="curve" smooth="yes"/>
      <point x="184.0" y="0.0" type="line"/>
      <point x="164.0" y="0.0" type="line"/>
      <point x="164.0" y="-35.0" type="line" smooth="yes"/>
      <point x="164.0" y="-104.0"/>
      <point x="127.0" y="-173.0"/>
      <point x="73.0" y="-207.0" type="curve"/>
    </contour>
  </outline>
</glyph>
<glyph name="jdotless" format="2">
  <advance width="221"/>
  <unicode hex="0237"/>
  <note>
uni0237
</note>
  <anchor x="110" y="0" name="bottom"/>
  <anchor x="110" y="480" name="top"/>
  <outline>
    <contour>
      <point x="14" y="-219" type="line"/>
      <point x="78" y="-191"/>
      <point x="121" y="-129"/>
      <point x="121" y="-64" type="curve" smooth="yes"/>
      <point x="121" y="480" type="line"/>
      <point x="100" y="480" type="line"/>
      <point x="100" y="-64" type="line" smooth="yes"/>
      <point x="100" y="-122"/>
      <point x="63" y="-178"/>
      <point x="7" y="-206" type="curve"/>
    </contour>
  </outline>
</glyph>
<glyph name="ringhalfright" format="2">
  <advance width="251.0"/>
  <unicode hex="02BE"/>
  <outline>
    <contour>
      <point x="70.0" y="576.0" type="line"/>
      <point x="129.0" y="576.0"/>
      <point x="164.0" y="608.0"/>
      <point x="164.0" y="663.0" type="curve" smooth="yes"/>
      <point x="164.0" y="713.0"/>
      <point x="129.0" y="743.0"/>
      <point x="70.0" y="743.0" type="curve"/>
      <point x="70.0" y="729.0" type="line"/>
      <point x="117.0" y="729.0"/>
      <point x="144.0" y="704.0"/>
      <point x="144.0" y="660.0" type="curve" smooth="yes"/>
      <point x="144.0" y="615.0"/>
      <point x="116.0" y="589.0"/>
      <point x="70.0" y="589.0" type="curve"/>
    </contour>
  </outline>
</glyph>
<glyph name="gravecomb" format="2">
  <unicode hex="0300"/>
  <anchor x="184.0" y="480.0" name="_top"/>
  <anchor x="142.0" y="711.0" name="top"/>
  <anchor x="234.0" y="576.0" name="top_dot"/>
  <outline>
    <contour>
      <point x="180.0" y="577.0" type="line"/>
      <point x="188.0" y="584.0" type="line"/>
      <point x="94.0" y="722.0" type="line"/>
      <point x="76.0" y="709.0" type="line"/>
    </contour>
  </outline>
</glyph>
<glyph name="acutecomb" format="2">
  <unicode hex="0301"/>
  <anchor x="67.0" y="480.0" name="_top"/>
  <anchor x="97.0" y="711.0" name="top"/>
  <anchor x="13.0" y="576.0" name="top_dot"/>
  <outline>
    <contour>
      <point x="68.0" y="577.0" type="line"/>
      <point x="172.0" y="709.0" type="line"/>
      <point x="154.0" y="722.0" type="line"/>
      <point x="60.0" y="584.0" type="line"/>
    </contour>
  </outline>
</glyph>
<glyph name="circumflexcomb" format="2">
  <unicode hex="0302"/>
  <anchor x="171.0" y="480.0" name="_top"/>
  <anchor x="171.0" y="678.0" name="top"/>
  <anchor x="299.0" y="622.0" name="top_viet"/>
  <outline>
    <contour>
      <point x="55.0" y="584.0" type="line"/>
      <point x="61.0" y="578.0" type="line"/>
      <point x="171.0" y="691.0" type="line"/>
      <point x="284.0" y="577.0" type="line"/>
      <point x="296.0" y="588.0" type="line"/>
      <point x="181.0" y="708.0" type="line"/>
      <point x="165.0" y="708.0" type="line"/>
    </contour>
  </outline>
</glyph>
<glyph name="tildecomb" format="2">
  <unicode hex="0303"/>
  <anchor x="235.0" y="480.0" name="_top"/>
  <anchor x="235.0" y="612.0" name="top"/>
  <outline>
    <contour>
      <point x="86.0" y="594.0" type="line"/>
      <point x="110.0" y="639.0"/>
      <point x="145.0" y="650.0"/>
      <point x="169.0" y="650.0" type="curve" smooth="yes"/>
      <point x="223.0" y="650.0"/>
      <point x="237.0" y="592.0"/>
      <point x="302.0" y="592.0" type="curve" smooth="yes"/>
      <point x="344.0" y="592.0"/>
      <point x="380.0" y="622.0"/>
      <point x="397.0" y="669.0" type="curve"/>
      <point x="388.0" y="671.0" type="line"/>
      <point x="372.0" y="632.0"/>
      <point x="342.0" y="608.0"/>
      <point x="309.0" y="608.0" type="curve" smooth="yes"/>
      <point x="249.0" y="608.0"/>
      <point x="234.0" y="666.0"/>
      <point x="174.0" y="666.0" type="curve" smooth="yes"/>
      <point x="141.0" y="666.0"/>
      <point x="100.0" y="647.0"/>
      <point x="78.0" y="597.0" type="curve"/>
    </contour>
  </outline>
</glyph>
<glyph name="macroncomb" format="2">
  <unicode hex="0304"/>
  <anchor x="243.0" y="480.0" name="_top"/>
  <anchor x="243.0" y="598.0" name="top"/>
  <outline>
    <contour>
      <point x="102.0" y="628.0" type="line"/>
      <point x="383.0" y="628.0" type="line"/>
      <point x="383.0" y="643.0" type="line"/>
      <point x="102.0" y="643.0" type="line"/>
    </contour>
  </outline>
</glyph>
<glyph name="brevecomb" format="2">
  <unicode hex="0306"/>
  <anchor x="186.0" y="480.0" name="_top"/>
  <anchor x="186.0" y="665.0" name="top"/>
  <outline>
    <contour>
      <point x="185.0" y="576.0" type="curve" smooth="yes"/>
      <point x="247.0" y="576.0"/>
      <point x="297.0" y="626.0"/>
      <point x="306.0" y="701.0" type="curve"/>
      <point x="296.0" y="707.0" type="line"/>
      <point x="289.0" y="639.0"/>
      <point x="245.0" y="594.0"/>
      <point x="191.0" y="594.0" type="curve" smooth="yes"/>
      <point x="139.0" y="594.0"/>
      <point x="93.0" y="634.0"/>
      <point x="84.0" y="703.0" type="curve"/>
      <point x="67.0" y="697.0" type="line"/>
      <point x="76.0" y="624.0"/>
      <point x="125.0" y="576.0"/>
    </contour>
  </outline>
</glyph>
<glyph name="dotaccentcomb" format="2">
  <unicode hex="0307"/>
  <anchor x="119.0" y="480.0" name="_top"/>
  <anchor x="119.0" y="639.0" name="top"/>
  <outline>
    <contour>
      <point x="119.0" y="627.0" type="curve" smooth="yes"/>
      <point x="131.0" y="627.0"/>
      <point x="140.0" y="636.0"/>
      <point x="140.0" y="648.0" type="curve" smooth="yes"/>
      <point x="140.0" y="660.0"/>
      <point x="131.0" y="669.0"/>
      <point x="119.0" y="669.0" type="curve" smooth="yes"/>
      <point x="107.0" y="669.0"/>
      <point x="98.0" y="660.0"/>
      <point x="98.0" y="648.0" type="curve" smooth="yes"/>
      <point x="98.0" y="636.0"/>
      <point x="107.0" y="627.0"/>
    </contour>
  </outline>
</glyph>
<glyph name="dieresiscomb" format="2">
  <unicode hex="0308"/>
  <anchor x="219.0" y="480.0" name="_top"/>
  <anchor x="219.0" y="639.0" name="top"/>
  <outline>
    <contour>
      <point x="134.0" y="627.0" type="curve" smooth="yes"/>
      <point x="146.0" y="627.0"/>
      <point x="155.0" y="636.0"/>
      <point x="155.0" y="648.0" type="curve" smooth="yes"/>
      <point x="155.0" y="660.0"/>
      <point x="146.0" y="669.0"/>
      <point x="134.0" y="669.0" type="curve" smooth="yes"/>
      <point x="122.0" y="669.0"/>
      <point x="113.0" y="660.0"/>
      <point x="113.0" y="648.0" type="curve" smooth="yes"/>
      <point x="113.0" y="636.0"/>
      <point x="122.0" y="627.0"/>
    </contour>
    <contour>
      <point x="304.0" y="627.0" type="curve" smooth="yes"/>
      <point x="316.0" y="627.0"/>
      <point x="325.0" y="636.0"/>
      <point x="325.0" y="648.0" type="curve" smooth="yes"/>
      <point x="325.0" y="660.0"/>
      <point x="316.0" y="669.0"/>
      <point x="304.0" y="669.0" type="curve" smooth="yes"/>
      <point x="292.0" y="669.0"/>
      <point x="283.0" y="660.0"/>
      <point x="283.0" y="648.0" type="curve" smooth="yes"/>
      <point x="283.0" y="636.0"/>
      <point x="292.0" y="627.0"/>
    </contour>
  </outline>
</glyph>
<glyph name="hookabovecomb" format="2">
  <unicode hex="0309"/>
  <anchor x="152.0" y="480.0" name="_top"/>
  <anchor x="152.0" y="752.0" name="top"/>
  <outline>
    <contour>
      <point x="147.0" y="548.0" type="line"/>
      <point x="205.0" y="577.0"/>
      <point x="241.0" y="624.0"/>
      <point x="241.0" y="669.0" type="curve" smooth="yes"/>
      <point x="241.0" y="712.0"/>
      <point x="207.0" y="744.0"/>
      <point x="156.0" y="744.0" type="curve" smooth="yes"/>
      <point x="122.0" y="744.0"/>
      <point x="90.0" y="734.0"/>
      <point x="55.0" y="712.0" type="curve"/>
      <point x="60.0" y="700.0" type="line"/>
      <point x="90.0" y="717.0"/>
      <point x="124.0" y="727.0"/>
      <point x="153.0" y="727.0" type="curve" smooth="yes"/>
      <point x="193.0" y="727.0"/>
      <point x="221.0" y="700.0"/>
      <point x="221.0" y="664.0" type="curve" smooth="yes"/>
      <point x="221.0" y="625.0"/>
      <point x="189.0" y="582.0"/>
      <point x="143.0" y="558.0" type="curve"/>
    </contour>
  </outline>
</glyph>
<glyph name="ringcomb" format="2">
  <unicode hex="030A"/>
  <anchor x="174.0" y="480.0" name="_top"/>
  <anchor x="174.0" y="745.0" name="top"/>
  <outline>
    <contour>
      <point x="172.0" y="563.0" type="curve" smooth="yes"/>
      <point x="224.0" y="563.0"/>
      <point x="259.0" y="597.0"/>
      <point x="259.0" y="648.0" type="curve" smooth="yes"/>
      <point x="259.0" y="700.0"/>
      <point x="225.0" y="735.0"/>
      <point x="174.0" y="735.0" type="curve" smooth="yes"/>
      <point x="122.0" y="735.0"/>
      <point x="88.0" y="700.0"/>
      <point x="88.0" y="647.0" type="curve" smooth="yes"/>
      <point x="88.0" y="597.0"/>
      <point x="122.0" y="563.0"/>
    </contour>
    <contour>
      <point x="174.0" y="578.0" type="curve" smooth="yes"/>
      <point x="131.0" y="578.0"/>
      <point x="103.0" y="606.0"/>
      <point x="103.0" y="649.0" type="curve" smooth="yes"/>
      <point x="103.0" y="692.0"/>
      <point x="131.0" y="720.0"/>
      <point x="172.0" y="720.0" type="curve" smooth="yes"/>
      <point x="215.0" y="720.0"/>
      <point x="244.0" y="691.0"/>
      <point x="244.0" y="647.0" type="curve" smooth="yes"/>
      <point x="244.0" y="606.0"/>
      <point x="216.0" y="578.0"/>
    </contour>
  </outline>
</glyph>
<glyph name="hungarumlautcomb" format="2">
  <unicode hex="030B"/>
  <anchor x="141.0" y="480.0" name="_top"/>
  <anchor x="141.0" y="749.0" name="top"/>
  <outline>
    <contour>
      <point x="212.0" y="570.0" type="line"/>
      <point x="293.0" y="718.0" type="line"/>
      <point x="273.0" y="727.0" type="line"/>
      <point x="205.0" y="574.0" type="line"/>
    </contour>
    <contour>
      <point x="74.0" y="570.0" type="line"/>
      <point x="155.0" y="718.0" type="line"/>
      <point x="135.0" y="727.0" type="line"/>
      <point x="67.0" y="574.0" type="line"/>
    </contour>
  </outline>
</glyph>
<glyph name="caroncomb" format="2">
  <unicode hex="030C"/>
  <anchor x="183.0" y="480.0" name="_top"/>
  <anchor x="183.0" y="600.0" name="top"/>
  <outline>
    <contour>
      <point x="174.0" y="584.0" type="line"/>
      <point x="189.0" y="584.0" type="line"/>
      <point x="299.0" y="708.0" type="line"/>
      <point x="291.0" y="714.0" type="line"/>
      <point x="182.0" y="601.0" type="line"/>
      <point x="73.0" y="715.0" type="line"/>
      <point x="59.0" y="704.0" type="line"/>
    </contour>
  </outline>
</glyph>
<glyph name="verticallineabovecomb" format="2">
  <unicode hex="030D"/>
  <anchor x="110.0" y="480.0" name="_top"/>
  <anchor x="110.0" y="750.0" name="top"/>
  <outline>
    <contour>
      <point x="119.0" y="745.0" type="line"/>
      <point x="101.0" y="745.0" type="line"/>
      <point x="103.0" y="561.0" type="line"/>
      <point x="117.0" y="561.0" type="line"/>
    </contour>
  </outline>
</glyph>
<glyph name="dblgravecomb" format="2">
  <unicode hex="030F"/>
  <anchor x="252.0" y="480.0" name="_top"/>
  <anchor x="252.0" y="708.0" name="top"/>
  <outline>
    <contour>
      <point x="188.0" y="570.0" type="line"/>
      <point x="195.0" y="574.0" type="line"/>
      <point x="127.0" y="727.0" type="line"/>
      <point x="107.0" y="718.0" type="line"/>
    </contour>
    <contour>
      <point x="326.0" y="570.0" type="line"/>
      <point x="333.0" y="574.0" type="line"/>
      <point x="265.0" y="727.0" type="line"/>
      <point x="245.0" y="718.0" type="line"/>
    </contour>
  </outline>
</glyph>
<glyph name="breveinvertedcomb" format="2">
  <unicode hex="0311"/>
  <anchor x="201.0" y="480.0" name="_top"/>
  <anchor x="201.0" y="713.0" name="top"/>
  <outline>
    <contour>
      <point x="95.0" y="582.0" type="line"/>
      <point x="102.0" y="650.0"/>
      <point x="144.0" y="695.0"/>
      <point x="196.0" y="695.0" type="curve" smooth="yes"/>
      <point x="250.0" y="695.0"/>
      <point x="292.0" y="651.0"/>
      <point x="300.0" y="586.0" type="curve"/>
      <point x="317.0" y="592.0" type="line"/>
      <point x="308.0" y="665.0"/>
      <point x="261.0" y="713.0"/>
      <point x="203.0" y="713.0" type="curve" smooth="yes"/>
      <point x="142.0" y="713.0"/>
      <point x="94.0" y="663.0"/>
      <point x="85.0" y="588.0" type="curve"/>
    </contour>
  </outline>
</glyph>
<glyph name="commaturnedabovecomb" format="2">
  <unicode hex="0312"/>
  <anchor x="104.0" y="480.0" name="_top"/>
  <anchor x="104.0" y="739.0" name="top"/>
  <outline>
    <contour>
      <point x="141.0" y="742.0" type="curve"/>
      <point x="129.0" y="742.0" type="line"/>
      <point x="107.0" y="712.0"/>
      <point x="91.0" y="657.0"/>
      <point x="91.0" y="590.0" type="curve"/>
      <point x="110.0" y="590.0" type="line"/>
      <point x="110.0" y="653.0"/>
      <point x="122.0" y="708.0"/>
    </contour>
  </outline>
</glyph>
<glyph name="horncomb" format="2">
  <unicode hex="031B"/>
  <anchor x="132.0" y="482.0" name="_topright"/>
  <anchor x="134.0" y="482.0" name="topright"/>
  <outline>
    <contour>
      <point x="71.0" y="364.0" type="line"/>
      <point x="151.0" y="364.0"/>
      <point x="200.0" y="410.0"/>
      <point x="200.0" y="489.0" type="curve" smooth="yes"/>
      <point x="200.0" y="523.0"/>
      <point x="191.0" y="559.0"/>
      <point x="176.0" y="580.0" type="curve"/>
      <point x="157.0" y="580.0" type="line"/>
      <point x="171.0" y="558.0"/>
      <point x="181.0" y="522.0"/>
      <point x="181.0" y="490.0" type="curve" smooth="yes"/>
      <point x="181.0" y="421.0"/>
      <point x="140.0" y="380.0"/>
      <point x="71.0" y="379.0" type="curve"/>
    </contour>
  </outline>
</glyph>
<glyph name="dotbelowcomb" format="2">
  <unicode hex="0323"/>
  <anchor x="120.0" y="0.0" name="_bottom"/>
  <anchor x="120.0" y="-143.0" name="bottom"/>
  <outline>
    <contour>
      <point x="120.0" y="-143.0" type="curve" smooth="yes"/>
      <point x="132.0" y="-143.0"/>
      <point x="141.0" y="-134.0"/>
      <point x="141.0" y="-122.0" type="curve" smooth="yes"/>
      <point x="141.0" y="-110.0"/>
      <point x="132.0" y="-101.0"/>
      <point x="120.0" y="-101.0" type="curve" smooth="yes"/>
      <point x="108.0" y="-101.0"/>
      <point x="99.0" y="-110.0"/>
      <point x="99.0" y="-122.0" type="curve" smooth="yes"/>
      <point x="99.0" y="-134.0"/>
      <point x="108.0" y="-143.0"/>
    </contour>
  </outline>
</glyph>
<glyph name="dieresisbelowcomb" format="2">
  <unicode hex="0324"/>
  <anchor x="220.0" y="0.0" name="_bottom"/>
  <anchor x="220.0" y="-143.0" name="bottom"/>
  <outline>
    <contour>
      <point x="120.0" y="-143.0" type="curve" smooth="yes"/>
      <point x="132.0" y="-143.0"/>
      <point x="141.0" y="-134.0"/>
      <point x="141.0" y="-122.0" type="curve" smooth="yes"/>
      <point x="141.0" y="-110.0"/>
      <point x="132.0" y="-101.0"/>
      <point x="120.0" y="-101.0" type="curve" smooth="yes"/>
      <point x="108.0" y="-101.0"/>
      <point x="99.0" y="-110.0"/>
      <point x="99.0" y="-122.0" type="curve" smooth="yes"/>
      <point x="99.0" y="-134.0"/>
      <point x="108.0" y="-143.0"/>
    </contour>
    <contour>
      <point x="320.0" y="-143.0" type="curve" smooth="yes"/>
      <point x="332.0" y="-143.0"/>
      <point x="341.0" y="-134.0"/>
      <point x="341.0" y="-122.0" type="curve" smooth="yes"/>
      <point x="341.0" y="-110.0"/>
      <point x="332.0" y="-101.0"/>
      <point x="320.0" y="-101.0" type="curve" smooth="yes"/>
      <point x="308.0" y="-101.0"/>
      <point x="299.0" y="-110.0"/>
      <point x="299.0" y="-122.0" type="curve" smooth="yes"/>
      <point x="299.0" y="-134.0"/>
      <point x="308.0" y="-143.0"/>
    </contour>
  </outline>
</glyph>
<glyph name="cedillacomb" format="2">
  <unicode hex="0327"/>
  <anchor x="125.0" y="0.0" name="_bottom"/>
  <anchor x="251.0" y="-250.0" name="bottom"/>
  <outline>
    <contour>
      <point x="142.0" y="-243.0" type="curve" smooth="yes"/>
      <point x="205.0" y="-243.0"/>
      <point x="246.0" y="-213.0"/>
      <point x="246.0" y="-164.0" type="curve" smooth="yes"/>
      <point x="246.0" y="-110.0"/>
      <point x="199.0" y="-77.0"/>
      <point x="120.0" y="-73.0" type="curve"/>
      <point x="135.0" y="4.0" type="line"/>
      <point x="119.0" y="4.0" type="line"/>
      <point x="101.0" y="-87.0" type="line"/>
      <point x="181.0" y="-91.0"/>
      <point x="226.0" y="-120.0"/>
      <point x="226.0" y="-165.0" type="curve" smooth="yes"/>
      <point x="226.0" y="-204.0"/>
      <point x="195.0" y="-226.0"/>
      <point x="143.0" y="-226.0" type="curve" smooth="yes"/>
      <point x="114.0" y="-226.0"/>
      <point x="83.0" y="-218.0"/>
      <point x="60.0" y="-207.0" type="curve"/>
      <point x="54.0" y="-223.0" type="line"/>
      <point x="83.0" y="-236.0"/>
      <point x="113.0" y="-243.0"/>
    </contour>
  </outline>
</glyph>
<glyph name="ogonekcomb" format="2">
  <unicode hex="0328"/>
  <anchor x="401.0" y="10.0" name="_ogonek"/>
  <outline>
    <contour>
      <point x="350.0" y="-243.0" type="curve" smooth="yes"/>
      <point x="372.0" y="-243.0"/>
      <point x="396.0" y="-238.0"/>
      <point x="413.0" y="-230.0" type="curve"/>
      <point x="410.0" y="-215.0" type="line"/>
      <point x="392.0" y="-222.0"/>
      <point x="374.0" y="-226.0"/>
      <point x="356.0" y="-226.0" type="curve" smooth="yes"/>
      <point x="307.0" y="-226.0"/>
      <point x="274.0" y="-195.0"/>
      <point x="274.0" y="-148.0" type="curve" smooth="yes"/>
      <point x="274.0" y="-92.0"/>
      <point x="323.0" y="-38.0"/>
      <point x="407.0" y="0.0" type="curve"/>
      <point x="398.0" y="11.0" type="line"/>
      <point x="308.0" y="-28.0"/>
      <point x="253.0" y="-89.0"/>
      <point x="253.0" y="-152.0" type="curve" smooth="yes"/>
      <point x="253.0" y="-207.0"/>
      <point x="292.0" y="-243.0"/>
    </contour>
  </outline>
</glyph>
<glyph name="verticallinebelowcomb" format="2">
  <unicode hex="0329"/>
  <anchor x="110.0" y="0.0" name="_bottom"/>
  <anchor x="110.0" y="-227.0" name="bottom"/>
  <outline>
    <contour>
      <point x="101.0" y="-227.0" type="line"/>
      <point x="119.0" y="-227.0" type="line"/>
      <point x="117.0" y="-43.0" type="line"/>
      <point x="103.0" y="-43.0" type="line"/>
    </contour>
  </outline>
</glyph>
<glyph name="brevebelowcomb" format="2">
  <unicode hex="032E"/>
  <anchor x="206.0" y="0.0" name="_bottom"/>
  <anchor x="206.0" y="-174.0" name="bottom"/>
  <outline>
    <contour>
      <point x="208.0" y="-174.0" type="curve" smooth="yes"/>
      <point x="269.0" y="-174.0"/>
      <point x="318.0" y="-134.0"/>
      <point x="340.0" y="-64.0" type="curve"/>
      <point x="330.0" y="-60.0" type="line"/>
      <point x="310.0" y="-121.0"/>
      <point x="265.0" y="-157.0"/>
      <point x="212.0" y="-157.0" type="curve" smooth="yes"/>
      <point x="160.0" y="-157.0"/>
      <point x="120.0" y="-124.0"/>
      <point x="96.0" y="-62.0" type="curve"/>
      <point x="79.0" y="-69.0" type="line"/>
      <point x="102.0" y="-136.0"/>
      <point x="149.0" y="-174.0"/>
    </contour>
  </outline>
</glyph>
<glyph name="macronbelowcomb" format="2">
  <unicode hex="0331"/>
  <anchor x="250.0" y="0.0" name="_bottom"/>
  <anchor x="250.0" y="-125.0" name="bottom"/>
  <outline>
    <contour>
      <point x="114.0" y="-125.0" type="line"/>
      <point x="385.0" y="-125.0" type="line"/>
      <point x="385.0" y="-110.0" type="line"/>
      <point x="114.0" y="-110.0" type="line"/>
    </contour>
  </outline>
</glyph>
<glyph name="strokeshortcomb" format="2">
  <unicode hex="0335"/>
  <anchor x="241.0" y="299.0" name="_center"/>
  <outline>
    <contour>
      <point x="127.0" y="291.0" type="line"/>
      <point x="354.0" y="291.0" type="line"/>
      <point x="354.0" y="307.0" type="line"/>
      <point x="127.0" y="307.0" type="line"/>
    </contour>
  </outline>
</glyph>
<glyph name="strokelongcomb" format="2">
  <unicode hex="0336"/>
  <anchor x="460.0" y="342.0" name="_center"/>
  <outline>
    <contour>
      <point x="103.0" y="335.0" type="line"/>
      <point x="816.0" y="335.0" type="line"/>
      <point x="816.0" y="351.0" type="line"/>
      <point x="103.0" y="351.0" type="line"/>
    </contour>
  </outline>
</glyph>
<glyph name="slashshortcomb" format="2">
  <unicode hex="0337"/>
  <anchor x="202.0" y="296.0" name="_center"/>
  <outline>
    <contour>
      <point x="101.0" y="230.0" type="line"/>
      <point x="317.0" y="351.0" type="line"/>
      <point x="308.0" y="365.0" type="line"/>
      <point x="93.0" y="243.0" type="line"/>
    </contour>
  </outline>
</glyph>
<glyph name="slashlongcomb" format="2">
  <unicode hex="0338"/>
  <anchor x="236.0" y="244.0" name="_center"/>
  <outline>
    <contour>
      <point x="56.0" y="-38.0" type="line"/>
      <point x="423.0" y="509.0" type="line"/>
      <point x="412.0" y="517.0" type="line"/>
      <point x="45.0" y="-30.0" type="line"/>
    </contour>
  </outline>
</glyph>
<glyph name="ypogegrammeni" format="2">
  <advance width="443"/>
  <unicode hex="037A"/>
  <anchor x="208" y="0" name="_bottom"/>
  <outline>
    <contour>
      <point x="199" y="-90" type="line"/>
      <point x="199" y="-173" type="line" smooth="yes"/>
      <point x="199" y="-205"/>
      <point x="217" y="-220"/>
      <point x="241" y="-220" type="curve" smooth="yes"/>
      <point x="252" y="-220"/>
      <point x="263" y="-217"/>
      <point x="274" y="-212" type="curve"/>
      <point x="270" y="-199" type="line"/>
      <point x="263" y="-202"/>
      <point x="253" y="-205"/>
      <point x="245" y="-205" type="curve" smooth="yes"/>
      <point x="227" y="-205"/>
      <point x="218" y="-194"/>
      <point x="218" y="-167" type="curve" smooth="yes"/>
      <point x="218" y="-90" type="line"/>
    </contour>
  </outline>
</glyph>
<glyph name="tonos" format="2">
  <advance width="223"/>
  <unicode hex="0384"/>
  <anchor x="93" y="480" name="_top"/>
  <outline>
    <contour>
      <point x="101" y="572" type="line"/>
      <point x="146" y="732" type="line"/>
      <point x="123" y="736" type="line"/>
      <point x="90" y="574" type="line"/>
    </contour>
  </outline>
</glyph>
<glyph name="dieresistonos" format="2">
  <advance width="438"/>
  <unicode hex="0385"/>
  <anchor x="202" y="480" name="_top"/>
  <outline>
    <contour>
      <point x="134" y="627" type="curve" smooth="yes"/>
      <point x="146" y="627"/>
      <point x="155" y="636"/>
      <point x="155" y="648" type="curve" smooth="yes"/>
      <point x="155" y="660"/>
      <point x="146" y="669"/>
      <point x="134" y="669" type="curve" smooth="yes"/>
      <point x="122" y="669"/>
      <point x="113" y="660"/>
      <point x="113" y="648" type="curve" smooth="yes"/>
      <point x="113" y="636"/>
      <point x="122" y="627"/>
    </contour>
    <contour>
      <point x="208" y="572" type="line"/>
      <point x="249" y="732" type="line"/>
      <point x="226" y="736" type="line"/>
      <point x="197" y="574" type="line"/>
    </contour>
    <contour>
      <point x="304" y="627" type="curve" smooth="yes"/>
      <point x="316" y="627"/>
      <point x="325" y="636"/>
      <point x="325" y="648" type="curve" smooth="yes"/>
      <point x="325" y="660"/>
      <point x="316" y="669"/>
      <point x="304" y="669" type="curve" smooth="yes"/>
      <point x="292" y="669"/>
      <point x="283" y="660"/>
      <point x="283" y="648" type="curve" smooth="yes"/>
      <point x="283" y="636"/>
      <point x="292" y="627"/>
    </contour>
  </outline>
</glyph>
<glyph name="Delta" format="2">
  <advance width="633"/>
  <unicode hex="0394"/>
  <anchor x="322" y="0" name="bottom"/>
  <anchor x="325" y="694" name="top"/>
  <outline>
    <contour>
      <point x="49" y="0" type="line"/>
      <point x="65" y="0" type="line"/>
      <point x="325" y="676" type="line"/>
      <point x="321" y="676" type="line"/>
      <point x="564" y="0" type="line"/>
      <point x="583" y="0" type="line"/>
      <point x="583" y="15" type="line"/>
      <point x="336" y="694" type="line"/>
      <point x="313" y="694" type="line"/>
      <point x="49" y="16" type="line"/>
    </contour>
    <contour>
      <point x="60" y="0" type="line"/>
      <point x="569" y="0" type="line"/>
      <point x="569" y="18" type="line"/>
      <point x="60" y="18" type="line"/>
    </contour>
  </outline>
</glyph>
<glyph name="Theta" format="2">
  <advance width="754"/>
  <unicode hex="0398"/>
  <anchor x="378" y="0" name="bottom"/>
  <anchor x="378" y="694" name="top"/>
  <outline>
    <contour>
      <point x="193" y="342" type="line"/>
      <point x="560" y="342" type="line"/>
      <point x="560" y="361" type="line"/>
      <point x="193" y="361" type="line"/>
    </contour>
    <component base="O"/>
  </outline>
</glyph>
<glyph name="Lambda" format="2">
  <advance width="634"/>
  <unicode hex="039B"/>
  <anchor x="323" y="0" name="bottom"/>
  <anchor x="326" y="694" name="top"/>
  <outline>
    <contour>
      <point x="44" y="0" type="line"/>
      <point x="66" y="0" type="line"/>
      <point x="326" y="676" type="line"/>
      <point x="322" y="676" type="line"/>
      <point x="565" y="0" type="line"/>
      <point x="589" y="0" type="line"/>
      <point x="337" y="694" type="line"/>
      <point x="314" y="694" type="line"/>
    </contour>
  </outline>
</glyph>
<glyph name="Xi" format="2">
  <advance width="551"/>
  <unicode hex="039E"/>
  <outline>
    <contour>
      <point x="50" y="0" type="line"/>
      <point x="489" y="0" type="line"/>
      <point x="489" y="18" type="line"/>
      <point x="50" y="18" type="line"/>
    </contour>
    <contour>
      <point x="90" y="355" type="line"/>
      <point x="443" y="355" type="line"/>
      <point x="443" y="373" type="line"/>
      <point x="90" y="373" type="line"/>
    </contour>
    <contour>
      <point x="50" y="676" type="line"/>
      <point x="489" y="676" type="line"/>
      <point x="489" y="694" type="line"/>
      <point x="50" y="694" type="line"/>
    </contour>
  </outline>
</glyph>
<glyph name="Sigma" format="2">
  <advance width="558"/>
  <unicode hex="03A3"/>
  <outline>
    <contour>
      <point x="340" y="361" type="line"/>
      <point x="80" y="682" type="line"/>
      <point x="80" y="676" type="line"/>
      <point x="502" y="676" type="line"/>
      <point x="502" y="694" type="line"/>
      <point x="57" y="694" type="line"/>
      <point x="57" y="678" type="line"/>
      <point x="323" y="348" type="line"/>
      <point x="323" y="372" type="line"/>
      <point x="49" y="16" type="line"/>
      <point x="49" y="0" type="line"/>
      <point x="514" y="0" type="line"/>
      <point x="514" y="18" type="line"/>
      <point x="71" y="18" type="line"/>
      <point x="71" y="12" type="line"/>
    </contour>
  </outline>
</glyph>
<glyph name="Phi" format="2">
  <advance width="788"/>
  <unicode hex="03A6"/>
  <outline>
    <contour>
      <point x="392" y="87" type="curve" smooth="yes"/>
      <point x="596" y="87"/>
      <point x="727" y="187"/>
      <point x="727" y="349" type="curve" smooth="yes"/>
      <point x="727" y="508"/>
      <point x="591" y="609"/>
      <point x="393" y="609" type="curve" smooth="yes"/>
      <point x="191" y="609"/>
      <point x="61" y="508"/>
      <point x="61" y="344" type="curve" smooth="yes"/>
      <point x="61" y="187"/>
      <point x="196" y="87"/>
    </contour>
    <contour>
      <point x="395" y="106" type="curve" smooth="yes"/>
      <point x="211" y="106"/>
      <point x="83" y="197"/>
      <point x="83" y="347" type="curve" smooth="yes"/>
      <point x="83" y="498"/>
      <point x="203" y="590"/>
      <point x="389" y="590" type="curve" smooth="yes"/>
      <point x="576" y="590"/>
      <point x="705" y="498"/>
      <point x="705" y="346" type="curve" smooth="yes"/>
      <point x="705" y="197"/>
      <point x="584" y="106"/>
    </contour>
    <contour>
      <point x="381" y="-10" type="line"/>
      <point x="403" y="-10" type="line"/>
      <point x="403" y="704" type="line"/>
      <point x="381" y="704" type="line"/>
    </contour>
  </outline>
</glyph>
<glyph name="Psi" format="2">
  <advance width="768"/>
  <unicode hex="03A8"/>
  <anchor x="384" y="0" name="bottom"/>
  <anchor x="384" y="694" name="top"/>
  <outline>
    <contour>
      <point x="376" y="220" type="curve"/>
      <point x="378" y="239" type="line"/>
      <point x="210" y="239"/>
      <point x="96" y="329"/>
      <point x="96" y="486" type="curve" smooth="yes"/>
      <point x="96" y="694" type="line"/>
      <point x="74" y="694" type="line"/>
      <point x="74" y="482" type="line" smooth="yes"/>
      <point x="74" y="319"/>
      <point x="196" y="220"/>
    </contour>
    <contour>
      <point x="390" y="220" type="line"/>
      <point x="583" y="220"/>
      <point x="694" y="316"/>
      <point x="694" y="480" type="curve" smooth="yes"/>
      <point x="694" y="694" type="line"/>
      <point x="672" y="694" type="line"/>
      <point x="672" y="477" type="line" smooth="yes"/>
      <point x="672" y="326"/>
      <point x="568" y="239"/>
      <point x="392" y="239" type="curve"/>
    </contour>
    <contour>
      <point x="373" y="0" type="line"/>
      <point x="395" y="0" type="line"/>
      <point x="395" y="694" type="line"/>
      <point x="373" y="694" type="line"/>
    </contour>
  </outline>
</glyph>
<glyph name="Omega" format="2">
  <advance width="763"/>
  <unicode hex="03A9"/>
  <anchor x="378" y="0" name="bottom"/>
  <anchor x="377" y="694" name="top"/>
  <anchor x="42" y="694" name="topleft"/>
  <outline>
    <contour>
      <point x="378" y="703" type="curve" smooth="yes"/>
      <point x="182" y="703"/>
      <point x="71" y="556"/>
      <point x="71" y="377" type="curve" smooth="yes"/>
      <point x="71" y="221"/>
      <point x="163" y="83"/>
      <point x="295" y="10" type="curve"/>
      <point x="295" y="19" type="line"/>
      <point x="58" y="19" type="line"/>
      <point x="58" y="0" type="line"/>
      <point x="320" y="0" type="line"/>
      <point x="320" y="16" type="line"/>
      <point x="190" y="89"/>
      <point x="93" y="223"/>
      <point x="93" y="376" type="curve" smooth="yes"/>
      <point x="93" y="549"/>
      <point x="194" y="684"/>
      <point x="375" y="684" type="curve" smooth="yes"/>
      <point x="562" y="684"/>
      <point x="663" y="550"/>
      <point x="663" y="382" type="curve" smooth="yes"/>
      <point x="663" y="232"/>
      <point x="567" y="94"/>
      <point x="438" y="16" type="curve"/>
      <point x="438" y="0" type="line"/>
      <point x="701" y="0" type="line"/>
      <point x="701" y="19" type="line"/>
      <point x="464" y="19" type="line"/>
      <point x="464" y="11" type="line"/>
      <point x="586" y="83"/>
      <point x="685" y="230"/>
      <point x="685" y="384" type="curve" smooth="yes"/>
      <point x="685" y="559"/>
      <point x="570" y="703"/>
    </contour>
  </outline>
</glyph>
<glyph name="alpha" format="2">
  <advance width="589"/>
  <unicode hex="03B1"/>
  <anchor x="225" y="0" name="bottom"/>
  <anchor x="244" y="480" name="top"/>
  <outline>
    <contour>
      <point x="222" y="-7" type="curve" smooth="yes"/>
      <point x="328" y="-7"/>
      <point x="385" y="96"/>
      <point x="418" y="188" type="curve"/>
      <point x="407" y="200" type="line"/>
      <point x="371" y="106"/>
      <point x="320" y="11"/>
      <point x="224" y="11" type="curve" smooth="yes"/>
      <point x="134" y="11"/>
      <point x="78" y="97"/>
      <point x="78" y="240" type="curve" smooth="yes"/>
      <point x="78" y="379"/>
      <point x="135" y="468"/>
      <point x="229" y="468" type="curve" smooth="yes"/>
      <point x="340" y="468"/>
      <point x="367" y="331"/>
      <point x="389" y="253" type="curve" smooth="yes"/>
      <point x="427" y="119" type="line" smooth="yes"/>
      <point x="448" y="46"/>
      <point x="466" y="-3"/>
      <point x="519" y="-3" type="curve" smooth="yes"/>
      <point x="540" y="-3"/>
      <point x="559" y="5"/>
      <point x="573" y="14" type="curve"/>
      <point x="567" y="27" type="line"/>
      <point x="557" y="21"/>
      <point x="540" y="13"/>
      <point x="523" y="13" type="curve" smooth="yes"/>
      <point x="478" y="13"/>
      <point x="463" y="60"/>
      <point x="445" y="125" type="curve" smooth="yes"/>
      <point x="408" y="258" type="line" smooth="yes"/>
      <point x="383" y="348"/>
      <point x="350" y="486"/>
      <point x="230" y="486" type="curve" smooth="yes"/>
      <point x="123" y="486"/>
      <point x="57" y="391"/>
      <point x="57" y="238" type="curve" smooth="yes"/>
      <point x="57" y="85"/>
      <point x="122" y="-7"/>
    </contour>
    <contour>
      <point x="423" y="190" type="line"/>
      <point x="521" y="480" type="line"/>
      <point x="499" y="480" type="line"/>
      <point x="411" y="202" type="line"/>
    </contour>
  </outline>
</glyph>
<glyph name="beta" format="2">
  <advance width="554"/>
  <unicode hex="03B2"/>
  <outline>
    <contour>
      <point x="320" y="8" type="curve" smooth="yes"/>
      <point x="231" y="8"/>
      <point x="161" y="64"/>
      <point x="112" y="130" type="curve"/>
      <point x="105" y="108" type="line"/>
      <point x="160" y="42"/>
      <point x="225" y="-10"/>
      <point x="321" y="-10" type="curve" smooth="yes"/>
      <point x="427" y="-10"/>
      <point x="497" y="65"/>
      <point x="497" y="193" type="curve" smooth="yes"/>
      <point x="497" y="318"/>
      <point x="393" y="396"/>
      <point x="284" y="396" type="curve"/>
      <point x="283" y="393" type="line"/>
      <point x="371" y="396"/>
      <point x="447" y="475"/>
      <point x="447" y="574" type="curve" smooth="yes"/>
      <point x="447" y="672"/>
      <point x="390" y="749"/>
      <point x="281" y="749" type="curve" smooth="yes"/>
      <point x="156" y="749"/>
      <point x="97" y="661"/>
      <point x="97" y="520" type="curve" smooth="yes"/>
      <point x="97" y="-217" type="line"/>
      <point x="118" y="-217" type="line"/>
      <point x="118" y="524" type="line" smooth="yes"/>
      <point x="118" y="652"/>
      <point x="169" y="731"/>
      <point x="279" y="731" type="curve" smooth="yes"/>
      <point x="376" y="731"/>
      <point x="426" y="662"/>
      <point x="426" y="572" type="curve" smooth="yes"/>
      <point x="426" y="478"/>
      <point x="350" y="402"/>
      <point x="261" y="402" type="curve" smooth="yes"/>
      <point x="202" y="402" type="line"/>
      <point x="202" y="385" type="line"/>
      <point x="264" y="385" type="line" smooth="yes"/>
      <point x="376" y="385"/>
      <point x="476" y="315"/>
      <point x="476" y="191" type="curve" smooth="yes"/>
      <point x="476" y="77"/>
      <point x="413" y="8"/>
    </contour>
  </outline>
</glyph>
<glyph name="gamma" format="2">
  <advance width="458"/>
  <unicode hex="03B3"/>
  <outline>
    <contour>
      <point x="227" y="-4" type="line"/>
      <point x="246" y="-2" type="line"/>
      <point x="303" y="124" type="line" smooth="yes"/>
      <point x="365" y="261"/>
      <point x="416" y="371"/>
      <point x="416" y="480" type="curve"/>
      <point x="395" y="480" type="line"/>
      <point x="395" y="374"/>
      <point x="344" y="262"/>
      <point x="287" y="134" type="curve" smooth="yes"/>
      <point x="232" y="10" type="line"/>
      <point x="241" y="10" type="line"/>
      <point x="50" y="480" type="line"/>
      <point x="27" y="480" type="line"/>
    </contour>
    <contour>
      <point x="225" y="-217" type="line"/>
      <point x="249" y="-217" type="line"/>
      <point x="246" y="-2" type="line"/>
      <point x="227" y="-4" type="line"/>
    </contour>
  </outline>
</glyph>
<glyph name="delta" format="2">
  <advance width="533"/>
  <unicode hex="03B4"/>
  <outline>
    <contour>
      <point x="457" y="688" type="line"/>
      <point x="404" y="719"/>
      <point x="330" y="749"/>
      <point x="254" y="749" type="curve" smooth="yes"/>
      <point x="164" y="749"/>
      <point x="111" y="706"/>
      <point x="111" y="640" type="curve" smooth="yes"/>
      <point x="111" y="574"/>
      <point x="164" y="523"/>
      <point x="263" y="459" type="curve" smooth="yes"/>
      <point x="379" y="383"/>
      <point x="455" y="311"/>
      <point x="455" y="192" type="curve" smooth="yes"/>
      <point x="455" y="87"/>
      <point x="384" y="8"/>
      <point x="266" y="8" type="curve" smooth="yes"/>
      <point x="154" y="8"/>
      <point x="78" y="92"/>
      <point x="78" y="197" type="curve" smooth="yes"/>
      <point x="78" y="297"/>
      <point x="148" y="391"/>
      <point x="274" y="461" type="curve"/>
      <point x="261" y="471" type="line"/>
      <point x="136" y="403"/>
      <point x="57" y="308"/>
      <point x="57" y="194" type="curve" smooth="yes"/>
      <point x="57" y="78"/>
      <point x="141" y="-10"/>
      <point x="264" y="-10" type="curve" smooth="yes"/>
      <point x="394" y="-10"/>
      <point x="476" y="77"/>
      <point x="476" y="195" type="curve" smooth="yes"/>
      <point x="476" y="317"/>
      <point x="397" y="396"/>
      <point x="276" y="473" type="curve" smooth="yes"/>
      <point x="178" y="535"/>
      <point x="132" y="584"/>
      <point x="132" y="643" type="curve" smooth="yes"/>
      <point x="132" y="696"/>
      <point x="180" y="731"/>
      <point x="256" y="731" type="curve" smooth="yes"/>
      <point x="324" y="731"/>
      <point x="400" y="703"/>
      <point x="451" y="674" type="curve"/>
    </contour>
  </outline>
</glyph>
<glyph name="epsilon" format="2">
  <advance width="447"/>
  <unicode hex="03B5"/>
  <anchor x="237" y="0" name="bottom"/>
  <anchor x="222" y="480" name="top"/>
  <outline>
    <contour>
      <point x="234" y="-7" type="curve" smooth="yes"/>
      <point x="303" y="-7"/>
      <point x="372" y="15"/>
      <point x="425" y="42" type="curve"/>
      <point x="420" y="56" type="line"/>
      <point x="368" y="32"/>
      <point x="298" y="11"/>
      <point x="240" y="11" type="curve" smooth="yes"/>
      <point x="134" y="11"/>
      <point x="69" y="53"/>
      <point x="69" y="127" type="curve" smooth="yes"/>
      <point x="69" y="199"/>
      <point x="143" y="244"/>
      <point x="242" y="244" type="curve" smooth="yes"/>
      <point x="320" y="244" type="line"/>
      <point x="320" y="261" type="line"/>
      <point x="246" y="261" type="line" smooth="yes"/>
      <point x="148" y="261"/>
      <point x="86" y="300"/>
      <point x="86" y="364" type="curve" smooth="yes"/>
      <point x="86" y="430"/>
      <point x="144" y="468"/>
      <point x="237" y="468" type="curve" smooth="yes"/>
      <point x="287" y="468"/>
      <point x="336" y="457"/>
      <point x="390" y="436" type="curve"/>
      <point x="394" y="450" type="line"/>
      <point x="337" y="475"/>
      <point x="283" y="486"/>
      <point x="235" y="486" type="curve" smooth="yes"/>
      <point x="131" y="486"/>
      <point x="66" y="438"/>
      <point x="66" y="366" type="curve" smooth="yes"/>
      <point x="66" y="298"/>
      <point x="126" y="251"/>
      <point x="211" y="250" type="curve"/>
      <point x="213" y="255" type="line"/>
      <point x="124" y="256"/>
      <point x="49" y="206"/>
      <point x="49" y="124" type="curve" smooth="yes"/>
      <point x="49" y="45"/>
      <point x="120" y="-7"/>
    </contour>
  </outline>
</glyph>
<glyph name="zeta" format="2">
  <advance width="379"/>
  <unicode hex="03B6"/>
  <outline>
    <contour>
      <point x="82" y="221" type="curve" smooth="yes"/>
      <point x="82" y="319"/>
      <point x="162" y="416"/>
      <point x="266" y="546" type="curve" smooth="yes"/>
      <point x="409" y="724" type="line"/>
      <point x="409" y="739" type="line"/>
      <point x="52" y="739" type="line"/>
      <point x="52" y="722" type="line"/>
      <point x="398" y="722" type="line"/>
      <point x="391" y="731" type="line"/>
      <point x="250" y="556" type="line" smooth="yes"/>
      <point x="138" y="417"/>
      <point x="61" y="321"/>
      <point x="61" y="217" type="curve" smooth="yes"/>
      <point x="61" y="126"/>
      <point x="125" y="82"/>
      <point x="230" y="36" type="curve" smooth="yes"/>
      <point x="317" y="-2"/>
      <point x="375" y="-30"/>
      <point x="375" y="-83" type="curve" smooth="yes"/>
      <point x="375" y="-122"/>
      <point x="338" y="-169"/>
      <point x="306" y="-207" type="curve"/>
      <point x="319" y="-219" type="line"/>
      <point x="357" y="-175"/>
      <point x="396" y="-127"/>
      <point x="396" y="-79" type="curve" smooth="yes"/>
      <point x="396" y="-21"/>
      <point x="337" y="11"/>
      <point x="239" y="53" type="curve" smooth="yes"/>
      <point x="142" y="95"/>
      <point x="82" y="137"/>
    </contour>
  </outline>
</glyph>
<glyph name="eta" format="2">
  <advance width="523"/>
  <unicode hex="03B7"/>
  <anchor x="98" y="0" name="bottom"/>
  <anchor x="262" y="480" name="top"/>
  <outline>
    <contour>
      <point x="88" y="0" type="line"/>
      <point x="109" y="0" type="line"/>
      <point x="109" y="399" type="line"/>
      <point x="105" y="480" type="line"/>
      <point x="88" y="480" type="line"/>
    </contour>
    <contour>
      <point x="423" y="-217" type="line"/>
      <point x="444" y="-217" type="line"/>
      <point x="444" y="314" type="line" smooth="yes"/>
      <point x="444" y="421"/>
      <point x="386" y="486"/>
      <point x="280" y="486" type="curve" smooth="yes"/>
      <point x="204" y="486"/>
      <point x="134" y="454"/>
      <point x="93" y="399" type="curve"/>
      <point x="102" y="388" type="line"/>
      <point x="136" y="436"/>
      <point x="206" y="468"/>
      <point x="277" y="468" type="curve" smooth="yes"/>
      <point x="372" y="468"/>
      <point x="423" y="411"/>
      <point x="423" y="314" type="curve" smooth="yes"/>
    </contour>
  </outline>
</glyph>
<glyph name="theta" format="2">
  <advance width="558"/>
  <unicode hex="03B8"/>
  <outline>
    <contour>
      <point x="277" y="-10" type="curve" smooth="yes"/>
      <point x="425" y="-10"/>
      <point x="496" y="129"/>
      <point x="496" y="374" type="curve" smooth="yes"/>
      <point x="496" y="609"/>
      <point x="427" y="749"/>
      <point x="279" y="749" type="curve" smooth="yes"/>
      <point x="131" y="749"/>
      <point x="62" y="612"/>
      <point x="62" y="367" type="curve" smooth="yes"/>
      <point x="62" y="132"/>
      <point x="129" y="-10"/>
    </contour>
    <contour>
      <point x="279" y="8" type="curve" smooth="yes"/>
      <point x="145" y="8"/>
      <point x="83" y="145"/>
      <point x="83" y="371" type="curve" smooth="yes"/>
      <point x="83" y="596"/>
      <point x="143" y="731"/>
      <point x="277" y="731" type="curve" smooth="yes"/>
      <point x="411" y="731"/>
      <point x="475" y="594"/>
      <point x="475" y="369" type="curve" smooth="yes"/>
      <point x="475" y="145"/>
      <point x="413" y="8"/>
    </contour>
    <contour>
      <point x="72" y="369" type="line"/>
      <point x="485" y="369" type="line"/>
      <point x="485" y="386" type="line"/>
      <point x="72" y="386" type="line"/>
    </contour>
  </outline>
</glyph>
<glyph name="iota" format="2">
  <advance width="233"/>
  <unicode hex="03B9"/>
  <anchor x="137" y="0" name="bottom"/>
  <anchor x="97" y="480" name="top"/>
  <outline>
    <contour>
      <point x="164" y="-2" type="curve" smooth="yes"/>
      <point x="181" y="-2"/>
      <point x="199" y="2"/>
      <point x="213" y="8" type="curve"/>
      <point x="208" y="22" type="line"/>
      <point x="197" y="17"/>
      <point x="182" y="14"/>
      <point x="169" y="14" type="curve" smooth="yes"/>
      <point x="130" y="14"/>
      <point x="107" y="43"/>
      <point x="107" y="87" type="curve" smooth="yes"/>
      <point x="107" y="480" type="line"/>
      <point x="86" y="480" type="line"/>
      <point x="86" y="83" type="line" smooth="yes"/>
      <point x="86" y="31"/>
      <point x="116" y="-2"/>
    </contour>
  </outline>
</glyph>
<glyph name="kappa" format="2">
  <advance width="456"/>
  <unicode hex="03BA"/>
  <outline>
    <contour>
      <point x="88" y="0" type="line"/>
      <point x="109" y="0" type="line"/>
      <point x="109" y="480" type="line"/>
      <point x="88" y="480" type="line"/>
    </contour>
    <contour>
      <point x="214" y="296" type="line"/>
      <point x="203" y="279" type="line"/>
      <point x="410" y="0" type="line"/>
      <point x="437" y="0" type="line"/>
    </contour>
    <contour>
      <point x="203" y="298" type="curve" smooth="yes"/>
      <point x="101" y="160" type="line"/>
      <point x="101" y="131" type="line"/>
      <point x="217" y="287" type="line" smooth="yes"/>
      <point x="295" y="392"/>
      <point x="355" y="470"/>
      <point x="408" y="470" type="curve" smooth="yes"/>
      <point x="415" y="470"/>
      <point x="423" y="469"/>
      <point x="434" y="466" type="curve"/>
      <point x="439" y="482" type="line"/>
      <point x="426" y="486"/>
      <point x="418" y="488"/>
      <point x="407" y="488" type="curve" smooth="yes"/>
      <point x="343" y="488"/>
      <point x="283" y="406"/>
    </contour>
  </outline>
</glyph>
<glyph name="lambda" format="2">
  <advance width="441"/>
  <unicode hex="03BB"/>
  <outline>
    <contour>
      <point x="182" y="634" type="curve" smooth="yes"/>
      <point x="234" y="487" type="line"/>
      <point x="5" y="0" type="line"/>
      <point x="29" y="0" type="line"/>
      <point x="247" y="474" type="line"/>
      <point x="239" y="474" type="line"/>
      <point x="404" y="0" type="line"/>
      <point x="426" y="0" type="line"/>
      <point x="200" y="643" type="line" smooth="yes"/>
      <point x="174" y="716"/>
      <point x="147" y="749"/>
      <point x="96" y="749" type="curve" smooth="yes"/>
      <point x="69" y="749"/>
      <point x="44" y="740"/>
      <point x="17" y="725" type="curve"/>
      <point x="23" y="711" type="line"/>
      <point x="51" y="726"/>
      <point x="73" y="732"/>
      <point x="94" y="732" type="curve" smooth="yes"/>
      <point x="135" y="732"/>
      <point x="158" y="702"/>
    </contour>
  </outline>
</glyph>
<glyph name="mu" format="2">
  <advance width="553"/>
  <unicode hex="03BC"/>
  <anchor x="257" y="480" name="top"/>
  <outline>
    <contour>
      <point x="482" y="-2" type="curve" smooth="yes"/>
      <point x="501" y="-2"/>
      <point x="519" y="4"/>
      <point x="533" y="10" type="curve"/>
      <point x="528" y="23" type="line"/>
      <point x="512" y="17"/>
      <point x="499" y="14"/>
      <point x="485" y="14" type="curve" smooth="yes"/>
      <point x="458" y="14"/>
      <point x="438" y="39"/>
      <point x="438" y="80" type="curve" smooth="yes"/>
      <point x="438" y="480" type="line"/>
      <point x="417" y="480" type="line"/>
      <point x="417" y="79" type="line" smooth="yes"/>
      <point x="417" y="28"/>
      <point x="444" y="-2"/>
    </contour>
    <contour>
      <point x="88" y="-217" type="line"/>
      <point x="112" y="-217" type="line"/>
      <point x="106" y="73" type="line"/>
      <point x="109" y="73" type="line"/>
      <point x="109" y="480" type="line"/>
      <point x="88" y="480" type="line"/>
    </contour>
    <contour>
      <point x="252" y="-6" type="curve" smooth="yes"/>
      <point x="319" y="-6"/>
      <point x="386" y="26"/>
      <point x="435" y="77" type="curve"/>
      <point x="426" y="88" type="line"/>
      <point x="380" y="41"/>
      <point x="317" y="12"/>
      <point x="256" y="12" type="curve" smooth="yes"/>
      <point x="200" y="12"/>
      <point x="149" y="43"/>
      <point x="109" y="96" type="curve"/>
      <point x="93" y="87" type="line"/>
      <point x="135" y="28"/>
      <point x="187" y="-6"/>
    </contour>
  </outline>
</glyph>
<glyph name="nu" format="2">
  <advance width="458"/>
  <unicode hex="03BD"/>
  <anchor x="233" y="0" name="bottom"/>
  <anchor x="233" y="480" name="top"/>
  <outline>
    <contour>
      <point x="229" y="14" type="line"/>
      <point x="238" y="14" type="line"/>
      <point x="50" y="480" type="line"/>
      <point x="27" y="480" type="line"/>
      <point x="224" y="0" type="line"/>
      <point x="242" y="0" type="line"/>
      <point x="303" y="124" type="line" smooth="yes"/>
      <point x="370" y="261"/>
      <point x="416" y="371"/>
      <point x="416" y="480" type="curve"/>
      <point x="395" y="480" type="line"/>
      <point x="395" y="374"/>
      <point x="348" y="261"/>
      <point x="288" y="136" type="curve" smooth="yes"/>
    </contour>
  </outline>
</glyph>
<glyph name="xi" format="2">
  <advance width="410"/>
  <unicode hex="03BE"/>
  <outline>
    <contour>
      <point x="62" y="739" type="line"/>
      <point x="62" y="722" type="line"/>
      <point x="394" y="722" type="line"/>
      <point x="387" y="728" type="line"/>
      <point x="273" y="675" type="line" smooth="yes"/>
      <point x="187" y="635"/>
      <point x="84" y="573"/>
      <point x="84" y="490" type="curve" smooth="yes"/>
      <point x="84" y="425"/>
      <point x="139" y="372"/>
      <point x="230" y="372" type="curve"/>
      <point x="232" y="377" type="line"/>
      <point x="133" y="377"/>
      <point x="52" y="301"/>
      <point x="52" y="216" type="curve" smooth="yes"/>
      <point x="52" y="125"/>
      <point x="117" y="73"/>
      <point x="228" y="31" type="curve" smooth="yes"/>
      <point x="318" y="-3"/>
      <point x="367" y="-31"/>
      <point x="367" y="-83" type="curve" smooth="yes"/>
      <point x="367" y="-122"/>
      <point x="330" y="-169"/>
      <point x="298" y="-207" type="curve"/>
      <point x="311" y="-219" type="line"/>
      <point x="349" y="-175"/>
      <point x="388" y="-127"/>
      <point x="388" y="-79" type="curve" smooth="yes"/>
      <point x="388" y="-23"/>
      <point x="340" y="9"/>
      <point x="240" y="47" type="curve" smooth="yes"/>
      <point x="134" y="87"/>
      <point x="74" y="136"/>
      <point x="74" y="220" type="curve" smooth="yes"/>
      <point x="74" y="291"/>
      <point x="147" y="367"/>
      <point x="252" y="367" type="curve" smooth="yes"/>
      <point x="368" y="367" type="line"/>
      <point x="368" y="384" type="line"/>
      <point x="256" y="384" type="line" smooth="yes"/>
      <point x="149" y="384"/>
      <point x="106" y="437"/>
      <point x="106" y="493" type="curve" smooth="yes"/>
      <point x="106" y="565"/>
      <point x="201" y="622"/>
      <point x="284" y="662" type="curve" smooth="yes"/>
      <point x="412" y="724" type="line"/>
      <point x="412" y="739" type="line"/>
    </contour>
  </outline>
</glyph>
<glyph name="omicron" format="2">
  <advance width="531"/>
  <unicode hex="03BF"/>
  <anchor x="267" y="0" name="bottom"/>
  <anchor x="257" y="480" name="top"/>
  <outline>
    <contour>
      <point x="266" y="-10" type="curve" smooth="yes"/>
      <point x="391" y="-10"/>
      <point x="474" y="91"/>
      <point x="474" y="240" type="curve" smooth="yes"/>
      <point x="474" y="388"/>
      <point x="392" y="486"/>
      <point x="268" y="486" type="curve" smooth="yes"/>
      <point x="140" y="486"/>
      <point x="57" y="385"/>
      <point x="57" y="237" type="curve" smooth="yes"/>
      <point x="57" y="90"/>
      <point x="139" y="-10"/>
    </contour>
    <contour>
      <point x="268" y="8" type="curve" smooth="yes"/>
      <point x="151" y="8"/>
      <point x="78" y="102"/>
      <point x="78" y="239" type="curve" smooth="yes"/>
      <point x="78" y="373"/>
      <point x="148" y="468"/>
      <point x="263" y="468" type="curve" smooth="yes"/>
      <point x="379" y="468"/>
      <point x="453" y="377"/>
      <point x="453" y="237" type="curve" smooth="yes"/>
      <point x="453" y="98"/>
      <point x="380" y="8"/>
    </contour>
  </outline>
</glyph>
<glyph name="pi" format="2">
  <advance width="566.0"/>
  <unicode hex="03C0"/>
  <outline>
    <contour>
      <point x="472.0" y="-10.0" type="curve" smooth="yes"/>
      <point x="490.0" y="-10.0"/>
      <point x="508.0" y="-5.0"/>
      <point x="523.0" y="4.0" type="curve"/>
      <point x="520.0" y="17.0" type="line"/>
      <point x="506.0" y="11.0"/>
      <point x="488.0" y="7.0"/>
      <point x="474.0" y="7.0" type="curve" smooth="yes"/>
      <point x="450.0" y="7.0"/>
      <point x="434.0" y="30.0"/>
      <point x="434.0" y="64.0" type="curve" smooth="yes"/>
      <point x="434.0" y="471.0" type="line"/>
      <point x="413.0" y="471.0" type="line"/>
      <point x="413.0" y="64.0" type="line" smooth="yes"/>
      <point x="413.0" y="20.0"/>
      <point x="437.0" y="-10.0"/>
    </contour>
    <contour>
      <point x="117.0" y="0.0" type="line"/>
      <point x="138.0" y="0.0" type="line"/>
      <point x="138.0" y="471.0" type="line"/>
      <point x="117.0" y="471.0" type="line"/>
    </contour>
    <contour>
      <point x="37.0" y="463.0" type="line"/>
      <point x="512.0" y="463.0" type="line"/>
      <point x="512.0" y="480.0" type="line"/>
      <point x="37.0" y="480.0" type="line"/>
    </contour>
  </outline>
</glyph>
<glyph name="rho" format="2">
  <advance width="518"/>
  <unicode hex="03C1"/>
  <anchor x="253" y="0" name="bottom"/>
  <anchor x="253" y="480" name="top"/>
  <outline>
    <contour>
      <point x="68" y="262" type="curve" smooth="yes"/>
      <point x="68" y="-217" type="line"/>
      <point x="92" y="-217" type="line"/>
      <point x="86" y="79" type="line"/>
      <point x="89" y="79" type="line"/>
      <point x="89" y="259" type="line" smooth="yes"/>
      <point x="89" y="392"/>
      <point x="161" y="468"/>
      <point x="262" y="468" type="curve" smooth="yes"/>
      <point x="376" y="468"/>
      <point x="440" y="378"/>
      <point x="440" y="237" type="curve" smooth="yes"/>
      <point x="440" y="97"/>
      <point x="365" y="8"/>
      <point x="252" y="8" type="curve" smooth="yes"/>
      <point x="172" y="8"/>
      <point x="109" y="53"/>
      <point x="79" y="126" type="curve"/>
      <point x="76" y="96" type="line"/>
      <point x="109" y="29"/>
      <point x="170" y="-10"/>
      <point x="250" y="-10" type="curve" smooth="yes"/>
      <point x="376" y="-10"/>
      <point x="461" y="90"/>
      <point x="461" y="240" type="curve" smooth="yes"/>
      <point x="461" y="389"/>
      <point x="388" y="486"/>
      <point x="264" y="486" type="curve" smooth="yes"/>
      <point x="150" y="486"/>
      <point x="68" y="405"/>
    </contour>
  </outline>
</glyph>
<glyph name="sigmafinal" format="2">
  <advance width="430"/>
  <unicode hex="03C2"/>
  <outline>
    <contour>
      <point x="78" y="269" type="curve" smooth="yes"/>
      <point x="78" y="383"/>
      <point x="151" y="468"/>
      <point x="273" y="468" type="curve" smooth="yes"/>
      <point x="317" y="468"/>
      <point x="357" y="457"/>
      <point x="395" y="436" type="curve"/>
      <point x="402" y="452" type="line"/>
      <point x="361" y="475"/>
      <point x="320" y="486"/>
      <point x="275" y="486" type="curve" smooth="yes"/>
      <point x="140" y="486"/>
      <point x="57" y="390"/>
      <point x="57" y="264" type="curve" smooth="yes"/>
      <point x="57" y="143"/>
      <point x="124" y="81"/>
      <point x="237" y="36" type="curve" smooth="yes"/>
      <point x="327" y="0"/>
      <point x="380" y="-36"/>
      <point x="380" y="-86" type="curve" smooth="yes"/>
      <point x="380" y="-124"/>
      <point x="344" y="-169"/>
      <point x="313" y="-207" type="curve"/>
      <point x="326" y="-219" type="line"/>
      <point x="363" y="-175"/>
      <point x="401" y="-129"/>
      <point x="401" y="-82" type="curve" smooth="yes"/>
      <point x="401" y="-27"/>
      <point x="350" y="11"/>
      <point x="245" y="53" type="curve" smooth="yes"/>
      <point x="142" y="94"/>
      <point x="78" y="153"/>
    </contour>
  </outline>
</glyph>
<glyph name="sigma" format="2">
  <advance width="560"/>
  <unicode hex="03C3"/>
  <outline>
    <contour>
      <point x="353" y="471" type="line"/>
      <point x="405" y="414"/>
      <point x="456" y="324"/>
      <point x="456" y="224" type="curve" smooth="yes"/>
      <point x="456" y="94"/>
      <point x="383" y="8"/>
      <point x="269" y="8" type="curve" smooth="yes"/>
      <point x="155" y="8"/>
      <point x="78" y="97"/>
      <point x="78" y="236" type="curve" smooth="yes"/>
      <point x="78" y="368"/>
      <point x="162" y="463"/>
      <point x="302" y="463" type="curve" smooth="yes"/>
      <point x="550" y="463" type="line"/>
      <point x="550" y="480" type="line"/>
      <point x="300" y="480" type="line" smooth="yes"/>
      <point x="149" y="480"/>
      <point x="57" y="379"/>
      <point x="57" y="234" type="curve" smooth="yes"/>
      <point x="57" y="85"/>
      <point x="143" y="-10"/>
      <point x="267" y="-10" type="curve" smooth="yes"/>
      <point x="393" y="-10"/>
      <point x="477" y="87"/>
      <point x="477" y="227" type="curve" smooth="yes"/>
      <point x="477" y="331"/>
      <point x="421" y="426"/>
      <point x="368" y="479" type="curve"/>
    </contour>
  </outline>
</glyph>
<glyph name="tau" format="2">
  <advance width="434"/>
  <unicode hex="03C4"/>
  <outline>
    <contour>
      <point x="12" y="463" type="line"/>
      <point x="417" y="463" type="line"/>
      <point x="417" y="480" type="line"/>
      <point x="12" y="480" type="line"/>
    </contour>
    <contour>
      <point x="286" y="-3" type="curve" smooth="yes"/>
      <point x="309" y="-3"/>
      <point x="334" y="3"/>
      <point x="352" y="12" type="curve"/>
      <point x="347" y="26" type="line"/>
      <point x="330" y="18"/>
      <point x="307" y="14"/>
      <point x="288" y="14" type="curve" smooth="yes"/>
      <point x="247" y="14"/>
      <point x="219" y="42"/>
      <point x="219" y="93" type="curve" smooth="yes"/>
      <point x="219" y="480" type="line"/>
      <point x="199" y="480" type="line"/>
      <point x="199" y="89" type="line" smooth="yes"/>
      <point x="199" y="31"/>
      <point x="232" y="-3"/>
    </contour>
  </outline>
</glyph>
<glyph name="upsilon" format="2">
  <advance width="505"/>
  <unicode hex="03C5"/>
  <anchor x="226" y="0" name="bottom"/>
  <anchor x="226" y="480" name="top"/>
  <outline>
    <contour>
      <point x="257" y="-6" type="curve" smooth="yes"/>
      <point x="393" y="-6"/>
      <point x="442" y="93"/>
      <point x="442" y="229" type="curve" smooth="yes"/>
      <point x="442" y="325"/>
      <point x="418" y="400"/>
      <point x="390" y="480" type="curve"/>
      <point x="368" y="480" type="line"/>
      <point x="397" y="401"/>
      <point x="421" y="316"/>
      <point x="421" y="230" type="curve" smooth="yes"/>
      <point x="421" y="105"/>
      <point x="379" y="12"/>
      <point x="259" y="12" type="curve" smooth="yes"/>
      <point x="161" y="12"/>
      <point x="96" y="75"/>
      <point x="96" y="201" type="curve" smooth="yes"/>
      <point x="96" y="480" type="line"/>
      <point x="75" y="480" type="line"/>
      <point x="75" y="199" type="line" smooth="yes"/>
      <point x="75" y="64"/>
      <point x="149" y="-6"/>
    </contour>
  </outline>
</glyph>
<glyph name="phi" format="2">
  <advance width="661"/>
  <unicode hex="03C6"/>
  <outline>
    <contour>
      <point x="318" y="-4" type="curve"/>
      <point x="320" y="14" type="line"/>
      <point x="189" y="14"/>
      <point x="83" y="102"/>
      <point x="83" y="241" type="curve" smooth="yes"/>
      <point x="83" y="320"/>
      <point x="103" y="402"/>
      <point x="144" y="480" type="curve"/>
      <point x="122" y="480" type="line"/>
      <point x="83" y="407"/>
      <point x="62" y="325"/>
      <point x="62" y="237" type="curve" smooth="yes"/>
      <point x="62" y="89"/>
      <point x="173" y="-4"/>
    </contour>
    <contour>
      <point x="335" y="14" type="curve"/>
      <point x="333" y="-4" type="line"/>
      <point x="503" y="-4"/>
      <point x="604" y="90"/>
      <point x="604" y="258" type="curve" smooth="yes"/>
      <point x="604" y="391"/>
      <point x="550" y="486"/>
      <point x="455" y="486" type="curve" smooth="yes"/>
      <point x="363" y="486"/>
      <point x="316" y="418"/>
      <point x="316" y="276" type="curve" smooth="yes"/>
      <point x="316" y="-217" type="line"/>
      <point x="337" y="-217" type="line"/>
      <point x="337" y="274" type="line" smooth="yes"/>
      <point x="337" y="408"/>
      <point x="373" y="468"/>
      <point x="454" y="468" type="curve" smooth="yes"/>
      <point x="539" y="468"/>
      <point x="583" y="380"/>
      <point x="583" y="254" type="curve" smooth="yes"/>
      <point x="583" y="101"/>
      <point x="485" y="14"/>
    </contour>
  </outline>
</glyph>
<glyph name="chi" format="2">
  <advance width="479"/>
  <unicode hex="03C7"/>
  <outline>
    <contour>
      <point x="436" y="-217" type="line"/>
      <point x="459" y="-217" type="line"/>
      <point x="246" y="145" type="line"/>
      <point x="50" y="480" type="line"/>
      <point x="27" y="480" type="line"/>
      <point x="236" y="126" type="line"/>
    </contour>
    <contour>
      <point x="27" y="-217" type="line"/>
      <point x="50" y="-217" type="line"/>
      <point x="244" y="121" type="line"/>
      <point x="233" y="139" type="line"/>
    </contour>
    <contour>
      <point x="251" y="131" type="line"/>
      <point x="453" y="480" type="line"/>
      <point x="430" y="480" type="line"/>
      <point x="239" y="147" type="line"/>
    </contour>
  </outline>
</glyph>
<glyph name="psi" format="2">
  <advance width="667"/>
  <unicode hex="03C8"/>
  <outline>
    <contour>
      <point x="326" y="-217" type="line"/>
      <point x="347" y="-217" type="line"/>
      <point x="347" y="642" type="line"/>
      <point x="326" y="642" type="line"/>
    </contour>
    <contour>
      <point x="330" y="14" type="line"/>
      <point x="197" y="14"/>
      <point x="96" y="81"/>
      <point x="96" y="237" type="curve" smooth="yes"/>
      <point x="96" y="480" type="line"/>
      <point x="75" y="480" type="line"/>
      <point x="75" y="233" type="line" smooth="yes"/>
      <point x="75" y="71"/>
      <point x="182" y="-4"/>
      <point x="328" y="-4" type="curve"/>
    </contour>
    <contour>
      <point x="343" y="-4" type="line"/>
      <point x="501" y="-4"/>
      <point x="605" y="81"/>
      <point x="605" y="237" type="curve" smooth="yes"/>
      <point x="605" y="332"/>
      <point x="582" y="402"/>
      <point x="553" y="480" type="curve"/>
      <point x="531" y="480" type="line"/>
      <point x="562" y="404"/>
      <point x="584" y="321"/>
      <point x="584" y="238" type="curve" smooth="yes"/>
      <point x="584" y="91"/>
      <point x="486" y="14"/>
      <point x="345" y="14" type="curve"/>
    </contour>
  </outline>
</glyph>
<glyph name="omega" format="2">
  <advance width="712"/>
  <unicode hex="03C9"/>
  <anchor x="356" y="0" name="bottom"/>
  <anchor x="356" y="480" name="top"/>
  <outline>
    <contour>
      <point x="346" y="360" type="line"/>
      <point x="346" y="203" type="line" smooth="yes"/>
      <point x="346" y="79"/>
      <point x="296" y="16"/>
      <point x="221" y="16" type="curve" smooth="yes"/>
      <point x="120" y="16"/>
      <point x="83" y="114"/>
      <point x="83" y="209" type="curve" smooth="yes"/>
      <point x="83" y="297"/>
      <point x="118" y="403"/>
      <point x="154" y="480" type="curve"/>
      <point x="132" y="480" type="line"/>
      <point x="96" y="400"/>
      <point x="62" y="308"/>
      <point x="62" y="208" type="curve" smooth="yes"/>
      <point x="62" y="94"/>
      <point x="108" y="-4"/>
      <point x="220" y="-4" type="curve" smooth="yes"/>
      <point x="303" y="-4"/>
      <point x="361" y="63"/>
      <point x="361" y="193" type="curve"/>
      <point x="352" y="188" type="line"/>
      <point x="352" y="63"/>
      <point x="409" y="-4"/>
      <point x="494" y="-4" type="curve" smooth="yes"/>
      <point x="602" y="-4"/>
      <point x="650" y="102"/>
      <point x="650" y="215" type="curve" smooth="yes"/>
      <point x="650" y="311"/>
      <point x="614" y="400"/>
      <point x="577" y="480" type="curve"/>
      <point x="555" y="480" type="line"/>
      <point x="592" y="403"/>
      <point x="629" y="300"/>
      <point x="629" y="216" type="curve" smooth="yes"/>
      <point x="629" y="122"/>
      <point x="590" y="16"/>
      <point x="493" y="16" type="curve" smooth="yes"/>
      <point x="416" y="16"/>
      <point x="367" y="80"/>
      <point x="367" y="205" type="curve" smooth="yes"/>
      <point x="367" y="360" type="line"/>
    </contour>
  </outline>
</glyph>
